<?xml version="1.0" encoding="utf-8"?>
<!-- Generator: Adobe Illustrator 16.0.4, SVG Export Plug-In . SVG Version: 6.00 Build 0)  -->
<!DOCTYPE svg PUBLIC "-//W3C//DTD SVG 1.1//EN" "http://www.w3.org/Graphics/SVG/1.1/DTD/svg11.dtd">
<svg version="1.1" id="Layer_1" xmlns="http://www.w3.org/2000/svg" xmlns:xlink="http://www.w3.org/1999/xlink" x="0px" y="0px"
	 width="615.214px" height="612px" viewBox="0 0 615.214 612" enable-background="new 0 0 615.214 612" xml:space="preserve">
<g>
	<path fill-rule="evenodd" clip-rule="evenodd" d="M17.889,609.967c-4.105-0.821-8.006-3.078-10.264-6.568
		c-5.542-6.567-6.158-16.421-7.39-24.838c-1.026-16.627,1.232-36.128,8.211-50.7c3.08-4.725,5.748-10.265,10.059-13.755
		c2.464-1.641,3.284-4.311,6.363-4.721c3.9-3.899,10.264-4.517,14.369-6.979c7.39-1.438,14.78-0.821,21.554,0.409
		c3.9,2.67,9.032,3.491,12.933,5.746c4.516,1.027,7.594,5.134,11.289,7.391c3.9,4.107,8.827,7.184,12.112,11.085
		c2.462,0.411,5.131,1.643,6.979,0.411c-1.642-2.874-5.337-3.9-7.389-6.567c-5.542-3.902-8.827-11.292-7.391-18.27
		c1.644-5.953,2.258-11.496,5.337-15.396c2.874-3.489,7.8-5.542,12.111-6.158c6.98-1.438,13.548-0.409,18.475,3.284
		c4.31,3.695,7.8,9.237,6.773,15.188c-1.437,4.106-3.079,7.596-5.542,10.674c-1.847,1.849-4.105,3.081-5.952,4.518
		c-6.364,1.643-13.959,2.257-16.628-3.488c-2.668-5.134-3.284-10.677-0.41-15.396c1.437-2.258,4.106-2.464,5.337-3.9
		c3.9-1.025,7.184-0.204,9.852,1.849c2.258,2.257,3.49,6.362,2.464,9.44c-1.643,2.874-4.105,4.311-6.979,4.927
		c-1.642-0.41-1.847-1.231-2.463-2.667c0-2.874,4.721-1.643,4.721-4.107c0.206-2.053-0.616-3.9-1.847-4.72
		c-2.257,0-5.542-0.616-6.158,0.617c-2.874,2.255-2.874,6.567-2.463,9.851c2.463,2.874,5.748,5.133,9.648,4.724
		c5.542-1.233,9.032-4.724,11.085-9.443c0.41-5.953-2.053-11.086-5.132-13.96c-5.542-3.9-12.933-3.693-18.475-0.821
		c-1.438,2.055-3.49,2.874-4.927,4.517c-3.694,3.9-3.694,10.06-3.078,15.191c1.642,3.283,2.462,6.772,4.721,8.824
		c0.821,2.052,3.079,2.464,3.901,3.491c2.667,1.643,5.337,2.462,7.594,3.695c2.668,0.819,5.337,1.641,7.8,1.641
		c14.78,3.901,29.969,2.053,44.338,3.901c20.527,0.41,40.233-0.411,60.35-0.821c21.143-0.411,41.67,0.615,61.992,0.615
		c20.527,0.412,40.849-0.205,60.555-0.205c21.142-1.026,41.053,0.205,61.376-0.614c20.937,0.204,40.849,0,61.58-0.207
		c12.112,0.207,25.249,0.411,36.332,0.616c9.854-1.643,20.939-0.409,30.587,0c0.205-20.117-0.615-40.438,0-60.761
		c-0.41-21.144,0.205-41.055-0.41-61.375c0.615-20.938-0.616-41.465,0.41-61.581c-0.822-11.7,0.205-22.375-0.41-33.048
		c0.41-20.322-0.205-40.85,0.204-60.966c-0.409-20.937,0.206-41.054-0.616-61.375c0.207-5.748,0.412-10.674,0.412-15.806
		c-0.205-20.732,1.231-40.438-0.205-61.171c-0.207-4.105-2.053-5.952-3.284-9.236c-2.26-1.643-2.464-4.105-4.722-5.543
		c-2.259-2.873-5.543-3.489-8.827-5.131c-8.006-2.464-15.807,0.206-21.143,5.748c-2.874,4.105-4.927,10.264-1.849,15.19
		c1.026,2.258,3.08,4.926,5.954,5.748c4.311,1.231,8.21,0.822,12.316-1.231c1.643-2.669,4.104-4.516,3.899-7.801
		c-0.41-2.462-0.615-5.131-1.847-6.568c-2.26-1.438-4.927-2.053-6.979-1.438c-2.463,1.232-3.901,2.259-4.927,4.722
		c-0.617,2.874,1.436,4.721,2.464,5.953c2.463,1.231,3.899-0.616,5.746-0.206c0.206,1.231-0.615,2.052-1.23,3.079
		c-2.463,0.821-5.338,0.616-7.186-0.616c-2.872-2.463-3.488-5.953-2.668-9.237c0.205-3.899,3.489-4.722,5.748-6.773
		c3.489-1.438,7.595-0.822,10.469,0.616c2.052,1.436,4.516,2.668,4.925,5.131c2.26,6.569,0.207,13.958-4.104,18.064
		c-4.311,3.9-11.085,4.31-16.423,2.463c-2.257-1.026-3.283-2.463-5.543-2.874c-5.13-4.312-7.594-12.112-7.184-18.885
		c0.206-4.105,2.258-6.774,3.49-9.032c3.693-4.721,7.801-6.568,13.137-7.389c6.568-2.669,12.728,1.847,18.886,2.872
		c3.489,2.875,7.39,4.928,9.853,8.828c0.41,0.411,0.82,0.411,0.82,0.411c0.616-2.464,1.232-7.185-0.204-9.853
		c-4.312-0.411-6.159-3.08-9.647-4.312c-4.311-2.873-8.211-5.953-10.88-9.647c-6.158-7.595-10.265-19.295-8.212-29.97
		c1.643-6.364,3.49-12.316,7.39-17.242c0-2.259,2.26-2.464,2.465-3.901c3.899-4.721,8.621-8.005,13.137-11.495
		c2.053-1.231,4.312-2.052,5.748-3.284c4.926-1.847,9.031-3.489,13.958-4.722c2.669-0.615,4.927-1.437,7.596-1.847
		c16.83-3.899,36.743-4.105,53.164,2.052c4.926,4.722,5.132,12.727,3.694,19.09c-1.437,1.642-2.052,4.311-3.284,5.748
		c-2.257,4.106-4.721,6.773-6.363,10.674c-1.23,1.026-1.025,2.053-1.642,3.079c-0.616,2.463-2.053,4.311-2.669,5.953
		c-3.9,10.468-5.542,21.553-5.747,32.432c-2.669,21.554-2.052,41.875-1.642,62.812l0.82,442.563l-502.502,0.412
		c-17.243,3.898-31.611,3.489-48.443,12.313c-2.464,1.028-3.901,1.645-6.364,2.26C31.026,606.271,24.868,610.788,17.889,609.967"/>
	<path fill-rule="evenodd" clip-rule="evenodd" fill="#00A651" d="M21.173,605.041c-4.516,0.82-7.39-2.053-9.647-4.312
		c-1.848-3.488-4.312-6.771-4.516-10.468c-3.489-18.475-2.259-37.976,3.284-55.217c1.027-3.079,2.669-5.131,3.9-8.213
		c2.258-2.257,2.874-4.515,4.721-6.157c2.668-4.927,6.362-7.184,10.469-9.853c11.29-6.362,25.659-6.157,37.564-1.232
		c2.258,1.027,3.49,1.645,5.337,2.67c2.258,2.667,5.748,2.257,6.979,4.925c3.49,2.876,8.006,5.952,10.469,8.622
		c2.668,1.438,3.695,4.107,6.568,5.133c1.231,1.437,3.079,1.026,3.9,1.847c20.322,0.82,40.848-0.206,60.76,0
		c21.143,0.206,40.849-0.206,60.966-0.82c21.142,0.614,41.874,0,62.196,0.205c20.731,0.615,40.438-0.617,60.76-0.821
		c20.938-0.206,41.259,0.411,61.581-0.206c21.144,0,41.056-0.204,61.376-0.41c21.143,0.206,41.464-0.205,61.992,0.41
		c3.49-0.41,7.185,1.849,9.236-0.615c0.41-20.115,0.82-40.028,0.615-59.529c-0.41-4.72,0.205-8.825-0.205-13.341
		c0.205-20.528-0.205-41.055,0.205-61.171c-0.41-21.144-0.205-41.055,0-61.582c-0.41-9.031,0.205-17.037,0.205-25.452
		c-0.205-20.323-0.41-40.85,0-60.966c0-20.938-0.41-40.849-0.41-61.17c0-21.143,0.616-41.67,0.205-61.787
		c-1.025-13.342,2.874-28.532-1.847-39c-7.801-2.874-13.752-6.569-18.68-11.496c-1.642-2.873-3.488-4.31-4.722-6.979
		c-2.462-3.489-3.079-6.773-4.104-11.084c-1.027-7.799,0.41-15.19,3.899-21.348c2.054-4.105,4.723-8.416,7.184-11.496
		c3.696-3.284,7.802-5.131,10.882-7.799c1.641-1.847,4.925-2.464,6.567-3.901c5.953-2.668,11.906-4.105,17.859-6.158
		c13.957-3.08,29.148-3.08,43.312-0.616c5.748,0.821,8.622,4.516,10.059,9.443c0.41,4.106-0.412,7.8-2.465,10.263
		c-3.488,6.363-7.184,11.496-9.853,17.654c-8.416,17.653-10.468,37.358-11.494,55.217l0.82,483.617l-476.022-1.231
		c-9.853,0.204-19.5-1.026-28.532,1.848c-4.105,0-9.442,1.848-13.959,2.258c-4.925,1.438-9.852,2.463-13.957,4.312
		c-7.185,0.614-12.727,4.719-17.859,7.389c-1.847,2.259-4.72,2.874-6.363,4.722C26.715,602.167,24.663,604.424,21.173,605.041"/>
	<path fill-rule="evenodd" clip-rule="evenodd" d="M30.821,588.618c-3.08,0-6.979,0.412-8.827-2.257
		c-2.874-3.284-3.489-7.597-4.516-11.906c-0.206-8.005,0.204-15.191,1.847-22.58c3.49-9.442,8.005-17.858,15.395-23.4
		c1.232-2.669,4.106-2.669,5.542-4.927c2.668-1.231,4.926-1.848,7.184-2.874c10.059-2.874,18.68,1.643,24.838,6.979
		c0.821,2.464,3.49,2.464,4.516,4.517c3.49,2.051,4.516,5.748,7.391,8.415c0.615,2.26,3.284,0.411,5.131,2.052l460.833,1.644
		l1.846-458.163c2.258-1.437,4.105-3.489,3.9-6.158c-0.615-3.695-5.131-3.284-5.952-5.748c-7.391-2.875-12.728-5.953-16.832-11.701
		c-1.643-2.463-2.464-4.721-3.491-6.568c-1.025-2.053-0.82-3.9-1.846-5.336c-1.231-10.059,2.873-19.09,9.646-23.812
		c5.543-3.9,11.29-5.953,18.475-8.005c12.934-3.08,27.096-3.9,39.411-0.206c0.822,1.231,1.028,2.463,0.411,3.079
		c-3.077,3.695-4.31,8.622-6.773,12.521c-3.695,8.827-7.185,17.448-9.032,26.685c-3.078,11.906-2.874,22.786-2.463,34.896
		l-2.258,475.611H90.76c-13.548,0.617-25.454,3.079-37.77,6.363c-3.284,2.053-6.774,3.078-10.469,4.722
		c-3.079,1.026-4.721,2.668-7.39,3.695C33.695,587.387,32.258,588.003,30.821,588.618"/>
	<path fill-rule="evenodd" clip-rule="evenodd" fill="#ADBC72" d="M30,584.719c-2.669,0.41-5.132-1.027-6.158-3.08
		c-3.696-11.084-2.464-23.605,2.462-34.896c1.643-4.105,3.696-7.184,6.364-10.877c3.285-3.286,6.568-5.952,10.469-8.005
		c5.748-2.465,11.085-5.134,16.627-3.491c2.258,2.258,6.158,2.053,7.39,4.723c4.927,3.078,8.827,7.388,11.905,11.288
		c2.258,4.518,2.258,6.981,6.979,9.034c13.343-1.438,24.633-0.823,37.154-1.233l431.684,0.206l0.616-450.775
		c-0.205-2.258-1.026-6.158-0.205-8.005c3.284-2.462,5.337-5.952,4.72-10.058c-0.613-2.258-2.463-3.695-3.078-5.131
		c-1.642-1.643-3.283-2.464-4.927-3.695c-3.489-1.232-5.953-2.874-8.621-4.311c-1.642-2.669-4.721-3.079-6.158-5.543
		c-4.104-4.515-6.979-11.494-5.952-17.653c0.821-2.052,0.41-3.9,1.848-4.72c0.411-2.054,1.847-3.695,2.873-4.721
		c2.054-2.463,4.516-4.106,6.979-5.953c14.164-6.159,31.611-8.417,46.802-5.954c-0.411,2.669-1.848,5.542-2.873,8.417
		c-1.232,1.232-1.026,2.668-2.258,3.9c-3.081,6.979-5.748,14.574-7.801,21.759c-1.643,8.005-4.927,17.448-4.927,25.043
		l-1.643,485.258l-450.774,0.616c-17.859-1.436-35.717,0.205-52.754,3.695c-5.542,0.821-9.853,2.668-15.396,4.105
		c-2.668,2.053-7.595,1.848-9.852,4.517C36.98,580.613,34.31,583.077,30,584.719"/>
	<path fill-rule="evenodd" clip-rule="evenodd" d="M288.436,524.574c-19.5,0.207-39.617-1.23-58.708-4.926
		c-10.468-1.027-18.885-4.518-28.737-6.57c-6.159-2.666-13.754-3.693-19.09-7.183c-3.49-0.615-6.364-1.437-9.238-2.874
		c-3.695-2.259-8.005-2.465-11.085-5.339c-6.158-1.641-10.263-5.336-16.216-7.389c-1.437-1.231-2.874-2.257-4.926-2.463
		c-4.517-3.285-10.264-6.363-14.985-9.237c-2.874-1.436-4.926-3.49-7.39-4.31c-3.9-3.08-7.595-5.132-10.674-7.801
		c-3.49-1.438-4.516-3.695-7.39-5.336c-3.9-3.49-7.39-6.364-10.88-9.444c-4.311-4.104-8.416-7.186-11.905-11.084
		c-4.722-3.694-7.39-6.979-11.29-11.7c-3.08-4.107-6.364-8.007-9.032-12.112c-1.231-1.641-2.053-3.488-1.231-4.719
		c7.184-3.903,16.216-5.339,22.58-8.827c2.667-0.411,4.927-1.026,6.773-1.438c5.748-3.283,12.112-4.31,17.859-6.771
		c3.284-0.823,6.773-1.645,9.443-2.465c0.411-5.953,1.437-12.109,2.874-17.036c1.231-1.643,1.437-3.491,2.053-4.929
		c0.615-2.258,1.436-2.874,1.847-4.515c1.847-4.722,4.31-8.622,6.774-12.317c2.053-3.693,5.131-6.979,8.006-9.853
		c1.847-0.821,2.462-2.67,4.721-3.284c3.079-3.695,8.006-6.157,11.701-8.826c2.667-1.233,4.926-2.67,7.389-3.489
		c4.311-2.464,9.443-3.489,14.369-5.338c3.49-0.412,6.774-2.053,9.854-2.464c3.694-1.848,7.594-2.053,11.494-3.078
		c3.285-1.849,8.211-0.821,10.88-2.875c5.952-16.626,7.8-35.716,10.468-52.958c1.437-6.159,1.642-11.496,3.901-17.654
		c0.411-1.026,0.616-1.847,0.616-2.463c1.847-5.131,3.489-9.441,6.157-13.342c3.49-5.131,9.032-8.827,13.138-11.7
		c5.747-3.285,10.879-5.132,17.243-6.979c4.105-1.027,8.622-2.258,12.521-2.875c5.132-1.847,10.468-2.463,15.396-2.874
		c9.032-2.463,17.858-2.668,26.274-4.927c5.748-0.615,11.084-2.257,16.627-2.873c3.49-1.232,5.748-2.464,9.032-3.695
		c1.437-3.49,1.642-5.954,3.078-9.443c5.133-15.806,11.085-31.406,19.091-44.954c2.874-5.543,6.363-10.469,9.647-14.575
		c2.464-2.874,4.722-5.953,7.185-8.211c1.232-1.847,3.08-2.668,3.695-4.105c3.9-2.463,6.364-5.337,9.648-7.8
		c3.284-2.463,5.747-4.926,9.441-6.158c3.695-4.105,10.88-4.516,13.753-9.031c1.026-5.542,3.49-11.29,4.928-16.217
		c1.437-2.462,1.642-5.747,2.874-7.8c0-2.668,1.847-4.927,1.641-7.185c2.67-2.668,1.438-7.594,5.132-9.237
		c3.49,0,4.927,3.284,7.391,4.311c3.899,4.105,7.595,8.005,10.88,11.905c1.437,0.821,2.462,3.08,3.694,3.901
		c1.025,2.258,3.284,4.104,4.311,5.953c7.8,8.416,13.753,19.294,21.143,27.3c1.642,3.285,3.901,5.132,5.336,8.417
		c1.849,0.821,1.849,3.49,3.285,4.516c1.849,3.9,4.311,6.774,5.952,11.085c4.518,7.184,8.621,13.753,12.112,21.142
		c2.052,3.49,3.078,6.57,4.721,9.854c4.721,10.673,9.031,22.58,12.521,34.075c1.849,6.98,3.695,14.369,5.543,21.348
		c1.642,9.853,3.489,20.322,4.516,30.174c2.462,20.118,2.669,40.234,0.821,60.145c-0.616,11.29-3.284,21.963-5.132,32.637
		c-1.438,5.336-2.259,10.265-4.311,15.191c-0.616,4.104-2.669,6.157-2.873,10.263c-1.643,4.517-3.491,8.211-4.928,12.316
		c-1.231,1.849-0.821,3.491-1.642,4.723c-1.437,2.668-2.053,5.745-3.491,8.21c-3.488,9.647-7.593,19.091-12.314,27.301
		c-1.231,3.9-5.337,6.567-5.544,9.646c3.902,2.873,8.621,5.133,13.345,3.285c4.31-3.285,8.621-6.566,10.879-11.291
		c6.568-10.47,8.21-23.398,11.494-35.305c0.41-3.695,0.41-8.007,3.08-10.265c1.437-1.026,3.077,0.41,4.104,1.437
		c0.821,20.734-0.616,41.261,0.205,61.17c-0.205,21.556-0.821,41.673-0.411,62.198c-0.614,9.854,0,19.705-1.025,28.739
		c-20.527,0.819-40.233-0.412-60.76,1.026c-20.321,0.614-40.439-0.207-60.35,0.819c-4.311,0-9.032,1.436-11.906-0.819
		c-1.231-2.464,1.026-4.725,2.051-5.955c4.518-1.231,7.801-1.641,11.906-3.078c4.723-0.822,8.417-3.079,13.344-3.9
		c5.953-2.874,11.289-5.132,14.983-9.853c0.412-0.822,0.617-0.822,0.822-1.231c-1.231-1.849,0.821,0.409,1.027-0.821
		c2.053-3.491,0.82-7.184,0.204-10.47c-1.437-1.641-1.437-4.311-3.49-4.72c-3.694,1.024-6.979,3.693-10.263,4.926
		c-4.106,2.668-8.622,4.105-12.316,6.772c-4.516,1.233-6.979,3.9-11.291,4.517c-6.567,3.286-13.341,6.16-20.115,9.649
		c-9.033,2.257-16.833,5.131-25.659,7.183c-5.543,2.669-12.727,1.438-17.653,4.312C322.305,521.907,305.679,526.216,288.436,524.574
		"/>
	<path fill-rule="evenodd" clip-rule="evenodd" fill="#FFCB05" d="M301.368,522.316c-20.117-0.821-40.849-0.616-61.171-2.874
		c-4.105-0.206-7.8-1.847-11.084-2.259c-9.443-0.409-17.653-4.105-26.685-5.54c-3.49-2.259-8.211-1.849-10.675-3.901
		c-2.463-0.409-4.311-1.436-6.158-1.643c-4.72-2.053-8.416-3.693-12.932-4.927c-4.927-2.257-10.469-3.897-14.369-6.771
		c-4.926-0.412-7.39-3.902-11.084-5.134c-3.079-2.462-7.8-3.695-10.88-5.953c-2.668-1.436-4.721-3.078-7.595-4.104
		c-2.668-2.462-5.952-3.285-8.005-5.338c-2.669-0.821-3.49-2.256-5.542-3.489c-2.258-1.23-3.695-3.078-5.748-3.695
		c-3.9-3.488-7.39-5.54-11.085-8.826c-2.052-1.231-2.873-2.667-4.515-3.693c-2.258-2.669-4.517-3.697-5.953-5.543
		c-3.49-2.26-5.542-4.927-8.211-7.187c-2.668-2.257-4.926-4.514-7.39-6.979c-2.052-3.693-4.927-5.745-6.979-8.827
		c-2.668-3.078-5.748-5.54-6.363-9.44c3.899-2.874,9.853-3.491,14.78-6.157c8.21-2.053,15.189-5.133,22.374-7.186
		c8.826-3.695,18.884-5.748,27.3-8.826c4.106-1.438,8.417-1.645,11.29-3.901c8.623-1.437,16.627-5.748,24.838-6.979
		c2.668-1.847,5.542-1.23,8.827-1.847c2.257,0,4.105-0.819,5.747-0.617c0,1.026-1.026,1.848-1.23,2.876
		c-4.106,5.746-7.801,12.315-14.164,16.625c-3.695,2.055-8.416,2.876-11.905,4.929c-3.285-0.206-4.926,2.667-7.596,3.076
		c-4.105,2.876-8.416,5.955-11.496,9.855c-0.41,2.464-2.052,3.283-2.257,5.746c-1.642,4.106-1.231,9.031,0.411,12.934
		c1.643,3.283,3.49,5.54,5.542,8.416c5.953,6.567,12.521,11.7,17.653,17.446c2.053,1.644,3.695,2.67,5.749,4.105
		c2.052,2.258,5.542,2.874,7.389,5.544c2.874,0.819,4.105,2.872,6.363,4.104c3.079,2.258,5.542,3.283,8.416,5.132
		c3.079,1.025,5.337,2.874,7.801,3.899c4.104,2.464,8.416,2.874,12.521,5.338c4.311,1.231,7.184,1.437,10.674,3.488
		c7.389,0.822,12.726,3.082,19.09,3.901c8.416,3.078,16.421,2.668,24.838,4.927c20.937,3.285,41.054,2.464,61.375,0.204
		c7.184-0.204,12.933-2.669,19.706-2.874c6.158-2.463,12.521-1.436,18.063-4.515c11.907-1.848,22.375-6.569,33.049-9.443
		c2.875-2.052,6.568-2.052,9.237-4.104c4.105-1.027,6.363-2.67,9.443-3.901c3.079-1.436,5.132-2.873,8.211-3.899
		c2.052-1.846,4.926-2.669,6.568-4.517c1.641-0.614,2.462-1.436,3.899-0.41c4.311,2.874,6.773,6.774,10.06,10.47
		c-0.822,2.258-3.696,2.258-5.133,3.898c-3.694,1.233-5.748,3.695-9.238,4.722c-4.515,2.874-9.44,4.517-13.545,6.979
		c-4.518,1.233-7.801,3.9-12.112,4.722c-2.258,1.643-4.311,1.85-5.954,3.285c-2.873,1.437-5.542,2.051-8.21,3.284
		c-5.337,1.026-10.058,3.491-14.78,4.105c-17.038,5.952-34.075,7.183-51.934,10.674
		C307.116,521.495,304.446,521.907,301.368,522.316"/>
	<path fill-rule="evenodd" clip-rule="evenodd" fill="#FFCB05" d="M407.903,519.854c-1.438,0-3.079,0.205-4.927,0
		c7.595-1.438,14.779-4.517,22.374-6.159c2.463-2.258,6.98-2.874,9.237-5.134c4.104-2.874,7.596-5.95,9.853-9.646
		c2.258-6.158,0.82-12.726-1.642-17.448c-3.899-4.31-5.952-9.032-10.059-11.698c-3.694-3.286-6.772-6.57-10.674-9.034
		c-3.695-3.286-7.594-5.336-11.084-8.005c-5.542-2.67-10.264-6.365-16.423-8.213c-6.158-4.104-14.984-5.746-21.553-8.62
		c3.079-6.157,5.953-11.907,8.827-18.064c0.821-1.641,0.616-3.488,2.053-4.104c8.416,2.874,17.242,5.748,25.043,9.852
		c8.006,3.696,16.01,7.39,22.784,11.702c1.232,2.052,3.9,1.438,4.721,3.489c4.723,2.258,7.391,5.132,11.497,8.006
		c2.257,2.462,4.925,3.283,6.773,5.543c3.078,1.436,4.721,4.72,8.211,4.927c1.025-0.617,2.053-1.026,2.053-2.053
		c-2.67-5.338-5.748-10.265-8.212-15.191c-2.052-2.462-2.874-4.927-4.516-7.186c-2.259-3.281-3.079-6.155-5.337-9.237
		c-1.644-3.282-3.285-5.131-4.926-8.621c-1.437-1.846-1.848-3.488-3.079-5.132c-2.26-3.693-3.696-6.978-5.953-10.469
		c-1.232-1.231-1.848-3.284-2.464-4.308c-1.437-2.053-2.053-4.929-3.489-6.777c-1.437-3.078-3.489-6.771-3.899-9.646
		c4.516-2.257,8.62-4.107,13.546-5.954c2.26-2.053,4.723-2.463,6.569-3.9c2.874,0.821,2.259,4.722,3.695,6.159
		c1.231,2.464,2.053,3.898,2.668,6.157c2.669,6.774,6.775,11.701,9.648,17.449c2.258,2.669,3.489,5.336,5.748,8.005
		c1.642,1.848,2.668,3.283,4.104,5.336c2.053,1.233,2.668,3.286,4.722,4.517c1.437,1.849,2.874,2.67,4.516,4.311
		c3.695,1.848,5.132,4.517,8.416,6.159c3.49,2.258,8.21,3.077,12.317,3.077c4.514-0.615,6.362-2.872,9.441-4.515
		c1.026-1.643,2.258-2.465,3.284-3.284c1.438-2.259,2.874-4.312,4.105-6.569c2.464-3.899,3.9-8.005,5.541-12.314
		c2.26-8.622,4.723-18.065,5.954-26.479c0.411,20.116-0.205,40.643-0.41,60.965c0.616,20.937-0.206,41.464,0.205,61.579
		c-0.205,6.774-0.411,12.728-0.615,18.884c-19.706,0.412-40.234,0.617-60.145,0.617
		C446.493,520.264,427.198,519.236,407.903,519.854"/>
	<path fill-rule="evenodd" clip-rule="evenodd" fill="#647B98" d="M280.43,498.709c-9.852-1.026-20.732-0.82-29.969-3.282
		c-11.29-0.823-20.938-3.901-31.406-5.954c-4.105-1.436-7.185-2.053-11.085-3.282c-7.185-2.055-12.522-4.929-19.091-6.98
		c-2.667-2.052-6.568-2.669-8.415-4.722c-5.338-2.257-8.211-6.158-13.137-8.417c-1.848-2.053-3.695-3.079-5.749-4.924
		c-3.899-2.261-6.158-4.927-9.647-7.392c-6.774-6.364-14.369-12.11-18.68-20.115c-0.205-0.411,0-0.823,0-0.823
		c5.953,0.204,10.469-2.462,15.806-3.693c8.622-3.695,16.833-7.801,24.427-12.521c1.848-1.849,4.105-2.463,5.748-4.105
		c2.874-1.231,4.106-3.9,6.774-5.134c0.41-2.053,2.052-2.461,3.489-3.078c6.158-1.436,11.29-1.436,17.038-1.436
		c-1.026,5.335-5.131,9.238-6.774,14.574c-3.695,7.595-6.568,16.01-9.032,24.015c-1.437,8.622-3.284,19.092-0.205,26.48
		c18.475,5.132,36.333-4.105,50.907-10.672c4.721-2.053,8.826-4.517,12.727-6.981c2.258-1.848,5.337-2.258,7.184-4.311
		c5.337-3.078,8.827-7.39,13.138-11.495c3.9-4.72,9.648-8.827,13.548-13.341c2.053-1.026,2.464-4.927,5.337-4.723
		c6.979,1.027,12.932,3.08,18.474,4.723c-2.258,5.952-5.953,11.698-8.416,18.68c-3.901,9.236-6.98,19.088-8.827,29.354
		c-0.616,8.414-4.926,19.499,0.82,25.041c4.517-2.052,9.443-0.82,12.933-3.282c2.875-1.438,6.364-2.465,8.621-4.105
		c2.669-0.615,3.285-3.079,5.954-3.079c2.874-2.669,6.159-3.286,8.622-5.748c4.105-2.259,5.952-4.928,9.647-6.774
		c1.437-2.462,4.106-2.874,5.337-4.721c4.105-2.874,7.595-6.569,10.674-9.854c0.821-2.257,2.874-2.874,3.9-4.927
		c2.463-2.464,5.132-5.54,6.979-8.212c0.617-1.436,1.027-2.462,2.464-2.257c7.801,1.438,14.984,3.901,21.349,7.184
		c3.9,1.026,6.362,3.285,9.44,4.312c5.955,3.078,11.496,6.568,16.833,10.262c0.822,2.26-2.668,3.079-3.693,4.107
		c-3.286,1.024-4.722,2.872-7.596,3.695c-2.26,2.462-5.544,2.051-8.007,3.898c-5.542,1.438-9.852,3.9-14.368,5.543
		c-3.49,2.053-8.211,1.643-11.084,4.31c-5.338-0.204-9.443,2.26-13.754,3.285c-17.243,4.927-35.101,8.006-52.138,10.058
		C298.288,498.301,289.462,498.301,280.43,498.709"/>
	<path fill-rule="evenodd" clip-rule="evenodd" fill="#FFCB05" d="M297.673,488.858c-0.616-10.265,2.257-21.759,4.516-31.611
		c2.873-8.418,5.337-16.423,9.032-23.606c0.82-2.464,2.462-3.9,3.284-6.159c1.847-1.641,2.053-4.722,4.311-5.337
		c2.874,1.846,6.979,1.846,9.647,3.696c-3.694,8.005-9.442,15.394-8.621,25.658c0.821,1.643,2.053,2.669,3.49,2.874
		c5.748-1.026,11.084-3.695,14.368-6.774c3.284-1.644,5.953-4.31,8.006-7.186c3.079-2.872,4.515-6.772,6.774-9.852
		c1.642-3.49,3.285-6.159,5.132-9.03c1.231-3.491,1.847-5.75,3.489-9.034c6.363-18.885,7.184-39.207,6.159-58.091
		c-0.207-7.801-2.464-16.218-2.464-22.376c3.694-1.23,6.979-3.285,10.263-4.515c0.821-0.411,1.642-0.823,2.052-0.411
		c1.643,4.926,0.617,10.058,2.669,15.601c2.258,20.323,4.515,40.644,0.411,60.556c-2.258,13.958-8.827,23.605-14.368,34.28
		c-2.464,3.897-5.543,7.389-8.417,10.467c-2.052,3.08-4.721,5.134-6.774,8.006c-1.847,1.233-3.284,3.49-4.721,4.312
		c-3.284,3.079-6.774,5.131-9.647,8.005c-3.08,2.259-5.749,5.133-9.238,6.773c-2.257,2.055-4.721,2.463-6.569,4.516
		c-4.106,1.643-5.542,3.9-10.058,4.723C306.91,486.806,302.599,488.446,297.673,488.858"/>
	<path fill-rule="evenodd" clip-rule="evenodd" fill="#FFCB05" d="M197.501,464.431c-1.026-0.205-2.875,0.41-3.49-0.412
		c-2.258-17.653,6.568-35.304,13.137-50.29c2.875-3.284,4.106-8.62,7.39-10.673c4.927,0,9.647-0.412,13.753,1.026
		c-2.874,4.72-6.158,9.851-7.39,16.422c-1.642,4.515-2.257,9.852-0.41,14.163c0.41,1.23,0.821,2.053,2.052,2.258
		c8.417-0.205,17.448-2.67,24.222-5.748c5.748-3.489,11.494-5.953,16.011-10.673c5.542-3.49,11.085-9.443,15.19-13.96
		c2.463-4.104,5.337-6.774,7.39-10.879c3.079-3.079,4.311-7.184,6.569-10.879c1.847-2.26,1.642-4.722,3.694-6.774
		c4.926-0.207,10.674,1.026,14.369,1.438c-2.257,7.389-6.979,13.549-11.289,20.116c-2.464,2.874-4.106,5.745-6.569,8.619
		c-2.259,3.081-4.312,4.929-6.364,7.803c-2.258,1.437-2.874,3.693-4.927,4.925c-3.9,3.695-8.005,6.569-10.879,10.469
		c-2.259,1.849-4.106,3.901-6.159,5.748c-2.257,1.231-4.516,3.9-6.773,4.722c-1.848,2.667-5.132,2.464-6.979,4.722
		c-2.053,0.41-2.669,1.642-4.106,2.053c-2.257,2.053-5.747,2.463-7.799,4.31c-4.311,1.233-5.954,3.079-10.059,4.312
		c-2.669,2.052-5.542,2.462-8.826,4.104c-3.695,0.821-6.569,1.641-10.059,2.462C204.89,464.226,200.991,464.635,197.501,464.431"/>
	<path fill-rule="evenodd" clip-rule="evenodd" fill="#647B98" d="M327.232,448.625c-0.822-0.207-2.463,0.614-2.875-0.617
		c1.642-8.005,5.542-14.778,9.442-20.526c1.848,0.821,3.9,0.616,5.337,1.233c2.669,0.613,5.132,1.847,6.774,2.874
		c-2.464,4.515-4.927,7.798-8.621,10.877c-2.669,1.438-4.516,4.106-7.596,4.723C329.285,448.214,328.463,448.829,327.232,448.625"/>
	<path fill-rule="evenodd" clip-rule="evenodd" fill="#647B98" d="M453.473,444.725c-3.08-1.436-5.541-3.9-8.212-5.953
		c-2.052-2.052-5.336-2.874-6.978-4.721c-3.08-2.053-5.748-3.9-8.621-5.336c-2.464-2.053-5.748-2.67-7.801-4.518
		c-5.336-0.821-7.596-4.517-12.521-5.54c-5.543-3.286-12.112-5.135-17.245-7.597c-2.463-0.412-5.13-1.233-6.979-2.053
		c0.616-7.595,1.642-16.217,2.054-22.579c11.084,0.204,22.784-3.286,31.817-6.16c1.641,5.339,4.311,8.62,5.951,13.755
		c1.028,1.847,1.644,3.899,2.874,5.131c0.41,1.849,1.438,2.876,2.259,4.309c1.848,2.671,3.079,5.955,5.131,9.034
		c0.411,1.848,1.848,3.695,2.668,4.927c1.233,1.643,1.644,3.283,3.08,4.721c3.695,6.362,6.57,12.315,10.674,18.475
		C451.831,442.466,453.678,443.698,453.473,444.725"/>
	<path fill-rule="evenodd" clip-rule="evenodd" fill="#647B98" d="M228.291,431.589c-1.231-0.412-3.489,0.409-4.105-0.619
		c-0.206-8.825,4.105-18.062,8.211-24.015c8.826-3.492,21.348,0.615,31.201,1.027c1.848,0.409,2.257,1.845,3.9,1.641
		c-2.258,3.49-7.185,5.543-9.647,8.622c-3.49,1.025-4.516,3.693-7.596,4.515C243.687,426.454,236.502,430.15,228.291,431.589"/>
	<path fill-rule="evenodd" clip-rule="evenodd" fill="#FFCB05" d="M134.482,427.893c-0.615-0.411-2.463,0.41-2.667-0.616
		c0.41-5.132,2.463-8.417,5.542-10.88c5.131-5.542,13.548-8.212,19.912-11.086c9.032-1.025,14.369-8.209,18.679-14.367
		c2.463-3.695,4.927-7.184,6.979-10.467c2.874-4.927,5.132-9.443,8.006-14.165c3.285-8.21,6.569-16.216,9.032-24.428
		c0.205-1.231,0.615-2.67,1.438-2.67c5.336-0.613,10.468-2.257,15.189-0.819c-1.848,4.927-3.49,9.852-5.131,14.575
		c-2.463,6.772-5.338,12.933-7.801,18.677c-4.105,7.392-7.389,15.808-12.522,21.966c-0.205,1.438-1.437,2.053-1.847,3.079
		c-4.515,4.312-8.211,8.211-12.316,10.879c-3.695,3.695-8.826,5.543-12.521,8.826C154.805,420.912,145.567,425.841,134.482,427.893"
		/>
	<path fill-rule="evenodd" clip-rule="evenodd" fill="#FFCB05" d="M348.58,427.276c-3.49-1.848-7.8-3.079-11.29-4.312
		c-13.343-4.515-26.891-8.005-40.439-10.876c-0.615-1.644,1.438-2.261,1.438-3.491c1.848-1.438,2.258-3.9,4.311-5.747
		c0.822-1.847,2.463-3.08,2.874-4.518c1.847-2.052,2.874-4.309,4.311-6.157c10.264,1.231,19.09,3.49,29.148,5.748
		c3.285,1.643,7.391,2.464,10.675,3.695c3.284,0.616,6.979,1.025,9.032,2.667c-2.053,8.007-5.542,15.191-9.032,22.581
		C349.195,426.866,348.58,427.276,348.58,427.276"/>
	<path fill-rule="evenodd" clip-rule="evenodd" fill="#FFCB05" d="M483.648,418.657c-3.696-1.438-5.954-5.339-9.032-7.392
		c-0.41-1.23-2.259-2.052-1.848-3.49c2.258-2.667,3.9-6.157,5.337-8.827c6.157-13.341,11.084-27.915,15.806-41.876
		c1.025-1.436,0.616-3.693,1.642-4.515c1.643-5.952,4.106-12.11,5.338-17.858c1.231-1.643,0.821-3.08,1.642-5.335
		c5.337-19.502,6.773-37.566,6.979-57.067c-0.206-9.853-1.231-18.885-2.668-27.917c-1.027-2.874-0.205-4.927-1.233-7.185
		c-2.257-13.342-5.746-23.811-9.44-36.127c-2.053-5.336-4.105-10.264-5.748-15.19c-2.053-3.489-3.285-7.594-5.337-10.468
		c-2.259-6.364-5.748-11.701-8.827-16.832c-1.642-2.464-2.463-4.926-4.105-6.569c-1.643-1.847-3.284-3.694-4.516-5.543
		c-4.311-4.926-9.647-8.415-14.164-11.7c-2.463-1.23-4.722-1.23-6.568-2.463c-7.39-0.821-14.78,2.259-18.27,6.98
		c-4.721,4.72-4.31,12.726-9.443,16.216c-2.666,2.463-5.54,5.131-8.826,6.773c-1.641,1.848-3.694,2.874-5.748,4.516
		c-2.873,0.617-3.693,3.695-6.567,3.285c1.026-8.005,1.849-15.601,3.49-23.607c0.41-3.284,1.642-6.568,2.054-9.442
		c1.023-3.284,0.821-5.542,2.05-8.622c3.901-17.448,8.212-33.869,13.548-50.907c1.232-3.079,1.644-5.542,3.082-8.621
		c1.846-4.927,3.077-10.469,5.336-14.985c2.668,0.821,3.9,3.9,6.157,4.721c0.616,2.463,3.489,2.874,3.9,4.926
		c2.669,1.643,4.928,5.337,6.568,6.979c1.025,2.052,2.054,3.49,3.696,4.721c2.257,3.695,5.335,6.363,7.595,10.058
		c2.667,2.875,4.104,5.953,7.184,9.032c1.026,2.053,2.259,3.284,3.489,5.337c1.643,1.231,1.849,2.874,3.079,4.106
		c2.668,3.285,4.722,6.363,6.774,9.647c1.848,3.901,4.311,7.391,6.158,11.086c1.642,1.436,1.848,3.488,3.078,4.516
		c2.053,3.694,4.106,7.184,6.158,10.468c5.543,10.88,10.675,22.17,15.191,33.871c2.257,5.953,4.104,13.136,5.952,18.474
		c1.025,3.284,1.847,5.953,2.463,9.442c4.926,17.243,6.979,35.716,8.622,52.959c1.231,21.143,0.204,41.67-2.26,61.375
		c-3.283,17.653-7.388,34.28-13.547,50.703c-6.157,15.394-11.905,29.969-18.885,44.543
		C487.547,413.933,486.11,417.219,483.648,418.657"/>
	<path fill-rule="evenodd" clip-rule="evenodd" fill="#FFCB05" d="M272.014,405.518c-18.064-4.515-37.154-5.952-55.628-7.8
		c-8.006-0.412-14.779,1.026-21.963,0.205c0.615-1.025,1.231-2.258,2.053-3.079c3.079-4.518,5.748-9.648,8.416-14.367
		c19.912-4.312,41.464,1.436,61.992,2.05c6.774,0.205,11.291,3.081,17.448,2.877c0.821,0.409,0.821,0.613,0.821,0.613
		c-0.411,3.284-2.874,4.31-4.105,7.801C277.761,397.718,276.119,402.439,272.014,405.518"/>
	<path fill-rule="evenodd" clip-rule="evenodd" fill="#647B98" d="M469.483,404.082c-4.31-3.285-6.157-8.417-9.031-12.317
		c-1.848-2.876-3.079-6.569-5.133-9.033c-1.642-5.95-6.568-11.698-6.772-17.651c2.053-1.232,3.078-2.874,4.926-3.285
		c4.721-4.518,9.647-8.416,13.958-12.932c0.617-1.643,2.67-2.874,3.49-4.311c4.722-5.543,8.416-11.7,12.521-17.241
		c5.337-9.444,10.469-20.118,14.164-31.204c1.026-4.104,3.079-9.032,0.411-11.905c-8.417-1.026-15.191,3.284-23.197,4.516
		c-6.157,3.079-12.726,4.516-18.68,7.185c-3.899,1.231-6.362,3.285-9.852,4.722c-2.258,2.053-5.338,2.668-7.801,4.105
		c-3.49,1.231-4.927,3.695-7.801,5.337c-0.821,0.41-1.847,1.231-2.053,0.615c-0.615-2.874-1.231-5.953-2.052-8.005
		c0.205-3.49-1.848-6.774-1.232-9.647c4.104-4.517,7.801-8.623,11.084-12.933c1.027-1.847,2.875-3.078,3.696-4.721
		c1.848-1.847,3.284-4.517,4.721-6.363c2.259-5.336,5.952-9.032,8.005-13.958c2.67-3.285,3.9-6.363,5.748-9.442
		c4.927-11.906,10.264-23.4,12.316-35.717c1.231-3.899,1.643-6.979,2.874-10.264c0.616-5.131,4.516-10.058,1.025-13.753
		c-12.932-4.516-26.479-1.026-39.001,1.643c-4.516,3.079-9.442,4.105-13.342,6.979c-2.054,1.027-3.489,2.053-4.927,3.695
		c-0.205-2.257-0.615-6.364,0.205-8.416c2.668-1.232,3.694-3.49,5.953-3.901c1.642-2.873,4.721-3.489,6.157-5.542
		c2.874-2.052,5.132-3.899,7.596-6.158c1.026-2.053,2.669-2.462,3.695-4.721c1.848-1.848,2.668-3.284,4.104-4.721
		c4.107-6.773,9.032-11.7,11.087-19.911c0.409-0.616,1.025-1.642,1.642-0.821c3.284,3.08,6.363,6.159,9.237,10.06
		c2.257,2.462,3.283,5.131,4.926,7.595c2.464,4.31,4.722,7.389,6.569,11.495c1.642,3.694,3.489,7.183,5.337,10.879
		c1.23,2.462,1.437,5.132,2.873,7.185c2.464,5.953,4.723,12.931,6.775,18.885c1.641,3.9,2.257,7.8,3.283,11.7
		c4.722,17.653,7.389,36.333,7.595,54.807c-0.616,19.09-2.873,37.563-8.212,55.833c-1.229,6.362-3.488,11.7-5.336,17.039
		c-1.642,5.131-3.49,10.675-5.542,15.804c0,2.054-1.232,4.108-1.437,5.75c-1.848,4.31-3.284,8.416-4.927,12.727
		C475.848,390.738,474,398.332,469.483,404.082"/>
	<path fill-rule="evenodd" clip-rule="evenodd" fill="#647B98" d="M359.459,399.358c-0.411,0-1.232,0-1.642-0.41
		c0-1.847,2.053-1.847,2.668-3.078C360.896,396.486,360.075,398.744,359.459,399.358"/>
	<path fill-rule="evenodd" clip-rule="evenodd" fill="#FFCB05" d="M352.48,396.897c-2.259,0-4.721-1.438-6.569-1.232
		c-2.258-1.026-3.49-2.465-5.748-2.667c2.258-2.672,5.337-4.725,7.801-7.595c3.899-3.082,9.442-2.261,13.752-1.644
		c1.643,4.514-3.284,6.566-4.311,8.826C355.148,393.817,355.148,397.102,352.48,396.897"/>
	<path fill-rule="evenodd" clip-rule="evenodd" fill="#FFCB05" d="M118.061,390.122c-2.258,0.204-0.616-3.079-1.026-4.515
		c0.821-8.826,5.131-16.216,8.416-23.606c1.643-3.078,3.284-5.338,4.927-8.212c4.104-4.517,7.595-8.415,11.701-11.084
		c4.516-2.464,8.005-6.362,12.931-7.801c2.259-2.052,4.517-2.874,6.979-4.312c6.364-0.821,10.88-3.693,17.243-4.926
		c2.669-1.231,5.543-1.231,7.8-2.258c5.132-1.026,11.085-2.463,15.807-3.284c20.938-2.668,41.259,0.205,61.787,0.41
		c16.011,0.411,31.611,1.232,45.98-0.41c-1.436,4.723-2.052,9.646-4.105,13.549c-19.501,2.874-40.233,3.695-59.734,2.053
		c-17.448-1.438-34.28-4.518-50.496-0.822c-2.875,1.026-5.543,0.205-8.006,1.438c-1.847,0.205-3.284,1.026-4.31,1.23
		c-4.927,0.41-8.211,3.284-12.111,4.515c-5.337,2.67-10.469,6.158-15.396,9.444c-4.721,4.312-9.031,8.21-11.906,13.548
		c-4.721,4.926-5.337,13.137-8.005,19.09c-4.311,2.259-9.647,2.463-13.752,4.719C121.14,389.712,119.498,389.712,118.061,390.122"/>
	<path fill-rule="evenodd" clip-rule="evenodd" fill="#647B98" d="M335.031,391.56c-3.489-0.412-6.362-1.025-10.058-2.053
		c-4.105-1.438-8.826-0.618-11.7-2.464c-0.206-3.079,2.463-4.104,2.258-6.364c9.647-0.202,19.706,0.617,28.943,2.26
		c-0.615,1.231-2.668,1.231-3.284,3.078C338.932,387.66,337.084,390.326,335.031,391.56"/>
	<path fill-rule="evenodd" clip-rule="evenodd" fill="#647B98" d="M142.693,382.117c0-4.515,1.437-9.443,4.106-12.726
		c1.847-2.67,3.284-5.544,5.747-7.597c2.259-2.668,5.132-4.311,6.775-6.569c5.747-2.872,9.442-6.158,14.778-8.62
		c1.848-1.644,4.927-1.438,6.159-3.284c5.132-0.821,10.058-2.055,14.368-3.08c0.616,1.847-0.821,3.08-0.41,4.517
		c-0.617,2.463-2.054,4.722-2.669,6.979c-3.9,7.801-6.157,16.832-12.521,22.375c-5.542,0-10.674,1.438-15.601,1.848
		c-2.669,0.822-4.926,1.846-7.595,2.669C150.699,379.243,146.799,381.705,142.693,382.117"/>
	<path fill-rule="evenodd" clip-rule="evenodd" fill="#647B98" d="M287.615,381.502c-1.437-0.206-1.848-1.438-3.08-1.025
		c-2.258-1.027-4.926-1.233-6.774-1.646c3.901-0.819,7.801-1.435,11.702-1.229C289.667,378.628,288.846,380.886,287.615,381.502"/>
	<path fill-rule="evenodd" clip-rule="evenodd" fill="#FFCB05" d="M394.56,381.502c-2.257-0.206-5.131,0.615-6.979-0.616
		c-0.41-4.722-1.026-9.239-0.41-13.549c11.699-0.409,23.812-2.668,33.869-7.389c4.928-2.671,10.674-4.723,15.189-8.212
		c1.438-1.641,2.875-2.464,4.517-3.49c6.568-5.746,12.11-11.903,16.627-18.268c1.642-1.848,2.258-4.312,3.49-5.953
		c0.82-2.052,1.436-4.104,2.463-5.953c-0.206-2.257,0-5.542-1.438-6.362c-10.469,0.205-18.884,5.132-26.069,9.646
		c-1.437,0.821-2.053,2.669-3.695,2.258c-0.82-2.874-2.873-5.542-2.052-8.006c4.516-2.872,8.211-5.541,12.727-8.005
		c4.312-2.053,8.005-4.311,12.316-5.748c3.695-1.026,6.363-3.079,9.854-4.105c7.595-3.49,16.422-5.336,24.016-8.006
		c2.053-0.616,3.695-0.821,4.516-0.616c0.617,4.312-1.846,7.8-2.257,11.496c-2.054,4.105-3.284,8.211-5.544,12.111
		c-4.309,8.825-9.441,16.83-14.573,24.221c-3.695,3.695-5.952,7.392-9.237,10.675c-1.025,2.053-2.668,2.053-3.695,3.9
		c-1.641,0.821-3.078,2.257-4.311,3.487c-3.9,3.903-9.236,6.569-13.547,9.855c-2.053,1.231-4.927,2.462-6.774,3.898
		c-4.106,1.026-7.185,3.285-10.879,4.722c-3.08,0-4.312,2.055-6.157,2.464c-1.849,1.231-3.696,1.026-5.339,1.846
		c-4.927,1.233-8.005,1.645-12.932,3.081C396.612,380.679,395.998,381.502,394.56,381.502"/>
	<path fill-rule="evenodd" clip-rule="evenodd" fill="#FFCB05" d="M266.062,377.396c-9.238-1.438-18.68-2.464-27.917-3.08
		c3.078-2.053,6.773-2.462,9.237-4.311c2.053-0.411,3.284-0.614,5.337-1.232c4.517-1.229,7.8-3.283,12.727-3.283
		c19.501-5.132,38.591-5.953,57.476-3.695c13.958,2.053,27.3,1.438,40.233,4.107c-0.205,4.514,0.206,8.824-0.82,12.929
		c-19.091,0.412-38.796-3.077-58.092-4.924c-8.006-1.233-14.985-1.438-22.375-1.027c-4.106,0.205-7.8,1.847-12.111,2.258
		C268.114,375.55,267.498,377.19,266.062,377.396"/>
	<path fill-rule="evenodd" clip-rule="evenodd" fill="#647B98" d="M229.112,373.907c-6.979-0.208-13.548-0.617-20.527-0.412
		c-0.412-1.641,1.641-3.079,1.437-4.927c1.437-1.641,1.641-3.488,2.463-4.721c1.027-4.105,2.668-7.801,3.9-11.085
		c2.259-4.927,3.08-10.263,5.543-14.162c20.937,1.23,41.464,3.899,61.786,2.052c7.39,0,14.369-2.258,20.938-1.438
		c-0.411,2.874-2.463,5.339-2.874,8.622c-1.848,2.67-1.848,6.16-4.311,7.801c-14.984,1.026-28.327,3.078-41.875,6.979
		c-7.391,2.464-14.985,4.517-21.554,8.209C231.987,371.237,230.96,372.88,229.112,373.907"/>
	<path fill-rule="evenodd" clip-rule="evenodd" fill="#FFCB05" d="M389.224,362.206c-0.822,0-1.231,0-2.258,0
		c-0.821-3.695-2.67-8.827,0.615-11.7c1.231-2.464,3.286-3.285,4.106-5.338c3.49-3.489,6.568-8.62,10.675-10.469
		c1.024,2.874,1.642,6.363,2.463,9.854c-2.053,1.026-2.669,3.283-4.517,4.311c-2.67,3.284-5.542,6.773-7.801,9.852
		C391.276,360.154,390.455,361.385,389.224,362.206"/>
	<path fill-rule="evenodd" clip-rule="evenodd" fill="#647B98" d="M361.923,361.589c-11.085-3.487-24.838-1.641-36.128-4.312
		c2.053-6.155,3.079-12.929,6.568-18.475c8.827-0.614,16.832-2.667,24.428-4.308c1.231-0.207,2.257-0.821,3.079-0.412
		c0.821,3.286,1.231,6.364,1.643,9.443C362.333,349.685,363.975,356.663,361.923,361.589"/>
	<path fill-rule="evenodd" clip-rule="evenodd" fill="#647B98" d="M397.638,361.385c-0.409,0-1.23,0-1.23-0.617
		c1.026-1.23,1.642-2.874,3.08-4.104c2.053-2.874,5.13-4.927,6.568-7.391c1.437,3.081,2.463,6.571,2.874,9.442
		C405.234,360.768,400.924,359.742,397.638,361.385"/>
	<path fill-rule="evenodd" clip-rule="evenodd" fill="#FFCB05" d="M320.047,357.277c-5.337-0.205-11.906-0.819-16.422-1.846
		c3.285-7.8,5.543-15.601,8.622-23.401c1.026-3.489,1.847-6.979,2.668-10.057c4.721-17.448,7.185-35.923,10.264-53.372
		c3.901-18.474,5.748-36.743,9.853-54.191c0.822-4.516,2.053-9.032,3.08-13.343c1.026-5.748,2.669-10.264,4.311-15.806
		c1.643-4.516,2.875-9.032,4.312-13.138c3.283-9.031,7.595-18.268,11.905-26.89c2.258-4.516,4.926-8.211,7.389-12.522
		c4.927-6.773,9.854-13.137,16.217-18.474c0.82-1.642,2.257-1.642,2.873-3.079c4.928-3.49,9.854-8.006,14.985-10.879
		c2.259-1.643,6.157-3.49,8.211-4.106c-1.643,6.158-3.284,13.343-5.132,19.707c-0.616,2.668-0.205,5.337-2.669,6.364
		c-4.72,2.258-7.594,5.336-11.494,8.005c-3.286,2.669-6.158,6.159-9.238,9.033c-5.132,5.131-9.442,10.263-12.521,15.805
		c-5.133,8.211-9.443,17.038-11.702,26.48c-1.436,2.053-1.026,4.721-2.052,6.57c-4.516,18.062-5.952,36.126-9.853,54.19
		c-1.026,14.985-4.311,28.943-5.748,43.517c-3.695,15.601-4.721,30.585-9.442,45.981c0.206,1.436-0.615,2.669-0.615,3.283
		c-1.438,3.079-2.053,6.157-3.079,9.031C322.51,348.658,322.305,353.173,320.047,357.277"/>
	<path fill-rule="evenodd" clip-rule="evenodd" fill="#FFCB05" d="M413.445,357.484c-2.053-6.158-3.694-12.727-5.542-19.911
		c-0.615-2.257-0.822-3.899-1.438-6.158c-1.025-7.185-3.08-13.754-3.08-19.91c4.312-3.49,9.034-7.186,13.343-10.469
		c1.233-1.232,2.463-2.464,3.695-2.669c1.643,4.722,2.463,9.442,3.901,14.164c1.231,5.952,3.078,11.29,4.516,16.626
		c2.463,5.543,4.311,10.468,5.953,16.012c-0.206,3.695-3.901,3.49-5.953,5.542C423.504,353.173,418.782,355.637,413.445,357.484"/>
	<path fill-rule="evenodd" clip-rule="evenodd" fill="#647B98" d="M385.117,346.605c-1.641-4.31-0.409-8.211-1.641-12.522
		c-0.411-3.693-2.464-7.391-1.437-9.853c3.694-1.026,6.158-3.49,9.443-4.927c1.847-1.643,4.72-2.462,6.363-4.311
		c0.614,0,1.231,0,1.231,0c0,4.721,2.668,9.648,1.026,14.371c-2.465,3.076-6.159,5.335-7.596,7.798
		c-1.437,1.641-2.462,3.695-4.105,4.926C387.171,343.731,386.35,345.989,385.117,346.605"/>
	<path fill-rule="evenodd" clip-rule="evenodd" fill="#647B98" d="M438.283,342.705c-0.821-3.491-2.669-6.979-4.106-11.086
		c0-1.229-1.025-2.667-0.204-3.078c2.667-1.642,4.927-3.899,7.39-4.721c3.898-3.08,8.416-4.927,13.343-6.159
		c1.231,0,2.258-0.615,3.284-0.615c-0.409,3.9-2.67,7.185-4.517,10.266c-2.258,2.872-4.516,5.541-6.362,8.209
		c-1.027,1.437-2.67,1.642-3.285,3.08C441.979,340.241,440.131,342.912,438.283,342.705"/>
	<path fill-rule="evenodd" clip-rule="evenodd" fill="#FFCB05" d="M335.237,333.878c-0.411-0.204-1.643,0.205-2.053-0.616
		c1.437-3.49,1.437-7.389,2.875-11.084c3.079-1.026,7.389,0.205,10.058-1.848c6.568-1.231,12.11-3.694,17.653-5.951
		c2.054-0.823,3.491-1.643,5.542-2.464c5.543-3.284,11.084-5.954,16.216-9.237c2.874-1.232,4.311-3.696,6.979-4.517
		c8.826-6.773,17.448-14.163,24.839-22.99c3.898-3.284,5.541-8.005,8.415-11.699c2.053-3.901,4.517-7.596,6.363-11.496
		c2.874-5.953,6.159-11.496,7.597-18.27c1.437-4.31,3.078-8.621,1.847-12.521c-1.643-3.079-5.748-2.259-8.416-2.874
		c-5.542,1.231-11.907,0.82-15.396,4.311c-1.848-5.132-1.027-12.521-0.41-18.269c1.643-1.027,2.257-2.464,4.104-3.285
		c1.644-2.053,5.133-2.668,6.979-4.721c8.621-3.285,16.628-7.185,26.275-6.98c4.516-2.052,9.647-1.436,14.983-0.615
		c1.232,2.874-0.615,5.953-0.615,7.8c-2.463,9.443-4.104,18.679-7.39,27.71c-1.848,2.054-1.438,4.722-2.669,6.98
		c-5.952,14.574-13.343,26.274-21.348,38.795c-1.848,1.643-2.258,3.901-4.105,4.721c-0.615,2.053-2.052,3.08-3.284,4.517
		c-4.517,5.543-10.059,11.29-15.189,16.216c-3.695,3.489-7.39,5.748-10.673,8.827c-3.491,2.257-6.365,4.926-10.06,6.979
		c-2.873,2.257-5.748,3.08-8.622,5.131c-7.594,4.105-16.216,8.418-24.837,11.086c-6.364,2.874-12.932,3.693-19.295,5.337
		C339.137,332.853,336.879,333.469,335.237,333.878"/>
	<path fill-rule="evenodd" clip-rule="evenodd" fill="#647B98" d="M281.046,316.842c-17.653-0.206-35.307-2.463-52.96-3.079
		c-0.411-1.848,1.026-2.874,1.026-4.927c2.463-6.98,2.668-15.191,3.695-21.555c8.005,6.98,19.911,9.033,30.379,7.39
		c6.569-1.847,12.316-3.694,17.653-6.158c2.668-2.052,5.338-2.462,6.979-4.721c4.516-2.874,7.391-7.389,10.469-11.084
		c3.284-4.516,4.722-9.443,6.774-14.985c2.258-10.058,1.438-22.169-5.542-28.533c-1.232-0.616-1.643-0.821-2.463-2.053
		c10.264-1.231,20.527-2.463,30.997-5.748c-0.821,11.29-3.695,22.99-5.132,33.459c-3.285,18.68-5.747,36.538-9.647,54.603
		c-1.232,2.258,0,4.515-1.848,5.541C300.957,316.225,291.104,316.842,281.046,316.842"/>
	<path fill-rule="evenodd" clip-rule="evenodd" fill="#FFCB05" d="M210.227,314.582c-1.847-0.615,0-2.872-0.41-4.104
		c3.901-9.442,5.542-20.322,6.979-29.97c1.642-5.748,1.232-11.289,2.669-16.421c0.41,7.595,6.568,12.316,7.799,19.295
		c0.616,7.39-0.615,14.574-2.052,21.758c-1.026,2.669-0.616,5.954-2.873,8.006C218.233,314.582,213.922,314.171,210.227,314.582"/>
	<path fill-rule="evenodd" clip-rule="evenodd" fill="#647B98" d="M337.905,317.457c-1.847-3.694,1.232-9.854,1.437-14.164
		c1.027-2.463,0-4.722,1.438-6.568c1.642-13.958,4.311-27.917,6.363-41.26c1.232-13.137,3.284-26.069,5.953-38.796
		c5.337-1.026,10.879-2.463,16.421-4.105c2.669-2.053,6.158-2.258,9.442-3.284c2.258-1.232,4.517-2.669,7.185-2.875
		c1.436-0.41,2.667-2.052,3.9-1.232c-0.617,4.106,0,8.828-0.412,12.933c-5.337,3.284-9.647,8.827-13.547,13.548
		c-0.616,2.258-2.463,3.489-2.874,5.132c-2.874,3.284-4.105,7.389-6.568,11.085c-8.005,16.832-9.648,36.333-9.648,54.191
		c0.206,3.284,1.437,6.569,1.026,9.648C351.042,314.171,344.885,316.02,337.905,317.457"/>
	<path fill-rule="evenodd" clip-rule="evenodd" fill="#FFCB05" d="M362.538,309.452c-2.668-16.011-0.615-32.844,4.312-49.471
		c0.82-2.668,1.847-4.516,3.078-7.39c1.232-3.08,2.874-4.926,4.105-8.005c1.848-2.259,2.463-5.133,4.516-7.391
		c0.617-2.052,2.258-3.283,3.285-4.925c2.874-3.49,5.337-5.337,7.594-8.211c0.205,5.748,2.464,14.574-1.231,19.705
		c-2.053,1.437-2.259,3.08-3.284,4.106c-1.437,2.668-2.053,4.105-3.49,6.568c-2.874,5.953-5.132,12.522-6.568,19.09
		c-1.848,10.264,0.41,21.964-1.643,30.791c-2.463,1.437-4.722,2.667-7.185,3.695C365.001,308.836,363.77,309.041,362.538,309.452"/>
	<path fill-rule="evenodd" clip-rule="evenodd" fill="#647B98" d="M378.754,300.83c-2.053-8.211-0.821-18.679,1.026-27.507
		c0.616-4.104,1.642-7.184,3.284-10.673c2.257-5.542,4.927-10.058,7.39-14.574c0,14.163,1.848,29.969,1.027,44.133
		c-3.49,2.668-6.98,4.925-10.059,7.184C380.191,300.009,379.575,300.625,378.754,300.83"/>
	<path fill-rule="evenodd" clip-rule="evenodd" fill="#FFCB05" d="M258.672,290.36c-5.748,0.206-10.88-0.82-16.628-2.873
		c-3.694-2.257-6.773-4.516-9.647-7.39c-2.052-2.667-3.284-4.927-4.926-7.184c-2.669-4.516-2.875-10.058-4.312-14.779
		c-0.615-4.927-0.41-10.263,0.411-14.37c1.437-5.952,4.311-11.084,7.391-14.984c3.489-3.695,6.979-6.158,10.468-8.622
		c9.853-5.542,21.964-8.826,33.665-10.469c6.364-2.668,14.164-1.436,20.938-4.105c12.933-2.463,26.275-3.079,37.564-8.005
		c0.41,1.231-0.411,3.079-0.616,4.105c-1.847,5.337-1.026,10.88-3.899,14.985c-3.696,1.026-7.185,1.437-10.059,3.079
		c-6.159,1.438-12.111,0.616-18.064,1.848c-18.269,1.642-36.743,1.026-54.808,7.185c-4.311,2.668-8.416,5.952-11.084,10.059
		c-1.026,1.641-1.232,3.695-2.463,5.131c-1.642,4.927-1.642,9.853-0.411,14.78c1.848,5.337,4.927,8.211,8.622,12.315
		c6.979,5.132,16.422,6.774,24.838,4.517c2.258-1.438,4.311-2.463,5.953-3.49c3.079-2.053,6.569-4.515,8.21-7.39
		c3.695-6.568,6.365-14.369,4.722-22.168c-1.847-6.159-4.722-11.085-9.648-13.959c6.98-1.026,15.191-2.463,20.938,2.258
		c1.437,1.847,2.668,3.284,3.9,5.131c4.105,9.853,1.232,22.169-3.284,31.201c-1.027,1.437-2.052,3.079-3.284,4.311
		c-2.258,4.106-6.568,7.8-10.058,10.469C275.298,285.845,267.703,288.924,258.672,290.36"/>
	<path fill-rule="evenodd" clip-rule="evenodd" fill="#FFCB05" d="M397.024,287.693c-0.822-14.574-1.848-30.176-1.438-44.955
		c-0.821-13.753-1.847-28.943,0.411-41.054c1.231-0.821,2.669-0.821,3.694-2.053c4.926-1.231,8.007-4.721,12.729-5.337
		c-0.617,19.296-1.027,38.386,0.409,58.091c0,7.185,3.079,14.575,0.205,20.117c-1.642,1.642-2.669,3.284-4.516,4.721
		c-1.642,2.053-3.284,3.284-5.133,5.337c-1.846,1.026-2.667,3.284-4.719,3.695C397.845,286.667,398.05,288.103,397.024,287.693"/>
	<path fill-rule="evenodd" clip-rule="evenodd" fill="#E38C44" d="M258.877,271.887c-1.231,0-2.874,0.616-3.901-0.411
		c1.232-1.642,3.901-1.848,4.516-4.515c3.489-4.723,0.411-12.933,4.516-16.012c3.9-0.205,8.622-1.026,11.29,2.052
		c1.642,1.848,2.462,4.516,1.642,7.186c-2.463,4.104-5.748,6.157-8.826,8.621C264.419,269.834,262.366,271.476,258.877,271.887"/>
	<path fill-rule="evenodd" clip-rule="evenodd" fill="#E38C44" d="M251.898,268.602c-3.285-0.205-6.98-0.205-9.649-2.053
		c5.748-0.821,10.469-2.462,14.574-6.568c0.412-0.617,0.412-1.026,0.822-1.437c0.41,2.054-0.411,5.543-2.053,7.391
		C253.95,266.344,253.335,268.192,251.898,268.602"/>
	<path fill-rule="evenodd" clip-rule="evenodd" fill="#E38C44" d="M245.124,261.828c-3.08,0.206-5.542-1.641-7.39-3.899
		c-3.079-3.285-1.438-6.979-1.642-10.879c0.821-2.463,1.847-3.489,3.079-5.953c1.642-1.232,1.848-2.874,3.9-4.516
		c0.821,4.516,1.231,10.264,5.131,12.522c2.669,1.642,4.722,3.079,7.801,4.31C254.361,258.339,250.05,260.392,245.124,261.828"/>
	<path fill-rule="evenodd" clip-rule="evenodd" fill="#647B98" d="M418.576,264.087c-1.23-11.701-2.051-24.223-1.641-35.717
		c5.338-4.106,13.342-4.927,20.115-5.132c-0.204,7.595-3.899,14.574-6.773,21.758c-2.874,5.542-5.542,10.469-8.416,15.396
		C420.219,261.418,420.424,263.882,418.576,264.087"/>
	<path fill-rule="evenodd" clip-rule="evenodd" fill="#E38C44" d="M279.609,251.566c-1.643-2.054-3.49-3.695-6.569-4.312
		c-2.462-0.616-4.721,0.206-6.569-1.026c1.438-1.642,5.132-1.848,7.185-3.49c2.258-0.205,4.721-1.437,6.157,0.411
		C280.635,246.023,280.635,249.717,279.609,251.566"/>
	<path fill-rule="evenodd" clip-rule="evenodd" fill="#E38C44" d="M255.387,248.281c-1.848-0.205-2.258-1.437-3.695-1.847
		c-3.079-3.284-4.516-8.622-2.874-12.728c1.436-1.847,3.489-1.436,5.131-2.052c-0.411,4.926-1.231,10.263,1.026,14.985
		C255.798,247.049,256.208,248.691,255.387,248.281"/>
	<path fill-rule="evenodd" clip-rule="evenodd" fill="#E38C44" d="M261.134,244.996c-0.821-0.821-2.462,0-2.875-1.232
		c-0.614-3.9-1.846-8.21,0.822-10.879c2.874-2.052,5.747-5.337,10.059-3.078c2.463,2.258,5.746,2.873,7.39,5.542
		c0.41,0.821,1.642,1.641,1.23,2.668C271.604,238.222,265.24,241.301,261.134,244.996"/>
	<path fill-rule="evenodd" clip-rule="evenodd" fill="#FFCB05" d="M356.791,211.538c-0.822-0.206-2.259,0.821-2.874-0.411
		c0.821-6.157,1.026-13.137,3.9-17.447c2.668-0.411,4.311-1.231,6.569-1.848c4.721-1.847,9.236-3.284,13.137-5.542
		c8.416-2.873,15.6-6.979,22.375-10.878c2.257-1.643,4.926-2.463,7.183-4.516c3.284-1.438,5.132-4.106,8.212-5.748
		c3.078-3.079,7.39-6.158,10.264-9.032c3.284-1.847,4.516-5.747,5.542-8.827c-0.821-3.694,2.053-5.952,4.516-7.8
		c3.285-3.284,8.417-3.078,12.933-2.052c1.846,1.026,3.489,0.411,4.31,2.052c-1.231,4.721-3.078,9.032-5.131,12.727
		c-1.027,1.438-1.848,2.258-2.258,3.695c-1.849,3.079-3.694,5.542-5.543,8.21c-3.49,4.722-6.979,8.622-11.701,11.906
		c-3.898,2.874-6.773,5.542-10.058,7.595c-1.027,2.257-3.9,2.053-4.721,3.9c-5.132,2.669-9.647,5.953-14.986,7.595
		c-2.257,2.054-5.54,2.464-8.209,3.9c-2.464,1.642-4.722,2.668-8.005,3.695c-4.516,2.053-7.801,3.079-12.728,4.516
		C365.824,209.895,360.075,208.869,356.791,211.538"/>
	<path fill-rule="evenodd" clip-rule="evenodd" fill="#647B98" d="M359.253,188.342c-0.821-2.259,1.232-5.337,1.438-8.211
		c5.953-15.807,12.727-27.711,23.811-39.207c2.874-3.079,5.131-4.721,7.594-7.184c2.875-1.232,5.749-4.927,8.211-5.132
		c-6.364,15.19-0.616,38.385-12.932,48.444C377.729,181.157,369.517,185.468,359.253,188.342"/>
	<rect x="555.695" y="550.643" fill-rule="evenodd" clip-rule="evenodd" fill="#FFCB05" width="10.879" height="10.882"/>
	
		<rect x="555.695" y="550.643" fill="none" stroke="#000000" stroke-width="5.7476" stroke-linecap="round" stroke-miterlimit="2.6131" width="10.879" height="10.882"/>
	<rect x="515.668" y="552.287" fill-rule="evenodd" clip-rule="evenodd" fill="#FFCB05" width="10.879" height="10.878"/>
	
		<rect x="515.668" y="552.287" fill="none" stroke="#000000" stroke-width="5.7476" stroke-linecap="round" stroke-miterlimit="2.6131" width="10.879" height="10.878"/>
	<rect x="475.64" y="552.287" fill-rule="evenodd" clip-rule="evenodd" fill="#FFCB05" width="10.88" height="10.878"/>
	
		<rect x="475.64" y="552.287" fill="none" stroke="#000000" stroke-width="5.7476" stroke-linecap="round" stroke-miterlimit="2.6131" width="10.88" height="10.878"/>
	<rect x="435.612" y="552.287" fill-rule="evenodd" clip-rule="evenodd" fill="#FFCB05" width="10.88" height="10.878"/>
	
		<rect x="435.612" y="552.287" fill="none" stroke="#000000" stroke-width="5.7476" stroke-linecap="round" stroke-miterlimit="2.6131" width="10.88" height="10.878"/>
	<rect x="395.583" y="552.287" fill-rule="evenodd" clip-rule="evenodd" fill="#FFCB05" width="10.881" height="10.878"/>
	
		<rect x="395.583" y="552.287" fill="none" stroke="#000000" stroke-width="5.7476" stroke-linecap="round" stroke-miterlimit="2.6131" width="10.881" height="10.878"/>
	<rect x="355.557" y="552.287" fill-rule="evenodd" clip-rule="evenodd" fill="#FFCB05" width="10.878" height="10.878"/>
	
		<rect x="355.557" y="552.287" fill="none" stroke="#000000" stroke-width="5.7476" stroke-linecap="round" stroke-miterlimit="2.6131" width="10.878" height="10.878"/>
	<rect x="315.529" y="552.287" fill-rule="evenodd" clip-rule="evenodd" fill="#FFCB05" width="10.88" height="10.878"/>
	
		<rect x="315.529" y="552.287" fill="none" stroke="#000000" stroke-width="5.7476" stroke-linecap="round" stroke-miterlimit="2.6131" width="10.88" height="10.878"/>
	<rect x="275.708" y="552.287" fill-rule="evenodd" clip-rule="evenodd" fill="#FFCB05" width="10.878" height="10.878"/>
	
		<rect x="275.708" y="552.287" fill="none" stroke="#000000" stroke-width="5.7476" stroke-linecap="round" stroke-miterlimit="2.6131" width="10.878" height="10.878"/>
	<rect x="235.68" y="552.287" fill-rule="evenodd" clip-rule="evenodd" fill="#FFCB05" width="10.879" height="10.878"/>
	
		<rect x="235.68" y="552.287" fill="none" stroke="#000000" stroke-width="5.7476" stroke-linecap="round" stroke-miterlimit="2.6131" width="10.879" height="10.878"/>
	<rect x="195.652" y="552.287" fill-rule="evenodd" clip-rule="evenodd" fill="#FFCB05" width="10.879" height="10.878"/>
	
		<rect x="195.652" y="552.287" fill="none" stroke="#000000" stroke-width="5.7476" stroke-linecap="round" stroke-miterlimit="2.6131" width="10.879" height="10.878"/>
	<rect x="155.624" y="552.287" fill-rule="evenodd" clip-rule="evenodd" fill="#FFCB05" width="10.88" height="10.878"/>
	
		<rect x="155.624" y="552.287" fill="none" stroke="#000000" stroke-width="5.7476" stroke-linecap="round" stroke-miterlimit="2.6131" width="10.88" height="10.878"/>
	<rect x="115.595" y="552.287" fill-rule="evenodd" clip-rule="evenodd" fill="#FFCB05" width="10.88" height="10.878"/>
	
		<rect x="115.595" y="552.287" fill="none" stroke="#000000" stroke-width="5.7476" stroke-linecap="round" stroke-miterlimit="2.6131" width="10.88" height="10.878"/>
	<rect x="557.543" y="111.981" fill-rule="evenodd" clip-rule="evenodd" fill="#FFCB05" width="10.879" height="10.879"/>
	
		<rect x="557.543" y="111.981" fill="none" stroke="#000000" stroke-width="5.7476" stroke-linecap="round" stroke-miterlimit="2.6131" width="10.879" height="10.879"/>
	<rect x="557.543" y="152.009" fill-rule="evenodd" clip-rule="evenodd" fill="#FFCB05" width="10.879" height="10.879"/>
	
		<rect x="557.543" y="152.009" fill="none" stroke="#000000" stroke-width="5.7476" stroke-linecap="round" stroke-miterlimit="2.6131" width="10.879" height="10.879"/>
	<rect x="557.543" y="192.037" fill-rule="evenodd" clip-rule="evenodd" fill="#FFCB05" width="10.879" height="10.879"/>
	
		<rect x="557.543" y="192.037" fill="none" stroke="#000000" stroke-width="5.7476" stroke-linecap="round" stroke-miterlimit="2.6131" width="10.879" height="10.879"/>
	<rect x="557.543" y="232.065" fill-rule="evenodd" clip-rule="evenodd" fill="#FFCB05" width="10.879" height="10.879"/>
	
		<rect x="557.543" y="232.065" fill="none" stroke="#000000" stroke-width="5.7476" stroke-linecap="round" stroke-miterlimit="2.6131" width="10.879" height="10.879"/>
	<rect x="557.543" y="272.092" fill-rule="evenodd" clip-rule="evenodd" fill="#FFCB05" width="10.879" height="10.879"/>
	
		<rect x="557.543" y="272.092" fill="none" stroke="#000000" stroke-width="5.7476" stroke-linecap="round" stroke-miterlimit="2.6131" width="10.879" height="10.879"/>
	<rect x="557.543" y="311.915" fill-rule="evenodd" clip-rule="evenodd" fill="#FFCB05" width="10.879" height="10.88"/>
	
		<rect x="557.543" y="311.915" fill="none" stroke="#000000" stroke-width="5.7476" stroke-linecap="round" stroke-miterlimit="2.6131" width="10.879" height="10.88"/>
	<rect x="557.543" y="351.943" fill-rule="evenodd" clip-rule="evenodd" fill="#FFCB05" width="10.879" height="11.085"/>
	
		<rect x="557.543" y="351.943" fill="none" stroke="#000000" stroke-width="5.7476" stroke-linecap="round" stroke-miterlimit="2.6131" width="10.879" height="11.085"/>
	<rect x="557.543" y="391.97" fill-rule="evenodd" clip-rule="evenodd" fill="#FFCB05" width="10.879" height="11.086"/>
	
		<rect x="557.543" y="391.97" fill="none" stroke="#000000" stroke-width="5.7476" stroke-linecap="round" stroke-miterlimit="2.6131" width="10.879" height="11.086"/>
	<rect x="557.543" y="432.202" fill-rule="evenodd" clip-rule="evenodd" fill="#FFCB05" width="10.879" height="10.879"/>
	
		<rect x="557.543" y="432.202" fill="none" stroke="#000000" stroke-width="5.7476" stroke-linecap="round" stroke-miterlimit="2.6131" width="10.879" height="10.879"/>
	<rect x="557.543" y="472.231" fill-rule="evenodd" clip-rule="evenodd" fill="#FFCB05" width="10.879" height="10.879"/>
	
		<rect x="557.543" y="472.231" fill="none" stroke="#000000" stroke-width="5.7476" stroke-linecap="round" stroke-miterlimit="2.6131" width="10.879" height="10.879"/>
	<rect x="557.543" y="512.259" fill-rule="evenodd" clip-rule="evenodd" fill="#FFCB05" width="10.879" height="10.877"/>
	
		<rect x="557.543" y="512.259" fill="none" stroke="#000000" stroke-width="5.7476" stroke-linecap="round" stroke-miterlimit="2.6131" width="10.879" height="10.877"/>
</g>
<g>
</g>
<g>
</g>
<g>
</g>
<g>
</g>
<g>
</g>
<g>
</g>
</svg>
