<?xml version="1.0" encoding="utf-8"?>
<!-- Generator: Adobe Illustrator 16.0.4, SVG Export Plug-In . SVG Version: 6.00 Build 0)  -->
<!DOCTYPE svg PUBLIC "-//W3C//DTD SVG 1.1//EN" "http://www.w3.org/Graphics/SVG/1.1/DTD/svg11.dtd">
<svg version="1.1" id="Layer_1" xmlns="http://www.w3.org/2000/svg" xmlns:xlink="http://www.w3.org/1999/xlink" x="0px" y="0px"
	 width="615.214px" height="612px" viewBox="0 0 615.214 612" enable-background="new 0 0 615.214 612" xml:space="preserve">
<path fill-rule="evenodd" clip-rule="evenodd" d="M595.725,609.438c4.098-0.819,7.99-3.073,10.246-6.557
	c5.531-6.558,6.146-16.393,7.375-24.792c1.024-16.599-1.229-36.062-8.195-50.61c-3.074-4.714-5.738-10.245-10.041-13.729
	c-2.458-1.639-3.277-4.302-6.353-4.713c-3.892-3.893-10.244-4.508-14.341-6.967c-7.378-1.434-14.754-0.819-21.517,0.411
	c-3.892,2.663-9.014,3.481-12.907,5.735c-4.508,1.025-7.581,5.122-11.271,7.378c-3.893,4.097-8.81,7.17-12.089,11.063
	c-2.458,0.411-5.122,1.639-6.967,0.411c1.64-2.869,5.328-3.895,7.377-6.558c5.532-3.894,8.811-11.27,7.377-18.236
	c-1.64-5.942-2.254-11.475-5.328-15.368c-2.869-3.482-7.786-5.532-12.089-6.146c-6.967-1.435-13.523-0.41-18.441,3.279
	c-4.302,3.688-7.785,9.22-6.761,15.161c1.434,4.099,3.073,7.582,5.531,10.654c1.844,1.845,4.1,3.074,5.943,4.508
	c6.351,1.641,13.934,2.255,16.597-3.482c2.663-5.122,3.277-10.655,0.409-15.366c-1.434-2.255-4.099-2.46-5.327-3.894
	c-3.893-1.025-7.172-0.207-9.836,1.844c-2.254,2.253-3.483,6.352-2.459,9.425c1.64,2.869,4.099,4.303,6.967,4.918
	c1.64-0.41,1.845-1.229,2.459-2.663c0-2.869-4.713-1.64-4.713-4.099c-0.205-2.048,0.615-3.893,1.845-4.713
	c2.254,0,5.531-0.615,6.147,0.614c2.868,2.254,2.868,6.558,2.458,9.836c-2.458,2.868-5.737,5.122-9.631,4.713
	c-5.532-1.229-9.016-4.713-11.063-9.426c-0.41-5.941,2.048-11.063,5.123-13.933c5.531-3.894,12.907-3.688,18.44-0.82
	c1.434,2.049,3.483,2.869,4.917,4.508c3.688,3.893,3.688,10.039,3.073,15.163c-1.639,3.278-2.459,6.762-4.712,8.81
	c-0.82,2.049-3.073,2.46-3.894,3.484c-2.664,1.639-5.328,2.459-7.581,3.688c-2.664,0.818-5.328,1.639-7.786,1.639
	c-14.752,3.894-29.916,2.049-44.259,3.894c-20.489,0.409-40.159-0.41-60.24-0.82c-21.105-0.41-41.595,0.614-61.88,0.614
	c-20.49,0.411-40.775-0.204-60.445-0.204c-21.104-1.023-40.98,0.204-61.265-0.614c-20.899,0.204-40.775,0-61.47-0.206
	c-12.089,0.206-25.203,0.41-36.268,0.615c-9.835-1.639-20.899-0.409-30.53,0c-0.205-20.08,0.615-40.364,0-60.65
	c0.41-21.104-0.205-40.98,0.41-61.265c-0.615-20.899,0.615-41.391-0.41-61.47c0.82-11.68-0.205-22.334,0.41-32.989
	c-0.41-20.285,0.205-40.774-0.205-60.855c0.41-20.899-0.206-40.98,0.615-61.265c-0.205-5.737-0.41-10.654-0.41-15.777
	c0.205-20.695-1.229-40.365,0.205-61.06c0.205-4.098,2.049-5.942,3.278-9.221c2.253-1.639,2.459-4.098,4.713-5.532
	c2.254-2.868,5.532-3.483,8.811-5.122c7.991-2.459,15.777,0.205,21.104,5.736c2.869,4.099,4.918,10.245,1.844,15.163
	c-1.024,2.254-3.073,4.918-5.942,5.737c-4.303,1.229-8.196,0.819-12.294-1.229c-1.639-2.664-4.098-4.508-3.893-7.786
	c0.409-2.459,0.614-5.123,1.844-6.557c2.254-1.435,4.917-2.049,6.967-1.435c2.458,1.229,3.893,2.254,4.917,4.712
	c0.615,2.869-1.435,4.713-2.459,5.943c-2.458,1.229-3.893-0.615-5.737-0.206c-0.204,1.229,0.615,2.049,1.229,3.074
	c2.459,0.82,5.328,0.615,7.171-0.614c2.869-2.459,3.484-5.942,2.664-9.221c-0.205-3.894-3.483-4.713-5.737-6.762
	c-3.483-1.435-7.581-0.82-10.45,0.614c-2.049,1.434-4.507,2.664-4.917,5.123c-2.254,6.557-0.205,13.933,4.099,18.031
	c4.302,3.893,11.064,4.303,16.392,2.458c2.254-1.025,3.278-2.458,5.532-2.869c5.123-4.303,7.581-12.089,7.171-18.851
	c-0.205-4.099-2.254-6.762-3.483-9.016c-3.688-4.712-7.786-6.556-13.114-7.376c-6.557-2.663-12.704,1.845-18.851,2.869
	c-3.483,2.868-7.376,4.917-9.835,8.811c-0.41,0.41-0.819,0.41-0.819,0.41c-0.615-2.459-1.23-7.172,0.205-9.836
	c4.303-0.409,6.147-3.073,9.63-4.303c4.303-2.868,8.196-5.942,10.86-9.63c6.146-7.582,10.245-19.261,8.196-29.916
	c-1.639-6.351-3.483-12.294-7.376-17.211c0-2.254-2.254-2.458-2.458-3.893c-3.894-4.713-8.606-7.991-13.114-11.475
	c-2.049-1.229-4.303-2.049-5.737-3.278c-4.918-1.844-9.015-3.483-13.933-4.713c-2.664-0.615-4.917-1.435-7.582-1.844
	C41.061-0.548,21.185-0.752,4.793,5.395c-4.917,4.712-5.123,12.704-3.688,19.055c1.434,1.64,2.048,4.303,3.278,5.737
	c2.253,4.098,4.713,6.761,6.352,10.654c1.229,1.025,1.024,2.05,1.639,3.074c0.615,2.459,2.049,4.303,2.664,5.941
	c3.893,10.45,5.533,21.515,5.737,32.375c2.664,21.515,2.049,41.799,1.639,62.699l-0.819,441.763l501.594,0.411
	c17.213,3.893,31.555,3.483,48.357,12.293c2.458,1.024,3.894,1.641,6.352,2.254C582.61,605.751,588.757,610.258,595.725,609.438"/>
<path fill-rule="evenodd" clip-rule="evenodd" fill="#00A651" d="M592.445,604.521c4.508,0.82,7.377-2.05,9.631-4.302
	c1.844-3.483,4.303-6.763,4.508-10.45c3.483-18.441,2.254-37.907-3.277-55.118c-1.025-3.073-2.664-5.121-3.895-8.197
	c-2.253-2.252-2.868-4.507-4.712-6.146c-2.663-4.917-6.352-7.17-10.45-9.835c-11.27-6.351-25.612-6.146-37.497-1.229
	c-2.253,1.024-3.483,1.639-5.327,2.663c-2.254,2.665-5.737,2.254-6.967,4.917c-3.482,2.869-7.99,5.942-10.449,8.606
	c-2.664,1.435-3.688,4.1-6.557,5.123c-1.23,1.435-3.074,1.024-3.894,1.844c-20.284,0.82-40.775-0.204-60.649,0
	c-21.105,0.205-40.776-0.204-60.856-0.819c-21.104,0.615-41.799,0-62.084,0.204c-20.694,0.615-40.365-0.614-60.65-0.82
	c-20.899-0.204-41.185,0.411-61.47-0.204c-21.104,0-40.98-0.204-61.265-0.409c-21.104,0.205-41.39-0.205-61.879,0.409
	c-3.483-0.409-7.172,1.845-9.221-0.614c-0.41-20.08-0.819-39.955-0.615-59.421c0.41-4.713-0.205-8.812,0.205-13.319
	c-0.205-20.488,0.205-40.979-0.205-61.06c0.41-21.104,0.205-40.979,0-61.469c0.41-9.017-0.205-17.007-0.205-25.409
	c0.205-20.285,0.41-40.774,0-60.854c0-20.9,0.41-40.775,0.41-61.061c0-21.104-0.615-41.594-0.205-61.675
	c1.024-13.318-2.868-28.48,1.844-38.93c7.786-2.869,13.729-6.558,18.646-11.475c1.639-2.868,3.483-4.303,4.712-6.967
	c2.459-3.483,3.073-6.761,4.098-11.064c1.024-7.787-0.41-15.163-3.893-21.31c-2.049-4.098-4.713-8.401-7.171-11.474
	c-3.688-3.278-7.786-5.123-10.86-7.786c-1.639-1.844-4.917-2.459-6.557-3.894c-5.942-2.664-11.884-4.097-17.827-6.147
	C43.929,3.755,28.767,3.755,14.628,6.214c-5.737,0.819-8.605,4.507-10.04,9.425c-0.41,4.098,0.41,7.786,2.458,10.245
	c3.483,6.352,7.172,11.474,9.836,17.621c8.401,17.622,10.449,37.292,11.474,55.118l-0.819,482.744l475.163-1.229
	c9.835,0.204,19.466-1.024,28.48,1.843c4.099,0,9.426,1.845,13.934,2.255c4.918,1.435,9.836,2.458,13.933,4.303
	c7.172,0.615,12.704,4.713,17.827,7.376c1.844,2.254,4.713,2.869,6.352,4.714C586.914,601.652,588.963,603.906,592.445,604.521"/>
<path fill-rule="evenodd" clip-rule="evenodd" d="M582.815,588.13c3.074,0,6.966,0.409,8.811-2.255
	c2.87-3.277,3.483-7.581,4.509-11.883c0.205-7.993-0.205-15.164-1.846-22.54c-3.482-9.425-7.99-17.826-15.365-23.358
	c-1.23-2.664-4.1-2.664-5.533-4.918c-2.664-1.229-4.917-1.845-7.172-2.869c-10.04-2.868-18.646,1.64-24.793,6.967
	c-0.819,2.46-3.483,2.46-4.508,4.508c-3.482,2.05-4.507,5.739-7.376,8.402c-0.614,2.252-3.278,0.409-5.122,2.048L64.419,543.87
	L62.575,86.535c-2.253-1.435-4.098-3.483-3.894-6.147c0.615-3.687,5.123-3.277,5.943-5.736c7.376-2.869,12.704-5.942,16.801-11.68
	c1.64-2.458,2.459-4.712,3.483-6.557c1.024-2.049,0.82-3.893,1.844-5.328c1.229-10.04-2.868-19.056-9.631-23.769
	c-5.532-3.893-11.269-5.941-18.441-7.991c-12.908-3.073-27.046-3.893-39.341-0.205c-0.819,1.229-1.024,2.459-0.41,3.073
	c3.074,3.688,4.303,8.606,6.762,12.499c3.688,8.811,7.171,17.417,9.015,26.637c3.074,11.885,2.869,22.744,2.459,34.833
	l2.253,474.752h483.564c13.523,0.615,25.407,3.074,37.701,6.352c3.279,2.049,6.763,3.073,10.45,4.712
	c3.073,1.026,4.712,2.665,7.376,3.689C579.947,586.899,581.382,587.515,582.815,588.13"/>
<path fill-rule="evenodd" clip-rule="evenodd" fill="#ADBC72" d="M583.635,584.236c2.664,0.41,5.122-1.025,6.146-3.073
	c3.689-11.064,2.459-23.563-2.458-34.833c-1.639-4.099-3.688-7.171-6.352-10.86c-3.278-3.277-6.556-5.94-10.45-7.99
	c-5.737-2.459-11.063-5.124-16.596-3.483c-2.255,2.254-6.147,2.049-7.377,4.713c-4.918,3.072-8.811,7.376-11.885,11.269
	c-2.253,4.509-2.253,6.966-6.967,9.017c-13.318-1.435-24.588-0.82-37.086-1.23l-430.905,0.205L59.092,98.009
	c0.205-2.254,1.025-6.147,0.205-7.991c-3.278-2.459-5.327-5.942-4.713-10.04c0.615-2.254,2.459-3.688,3.074-5.123
	c1.639-1.639,3.278-2.458,4.917-3.688c3.483-1.229,5.942-2.869,8.606-4.303c1.639-2.664,4.712-3.074,6.147-5.533
	c4.098-4.508,6.967-11.475,5.942-17.621c-0.82-2.049-0.41-3.894-1.844-4.713c-0.41-2.049-1.844-3.688-2.868-4.713
	c-2.049-2.459-4.508-4.098-6.967-5.941c-14.138-6.147-31.555-8.401-46.717-5.942c0.41,2.664,1.844,5.532,2.868,8.401
	c1.229,1.229,1.025,2.663,2.254,3.893c3.073,6.967,5.737,14.547,7.786,21.719c1.639,7.991,4.917,17.416,4.917,24.998l1.639,484.382
	l449.96,0.615c17.826-1.436,35.653,0.205,52.66,3.688c5.532,0.819,9.835,2.663,15.367,4.098c2.664,2.049,7.582,1.845,9.834,4.508
	C576.668,580.139,579.332,582.598,583.635,584.236"/>
<path fill-rule="evenodd" clip-rule="evenodd" d="M325.667,524.201c19.465,0.204,39.545-1.229,58.601-4.918
	c10.45-1.024,18.852-4.508,28.687-6.558c6.146-2.663,13.728-3.688,19.056-7.171c3.483-0.615,6.352-1.434,9.221-2.869
	c3.688-2.254,7.99-2.459,11.063-5.327c6.147-1.64,10.246-5.326,16.188-7.375c1.434-1.231,2.869-2.255,4.917-2.459
	c4.508-3.279,10.245-6.353,14.957-9.222c2.869-1.435,4.919-3.483,7.377-4.302c3.893-3.075,7.581-5.124,10.655-7.787
	c3.483-1.435,4.508-3.688,7.376-5.328c3.894-3.483,7.376-6.351,10.859-9.424c4.304-4.099,8.401-7.173,11.885-11.065
	c4.712-3.688,7.377-6.966,11.27-11.68c3.073-4.097,6.352-7.991,9.016-12.089c1.229-1.638,2.049-3.482,1.229-4.712
	c-7.172-3.893-16.188-5.328-22.539-8.812c-2.664-0.409-4.918-1.024-6.763-1.434c-5.736-3.277-12.089-4.304-17.825-6.761
	c-3.279-0.82-6.763-1.641-9.426-2.46c-0.409-5.942-1.435-12.089-2.869-17.006c-1.229-1.641-1.435-3.483-2.049-4.919
	c-0.614-2.254-1.435-2.868-1.844-4.507c-1.845-4.714-4.303-8.606-6.761-12.295c-2.05-3.688-5.124-6.967-7.991-9.834
	c-1.845-0.82-2.459-2.665-4.714-3.279c-3.073-3.688-7.991-6.146-11.679-8.812c-2.664-1.229-4.918-2.662-7.377-3.482
	c-4.302-2.459-9.425-3.482-14.344-5.327c-3.482-0.411-6.761-2.05-9.834-2.459c-3.688-1.844-7.581-2.049-11.475-3.073
	c-3.278-1.845-8.196-0.819-10.86-2.869c-5.941-16.597-7.785-35.652-10.449-52.864c-1.435-6.147-1.64-11.474-3.893-17.622
	c-0.41-1.024-0.615-1.845-0.615-2.458c-1.844-5.123-3.483-9.426-6.147-13.318c-3.482-5.123-9.015-8.811-13.113-11.68
	c-5.737-3.278-10.86-5.123-17.211-6.967c-4.098-1.024-8.606-2.254-12.499-2.868c-5.123-1.844-10.45-2.459-15.368-2.869
	c-9.016-2.458-17.826-2.663-26.227-4.917c-5.737-0.615-11.064-2.254-16.597-2.869c-3.483-1.23-5.737-2.459-9.016-3.688
	c-1.434-3.483-1.639-5.941-3.073-9.425c-5.123-15.777-11.065-31.35-19.056-44.874c-2.868-5.532-6.352-10.449-9.63-14.548
	c-2.459-2.868-4.713-5.941-7.172-8.196c-1.229-1.844-3.073-2.664-3.688-4.098c-3.893-2.458-6.352-5.327-9.63-7.786
	s-5.737-4.918-9.425-6.147c-3.688-4.098-10.859-4.508-13.729-9.016c-1.024-5.532-3.483-11.269-4.917-16.187
	c-1.434-2.459-1.639-5.737-2.868-7.787c0-2.663-1.845-4.917-1.639-7.171c-2.664-2.664-1.435-7.581-5.123-9.22
	c-3.483,0-4.917,3.278-7.376,4.302c-3.893,4.099-7.581,7.992-10.859,11.885c-1.435,0.819-2.459,3.073-3.688,3.893
	c-1.024,2.254-3.279,4.099-4.303,5.943c-7.786,8.401-13.728,19.26-21.104,27.251c-1.64,3.279-3.893,5.124-5.327,8.401
	c-1.844,0.819-1.844,3.483-3.279,4.508c-1.843,3.893-4.302,6.761-5.941,11.064c-4.508,7.171-8.606,13.728-12.089,21.104
	c-2.049,3.483-3.073,6.557-4.712,9.836c-4.713,10.654-9.016,22.539-12.5,34.013c-1.844,6.966-3.688,14.343-5.532,21.309
	c-1.64,9.835-3.483,20.285-4.508,30.121c-2.459,20.08-2.664,40.161-0.819,60.036c0.614,11.269,3.278,21.924,5.122,32.578
	c1.435,5.328,2.254,10.246,4.303,15.164c0.615,4.098,2.664,6.146,2.869,10.244c1.639,4.508,3.483,8.195,4.917,12.295
	c1.229,1.843,0.819,3.483,1.639,4.711c1.434,2.665,2.049,5.739,3.483,8.197c3.483,9.63,7.582,19.056,12.294,27.251
	c1.229,3.894,5.327,6.557,5.532,9.63c-3.893,2.87-8.606,5.122-13.319,3.279c-4.303-3.279-8.605-6.557-10.859-11.271
	c-6.557-10.45-8.196-23.356-11.475-35.242c-0.41-3.688-0.41-7.991-3.073-10.245c-1.434-1.024-3.074,0.41-4.098,1.434
	c-0.82,20.697,0.614,41.187-0.206,61.062c0.206,21.514,0.819,41.594,0.41,62.084c0.615,9.835,0,19.671,1.025,28.687
	c20.49,0.818,40.16-0.41,60.65,1.025c20.286,0.613,40.366-0.207,60.241,0.818c4.303,0,9.015,1.434,11.884-0.818
	c1.229-2.459-1.024-4.715-2.049-5.943c-4.507-1.229-7.786-1.639-11.884-3.073c-4.712-0.82-8.4-3.074-13.318-3.894
	c-5.942-2.868-11.27-5.122-14.958-9.835c-0.41-0.818-0.615-0.818-0.82-1.229c1.229-1.845-0.819,0.411-1.024-0.819
	c-2.049-3.483-0.819-7.172-0.205-10.45c1.435-1.639,1.435-4.302,3.483-4.713c3.688,1.025,6.967,3.688,10.245,4.919
	c4.099,2.663,8.606,4.098,12.294,6.761c4.508,1.23,6.967,3.894,11.27,4.508c6.557,3.278,13.319,6.146,20.081,9.63
	c9.016,2.254,16.802,5.123,25.612,7.173c5.532,2.663,12.704,1.434,17.622,4.302C291.858,521.537,308.455,525.84,325.667,524.201"/>
<path fill-rule="evenodd" clip-rule="evenodd" fill="#FFCB05" d="M312.758,521.946c20.081-0.819,40.775-0.615,61.061-2.867
	c4.098-0.206,7.786-1.845,11.064-2.256c9.426-0.409,17.622-4.098,26.637-5.531c3.483-2.254,8.195-1.843,10.654-3.894
	c2.459-0.409,4.304-1.435,6.147-1.639c4.712-2.05,8.401-3.688,12.909-4.918c4.916-2.254,10.449-3.894,14.343-6.762
	c4.918-0.409,7.376-3.893,11.064-5.122c3.073-2.458,7.786-3.689,10.86-5.941c2.663-1.435,4.712-3.074,7.581-4.098
	c2.663-2.46,5.941-3.28,7.991-5.328c2.663-0.82,3.482-2.255,5.531-3.483c2.255-1.23,3.688-3.073,5.737-3.689
	c3.894-3.481,7.376-5.532,11.065-8.81c2.049-1.23,2.868-2.663,4.508-3.688c2.254-2.665,4.508-3.689,5.941-5.533
	c3.483-2.254,5.532-4.917,8.196-7.172c2.663-2.253,4.918-4.508,7.376-6.966c2.05-3.688,4.918-5.737,6.967-8.811
	c2.664-3.075,5.737-5.532,6.352-9.426c-3.893-2.868-9.834-3.483-14.752-6.146c-8.196-2.05-15.163-5.124-22.334-7.172
	c-8.811-3.688-18.852-5.737-27.252-8.81c-4.099-1.436-8.401-1.641-11.27-3.895c-8.605-1.434-16.597-5.737-24.793-6.967
	c-2.664-1.845-5.533-1.229-8.811-1.845c-2.254,0-4.098-0.818-5.737-0.613c0,1.024,1.024,1.845,1.229,2.869
	c4.099,5.735,7.786,12.293,14.139,16.597c3.688,2.048,8.401,2.868,11.884,4.917c3.279-0.206,4.919,2.663,7.582,3.074
	c4.098,2.868,8.4,5.941,11.475,9.833c0.409,2.46,2.048,3.28,2.253,5.738c1.64,4.098,1.23,9.017-0.408,12.909
	c-1.641,3.277-3.483,5.532-5.533,8.4c-5.941,6.558-12.499,11.68-17.622,17.416c-2.049,1.641-3.688,2.664-5.736,4.098
	c-2.049,2.255-5.532,2.869-7.377,5.534c-2.869,0.818-4.098,2.867-6.352,4.098c-3.073,2.253-5.532,3.277-8.4,5.122
	c-3.074,1.024-5.328,2.869-7.787,3.894c-4.098,2.459-8.401,2.868-12.499,5.326c-4.303,1.23-7.171,1.435-10.654,3.483
	c-7.376,0.82-12.704,3.073-19.056,3.894c-8.401,3.073-16.392,2.663-24.792,4.917c-20.9,3.278-40.98,2.46-61.266,0.205
	c-7.171-0.205-12.909-2.664-19.67-2.868c-6.147-2.459-12.499-1.435-18.031-4.507c-11.884-1.845-22.334-6.558-32.989-9.427
	c-2.869-2.048-6.557-2.048-9.22-4.097c-4.098-1.025-6.352-2.665-9.426-3.894c-3.074-1.435-5.122-2.869-8.195-3.894
	c-2.05-1.845-4.918-2.663-6.557-4.508c-1.639-0.614-2.459-1.435-3.893-0.41c-4.303,2.868-6.762,6.763-10.04,10.45
	c0.819,2.255,3.688,2.255,5.123,3.894c3.688,1.229,5.737,3.688,9.22,4.712c4.508,2.869,9.425,4.508,13.523,6.967
	c4.508,1.229,7.786,3.893,12.089,4.713c2.254,1.64,4.303,1.843,5.942,3.278c2.869,1.434,5.532,2.049,8.196,3.279
	c5.328,1.024,10.041,3.482,14.753,4.097c17.006,5.942,34.013,7.171,51.84,10.654C307.021,521.127,309.685,521.537,312.758,521.946"
	/>
<path fill-rule="evenodd" clip-rule="evenodd" fill="#FFCB05" d="M206.415,519.488c1.434,0,3.074,0.204,4.917,0
	c-7.581-1.435-14.753-4.508-22.334-6.148c-2.459-2.252-6.967-2.868-9.221-5.122c-4.098-2.868-7.582-5.941-9.835-9.63
	c-2.254-6.147-0.82-12.704,1.639-17.416c3.893-4.304,5.942-9.017,10.04-11.68c3.688-3.278,6.762-6.556,10.655-9.015
	c3.688-3.279,7.582-5.328,11.065-7.991c5.532-2.665,10.245-6.353,16.392-8.197c6.147-4.098,14.958-5.736,21.515-8.605
	c-3.074-6.146-5.942-11.884-8.811-18.03c-0.819-1.64-0.615-3.483-2.049-4.099c-8.401,2.869-17.212,5.737-24.998,9.836
	c-7.991,3.688-15.982,7.376-22.744,11.679c-1.229,2.049-3.893,1.435-4.713,3.483c-4.712,2.253-7.376,5.122-11.474,7.991
	c-2.254,2.459-4.917,3.277-6.762,5.532c-3.073,1.435-4.713,4.712-8.196,4.918c-1.024-0.616-2.049-1.024-2.049-2.049
	c2.664-5.328,5.737-10.246,8.196-15.164c2.049-2.459,2.869-4.918,4.508-7.17c2.254-3.28,3.074-6.147,5.328-9.221
	c1.639-3.279,3.278-5.124,4.917-8.606c1.435-1.844,1.844-3.483,3.073-5.122c2.254-3.688,3.688-6.967,5.943-10.45
	c1.229-1.229,1.844-3.278,2.458-4.302c1.434-2.05,2.049-4.919,3.483-6.764c1.435-3.072,3.483-6.761,3.893-9.63
	c-4.507-2.254-8.605-4.098-13.523-5.941c-2.254-2.05-4.712-2.459-6.557-3.894c-2.869,0.82-2.254,4.713-3.688,6.146
	c-1.229,2.459-2.049,3.894-2.664,6.148c-2.664,6.761-6.761,11.678-9.63,17.417c-2.254,2.663-3.483,5.326-5.737,7.989
	c-1.639,1.844-2.664,3.279-4.098,5.327c-2.049,1.23-2.664,3.28-4.712,4.508c-1.435,1.845-2.868,2.665-4.508,4.304
	c-3.688,1.843-5.123,4.508-8.401,6.146c-3.483,2.255-8.196,3.073-12.294,3.073c-4.508-0.614-6.352-2.869-9.426-4.508
	c-1.024-1.639-2.253-2.458-3.278-3.277c-1.435-2.255-2.869-4.303-4.099-6.557c-2.458-3.893-3.893-7.991-5.532-12.295
	c-2.254-8.605-4.713-18.03-5.942-26.433c-0.41,20.081,0.205,40.57,0.41,60.856c-0.614,20.9,0.205,41.391-0.205,61.471
	c0.205,6.761,0.41,12.702,0.615,18.849c19.67,0.411,40.16,0.616,60.036,0.616C167.894,519.897,187.154,518.873,206.415,519.488"/>
<path fill-rule="evenodd" clip-rule="evenodd" fill="#647B98" d="M333.658,498.382c9.835-1.023,20.695-0.818,29.916-3.277
	c11.27-0.819,20.899-3.893,31.35-5.941c4.098-1.435,7.171-2.05,11.064-3.279c7.172-2.049,12.499-4.917,19.056-6.965
	c2.663-2.051,6.557-2.665,8.401-4.714c5.327-2.253,8.195-6.146,13.113-8.401c1.845-2.049,3.688-3.073,5.736-4.918
	c3.894-2.253,6.147-4.916,9.631-7.375c6.762-6.353,14.344-12.09,18.646-20.08c0.206-0.41,0-0.819,0-0.819
	c-5.941,0.203-10.449-2.46-15.777-3.688c-8.605-3.689-16.802-7.786-24.382-12.499c-1.845-1.845-4.099-2.459-5.738-4.099
	c-2.868-1.229-4.098-3.893-6.761-5.122c-0.41-2.049-2.049-2.46-3.483-3.074c-6.147-1.434-11.27-1.434-17.007-1.434
	c1.023,5.328,5.122,9.221,6.761,14.547c3.689,7.582,6.557,15.982,9.017,23.974c1.434,8.605,3.278,19.056,0.204,26.433
	c-18.44,5.122-36.267-4.098-50.815-10.654c-4.712-2.049-8.811-4.508-12.704-6.967c-2.253-1.845-5.327-2.255-7.171-4.303
	c-5.328-3.074-8.811-7.378-13.114-11.475c-3.893-4.713-9.63-8.811-13.523-13.318c-2.049-1.024-2.458-4.918-5.327-4.714
	c-6.967,1.024-12.909,3.074-18.441,4.714c2.253,5.94,5.942,11.68,8.4,18.646c3.893,9.22,6.967,19.056,8.811,29.3
	c0.615,8.401,4.917,19.466-0.82,24.998c-4.508-2.049-9.425-0.819-12.908-3.278c-2.869-1.434-6.352-2.458-8.606-4.097
	c-2.664-0.616-3.278-3.074-5.942-3.074c-2.869-2.664-6.147-3.279-8.606-5.737c-4.098-2.255-5.942-4.918-9.63-6.763
	c-1.434-2.457-4.098-2.867-5.327-4.712c-4.098-2.869-7.582-6.557-10.655-9.836c-0.819-2.253-2.868-2.867-3.893-4.916
	c-2.459-2.459-5.123-5.534-6.967-8.197c-0.615-1.435-1.025-2.459-2.459-2.253c-7.786,1.435-14.958,3.893-21.31,7.171
	c-3.893,1.024-6.352,3.279-9.425,4.304c-5.942,3.073-11.475,6.557-16.802,10.244c-0.819,2.254,2.664,3.073,3.688,4.098
	c3.278,1.024,4.712,2.869,7.581,3.688c2.254,2.459,5.533,2.05,7.991,3.895c5.533,1.433,9.835,3.892,14.343,5.531
	c3.483,2.05,8.196,1.64,11.065,4.303c5.327-0.204,9.425,2.255,13.728,3.279c17.211,4.916,35.038,7.991,52.044,10.039
	C315.832,497.975,324.642,497.975,333.658,498.382"/>
<path fill-rule="evenodd" clip-rule="evenodd" fill="#FFCB05" d="M316.446,488.549c0.615-10.246-2.254-21.721-4.507-31.555
	c-2.869-8.401-5.328-16.393-9.016-23.563c-0.82-2.459-2.459-3.894-3.279-6.147c-1.844-1.64-2.049-4.713-4.303-5.327
	c-2.869,1.844-6.966,1.844-9.63,3.688c3.688,7.991,9.425,15.368,8.606,25.612c-0.82,1.639-2.049,2.665-3.483,2.869
	c-5.737-1.024-11.064-3.688-14.342-6.762c-3.279-1.639-5.943-4.303-7.992-7.172c-3.073-2.869-4.508-6.761-6.762-9.836
	c-1.639-3.483-3.278-6.146-5.123-9.016c-1.229-3.483-1.844-5.736-3.483-9.015c-6.352-18.851-7.172-39.136-6.147-57.985
	c0.205-7.787,2.458-16.188,2.458-22.335c-3.688-1.23-6.966-3.279-10.245-4.508c-0.819-0.41-1.639-0.819-2.049-0.41
	c-1.639,4.918-0.615,10.04-2.664,15.572c-2.254,20.286-4.508,40.57-0.41,60.445c2.254,13.934,8.811,23.563,14.343,34.218
	c2.459,3.894,5.532,7.377,8.401,10.45c2.049,3.073,4.713,5.122,6.762,7.991c1.844,1.23,3.278,3.483,4.712,4.304
	c3.279,3.073,6.762,5.122,9.63,7.991c3.074,2.253,5.737,5.122,9.221,6.761c2.254,2.049,4.712,2.459,6.557,4.508
	c4.098,1.64,5.532,3.894,10.04,4.714C307.226,486.5,311.528,488.139,316.446,488.549"/>
<path fill-rule="evenodd" clip-rule="evenodd" fill="#FFCB05" d="M416.438,464.165c1.024-0.204,2.868,0.41,3.483-0.41
	c2.253-17.621-6.557-35.242-13.114-50.2c-2.868-3.279-4.098-8.605-7.376-10.654c-4.917,0-9.63-0.41-13.728,1.024
	c2.868,4.712,6.146,9.834,7.375,16.392c1.64,4.508,2.254,9.835,0.411,14.139c-0.411,1.229-0.819,2.049-2.049,2.253
	c-8.401-0.204-17.416-2.663-24.178-5.736c-5.738-3.483-11.475-5.942-15.982-10.655c-5.532-3.483-11.065-9.425-15.163-13.934
	c-2.458-4.099-5.327-6.762-7.376-10.858c-3.073-3.074-4.303-7.172-6.557-10.861c-1.844-2.252-1.639-4.711-3.688-6.761
	c-4.917-0.206-10.655,1.025-14.343,1.435c2.254,7.376,6.966,13.523,11.27,20.08c2.459,2.867,4.098,5.737,6.557,8.606
	c2.253,3.072,4.303,4.917,6.352,7.785c2.254,1.434,2.869,3.688,4.917,4.917c3.894,3.689,7.992,6.558,10.86,10.45
	c2.254,1.845,4.098,3.894,6.147,5.738c2.253,1.229,4.508,3.892,6.761,4.712c1.844,2.663,5.123,2.459,6.967,4.712
	c2.049,0.41,2.664,1.641,4.098,2.05c2.254,2.05,5.738,2.458,7.786,4.303c4.303,1.23,5.942,3.073,10.04,4.304
	c2.664,2.049,5.533,2.459,8.811,4.098c3.688,0.818,6.557,1.639,10.04,2.459C409.061,463.961,412.954,464.369,416.438,464.165"/>
<path fill-rule="evenodd" clip-rule="evenodd" fill="#647B98" d="M286.94,448.388c0.819-0.205,2.459,0.615,2.869-0.615
	c-1.639-7.991-5.532-14.752-9.425-20.489c-1.844,0.82-3.893,0.615-5.328,1.229c-2.664,0.614-5.122,1.843-6.762,2.867
	c2.459,4.508,4.917,7.787,8.606,10.861c2.664,1.434,4.507,4.097,7.581,4.713C284.892,447.979,285.711,448.593,286.94,448.388"/>
<path fill-rule="evenodd" clip-rule="evenodd" fill="#647B98" d="M160.927,444.495c3.073-1.435,5.532-3.894,8.196-5.942
	c2.049-2.049,5.328-2.869,6.967-4.714c3.073-2.048,5.737-3.892,8.605-5.326c2.459-2.049,5.737-2.665,7.787-4.508
	c5.327-0.82,7.581-4.508,12.499-5.532c5.532-3.279,12.089-5.123,17.212-7.581c2.458-0.41,5.122-1.229,6.966-2.05
	c-0.615-7.582-1.639-16.188-2.049-22.539c-11.064,0.205-22.744-3.278-31.759-6.146c-1.639,5.327-4.303,8.605-5.942,13.729
	c-1.024,1.843-1.64,3.891-2.869,5.121c-0.41,1.844-1.435,2.868-2.254,4.302c-1.844,2.665-3.074,5.942-5.123,9.017
	c-0.41,1.845-1.844,3.688-2.664,4.917c-1.229,1.641-1.639,3.279-3.074,4.714c-3.688,6.351-6.557,12.294-10.654,18.44
	C162.566,442.241,160.722,443.471,160.927,444.495"/>
<path fill-rule="evenodd" clip-rule="evenodd" fill="#647B98" d="M385.703,431.38c1.229-0.408,3.482,0.411,4.098-0.613
	c0.205-8.811-4.098-18.032-8.196-23.975c-8.812-3.483-21.31,0.616-31.145,1.025c-1.844,0.409-2.254,1.845-3.893,1.64
	c2.254,3.483,7.171,5.533,9.63,8.605c3.483,1.024,4.508,3.688,7.582,4.508C370.335,426.258,377.506,429.947,385.703,431.38"/>
<path fill-rule="evenodd" clip-rule="evenodd" fill="#FFCB05" d="M479.341,427.692c0.616-0.409,2.46,0.411,2.664-0.614
	c-0.409-5.122-2.459-8.401-5.531-10.86c-5.122-5.531-13.524-8.194-19.877-11.063c-9.015-1.025-14.342-8.196-18.645-14.345
	c-2.459-3.687-4.919-7.17-6.967-10.448c-2.869-4.917-5.122-9.425-7.991-14.139c-3.279-8.195-6.557-16.187-9.016-24.384
	c-0.205-1.229-0.614-2.663-1.435-2.663c-5.327-0.614-10.45-2.253-15.162-0.818c1.844,4.916,3.483,9.834,5.122,14.548
	c2.459,6.761,5.327,12.907,7.787,18.645c4.098,7.378,7.376,15.776,12.498,21.925c0.205,1.436,1.434,2.05,1.844,3.074
	c4.508,4.302,8.196,8.194,12.295,10.859c3.688,3.688,8.811,5.532,12.499,8.81C459.057,420.726,468.276,425.644,479.341,427.692"/>
<path fill-rule="evenodd" clip-rule="evenodd" fill="#FFCB05" d="M265.631,427.078c3.483-1.845,7.787-3.073,11.27-4.303
	c13.318-4.509,26.841-7.991,40.364-10.859c0.616-1.641-1.434-2.254-1.434-3.483c-1.844-1.435-2.254-3.893-4.303-5.737
	c-0.82-1.845-2.458-3.074-2.868-4.508c-1.844-2.05-2.869-4.302-4.303-6.146c-10.245,1.229-19.056,3.483-29.096,5.735
	c-3.278,1.641-7.376,2.46-10.655,3.689c-3.279,0.614-6.966,1.024-9.016,2.663c2.05,7.991,5.533,15.163,9.016,22.539
	C265.017,426.668,265.631,427.078,265.631,427.078"/>
<path fill-rule="evenodd" clip-rule="evenodd" fill="#FFCB05" d="M130.807,418.473c3.688-1.435,5.942-5.327,9.016-7.377
	c0.41-1.229,2.254-2.049,1.844-3.483c-2.254-2.663-3.893-6.146-5.328-8.812c-6.147-13.317-11.065-27.864-15.777-41.798
	c-1.024-1.435-0.615-3.689-1.639-4.508c-1.64-5.942-4.098-12.089-5.328-17.827c-1.229-1.639-0.819-3.073-1.639-5.326
	c-5.327-19.466-6.762-37.498-6.966-56.963c0.205-9.836,1.229-18.851,2.663-27.866c1.025-2.869,0.205-4.918,1.229-7.172
	c2.254-13.318,5.737-23.768,9.426-36.062c2.048-5.328,4.098-10.245,5.737-15.163c2.048-3.483,3.278-7.581,5.327-10.451
	c2.254-6.351,5.737-11.679,8.811-16.801c1.64-2.459,2.459-4.918,4.098-6.557c1.64-1.844,3.278-3.688,4.508-5.532
	c4.303-4.917,9.63-8.401,14.138-11.68c2.458-1.229,4.713-1.229,6.557-2.458c7.376-0.819,14.753,2.254,18.236,6.966
	c4.712,4.713,4.302,12.704,9.425,16.188c2.664,2.459,5.533,5.122,8.81,6.761c1.64,1.844,3.688,2.869,5.738,4.508
	c2.869,0.614,3.688,3.688,6.557,3.278c-1.024-7.991-1.844-15.572-3.483-23.563c-0.41-3.278-1.639-6.557-2.049-9.426
	c-1.024-3.278-0.819-5.532-2.049-8.605c-3.894-17.417-8.196-33.809-13.523-50.815c-1.23-3.074-1.64-5.532-3.073-8.606
	c-1.844-4.918-3.074-10.451-5.328-14.958c-2.664,0.82-3.893,3.894-6.147,4.713c-0.615,2.458-3.483,2.869-3.893,4.918
	c-2.664,1.639-4.918,5.327-6.557,6.967c-1.025,2.048-2.049,3.483-3.688,4.712c-2.254,3.688-5.328,6.352-7.582,10.04
	c-2.664,2.868-4.098,5.942-7.171,9.015c-1.025,2.049-2.254,3.279-3.483,5.328c-1.64,1.229-1.845,2.869-3.074,4.098
	c-2.664,3.279-4.712,6.352-6.762,9.631c-1.844,3.893-4.302,7.376-6.147,11.064c-1.639,1.434-1.844,3.483-3.073,4.507
	c-2.049,3.688-4.098,7.172-6.147,10.45c-5.532,10.86-10.655,22.13-15.163,33.809c-2.254,5.942-4.098,13.114-5.941,18.441
	c-1.025,3.278-1.845,5.941-2.459,9.426c-4.917,17.211-6.966,35.652-8.605,52.864c-1.229,21.104-0.205,41.595,2.254,61.265
	c3.278,17.621,7.376,34.22,13.523,50.61c6.147,15.368,11.884,29.915,18.851,44.464C126.914,413.759,128.348,417.038,130.807,418.473
	"/>
<path fill-rule="evenodd" clip-rule="evenodd" fill="#FFCB05" d="M342.059,405.36c18.031-4.51,37.087-5.943,55.527-7.787
	c7.991-0.411,14.753,1.023,21.925,0.203c-0.614-1.023-1.229-2.252-2.049-3.072c-3.073-4.508-5.737-9.63-8.401-14.343
	c-19.875-4.304-41.39,1.434-61.879,2.05c-6.762,0.204-11.27,3.072-17.417,2.867c-0.819,0.409-0.819,0.616-0.819,0.616
	c0.41,3.276,2.868,4.302,4.097,7.784C336.321,397.573,337.96,402.284,342.059,405.36"/>
<path fill-rule="evenodd" clip-rule="evenodd" fill="#647B98" d="M144.945,403.925c4.303-3.279,6.147-8.4,9.016-12.295
	c1.844-2.868,3.073-6.556,5.122-9.015c1.639-5.943,6.557-11.679,6.762-17.621c-2.049-1.23-3.073-2.869-4.917-3.279
	c-4.713-4.508-9.63-8.401-13.933-12.909c-0.615-1.639-2.664-2.867-3.483-4.302c-4.713-5.532-8.401-11.68-12.499-17.212
	c-5.328-9.425-10.45-20.08-14.138-31.145c-1.024-4.098-3.074-9.015-0.41-11.884c8.401-1.024,15.163,3.279,23.153,4.508
	c6.147,3.074,12.704,4.508,18.646,7.172c3.893,1.229,6.352,3.278,9.835,4.712c2.254,2.049,5.327,2.664,7.786,4.098
	c3.483,1.229,4.917,3.688,7.786,5.329c0.82,0.409,1.844,1.229,2.049,0.614c0.615-2.869,1.229-5.943,2.048-7.991
	c-0.204-3.483,1.845-6.762,1.23-9.631c-4.098-4.507-7.787-8.605-11.065-12.908c-1.024-1.844-2.868-3.073-3.688-4.713
	c-1.844-1.844-3.278-4.507-4.713-6.352c-2.254-5.327-5.941-9.016-7.991-13.933c-2.664-3.279-3.894-6.352-5.737-9.425
	c-4.917-11.885-10.245-23.359-12.294-35.653c-1.229-3.893-1.64-6.966-2.869-10.245c-0.615-5.122-4.508-10.04-1.025-13.728
	c12.909-4.508,26.433-1.024,38.931,1.64c4.508,3.073,9.426,4.097,13.319,6.966c2.048,1.024,3.483,2.049,4.917,3.688
	c0.205-2.253,0.614-6.352-0.205-8.4c-2.664-1.23-3.688-3.483-5.942-3.894c-1.639-2.869-4.712-3.483-6.147-5.533
	c-2.869-2.048-5.123-3.893-7.582-6.147c-1.024-2.049-2.664-2.458-3.688-4.712c-1.844-1.845-2.664-3.279-4.098-4.713
	c-4.098-6.762-9.015-11.68-11.064-19.876c-0.41-0.614-1.024-1.639-1.639-0.819c-3.279,3.073-6.352,6.147-9.221,10.04
	c-2.254,2.459-3.278,5.122-4.917,7.582c-2.458,4.303-4.713,7.376-6.557,11.474c-1.639,3.688-3.483,7.171-5.327,10.86
	c-1.229,2.458-1.434,5.122-2.868,7.17c-2.459,5.943-4.713,12.909-6.762,18.852c-1.639,3.893-2.253,7.786-3.278,11.679
	c-4.712,17.622-7.376,36.268-7.581,54.708c0.614,19.056,2.869,37.497,8.196,55.733c1.229,6.351,3.483,11.679,5.327,17.007
	c1.64,5.122,3.483,10.653,5.533,15.776c0,2.049,1.229,4.098,1.434,5.738c1.844,4.302,3.278,8.4,4.917,12.703
	C138.593,390.606,140.438,398.188,144.945,403.925"/>
<path fill-rule="evenodd" clip-rule="evenodd" fill="#647B98" d="M254.771,399.212c0.41,0,1.229,0,1.639-0.411
	c0-1.843-2.049-1.843-2.663-3.072C253.337,396.343,254.157,398.597,254.771,399.212"/>
<path fill-rule="evenodd" clip-rule="evenodd" fill="#FFCB05" d="M261.738,396.753c2.254,0,4.712-1.436,6.557-1.229
	c2.254-1.025,3.483-2.459,5.737-2.664c-2.254-2.664-5.328-4.714-7.786-7.582c-3.893-3.073-9.425-2.254-13.729-1.639
	c-1.639,4.507,3.279,6.557,4.303,8.811C259.074,393.679,259.074,396.958,261.738,396.753"/>
<path fill-rule="evenodd" clip-rule="evenodd" fill="#FFCB05" d="M495.733,389.991c2.254,0.205,0.614-3.072,1.024-4.508
	c-0.819-8.812-5.123-16.188-8.401-23.563c-1.639-3.072-3.277-5.328-4.916-8.196c-4.1-4.508-7.582-8.4-11.681-11.064
	c-4.508-2.459-7.991-6.352-12.908-7.785c-2.255-2.05-4.508-2.869-6.966-4.304c-6.353-0.82-10.861-3.688-17.213-4.917
	c-2.663-1.23-5.532-1.23-7.786-2.255c-5.122-1.023-11.063-2.459-15.777-3.278c-20.899-2.663-41.185,0.206-61.674,0.41
	c-15.982,0.409-31.554,1.229-45.897-0.41c1.434,4.714,2.049,9.63,4.098,13.523c19.466,2.869,40.161,3.688,59.626,2.049
	c17.416-1.435,34.218-4.508,50.406-0.818c2.868,1.024,5.532,0.204,7.99,1.434c1.845,0.205,3.279,1.023,4.304,1.229
	c4.917,0.41,8.195,3.278,12.089,4.508c5.327,2.663,10.45,6.146,15.367,9.425c4.713,4.303,9.016,8.196,11.885,13.524
	c4.713,4.917,5.327,13.113,7.991,19.055c4.303,2.254,9.63,2.459,13.728,4.713C492.659,389.582,494.299,389.582,495.733,389.991"/>
<path fill-rule="evenodd" clip-rule="evenodd" fill="#647B98" d="M279.154,391.427c3.483-0.411,6.352-1.024,10.04-2.05
	c4.098-1.434,8.811-0.615,11.679-2.458c0.205-3.074-2.459-4.1-2.253-6.353c-9.63-0.205-19.671,0.613-28.891,2.253
	c0.615,1.229,2.664,1.229,3.278,3.075C275.261,387.532,277.105,390.196,279.154,391.427"/>
<path fill-rule="evenodd" clip-rule="evenodd" fill="#647B98" d="M471.146,382c0-4.508-1.435-9.425-4.099-12.704
	c-1.844-2.663-3.278-5.532-5.736-7.581c-2.254-2.663-5.123-4.303-6.762-6.557c-5.738-2.869-9.426-6.146-14.753-8.605
	c-1.844-1.639-4.918-1.435-6.147-3.279c-5.122-0.818-10.04-2.049-14.343-3.073c-0.614,1.845,0.819,3.073,0.409,4.508
	c0.616,2.459,2.05,4.714,2.665,6.967c3.893,7.787,6.146,16.803,12.498,22.335c5.533,0,10.655,1.435,15.572,1.844
	c2.663,0.818,4.919,1.843,7.582,2.663C463.154,379.132,467.047,381.591,471.146,382"/>
<path fill-rule="evenodd" clip-rule="evenodd" fill="#647B98" d="M326.486,381.386c1.435-0.206,1.844-1.434,3.074-1.024
	c2.254-1.024,4.917-1.229,6.762-1.64c-3.893-0.819-7.786-1.435-11.679-1.229C324.437,378.517,325.256,380.771,326.486,381.386"/>
<path fill-rule="evenodd" clip-rule="evenodd" fill="#FFCB05" d="M219.733,381.386c2.254-0.206,5.123,0.614,6.966-0.615
	c0.41-4.713,1.024-9.221,0.41-13.523c-11.68-0.41-23.768-2.664-33.808-7.375c-4.918-2.665-10.655-4.714-15.163-8.197
	c-1.434-1.639-2.869-2.459-4.508-3.483c-6.557-5.736-12.089-11.884-16.597-18.235c-1.639-1.845-2.254-4.303-3.483-5.942
	c-0.82-2.049-1.434-4.099-2.459-5.943c0.206-2.252,0-5.531,1.434-6.351c10.45,0.204,18.851,5.123,26.022,9.631
	c1.435,0.819,2.049,2.663,3.688,2.253c0.82-2.869,2.868-5.533,2.049-7.991c-4.508-2.868-8.196-5.531-12.704-7.991
	c-4.303-2.048-7.991-4.302-12.294-5.736c-3.688-1.024-6.352-3.074-9.835-4.099c-7.582-3.482-16.392-5.327-23.973-7.99
	c-2.049-0.615-3.688-0.82-4.508-0.615c-0.615,4.303,1.844,7.786,2.254,11.475c2.048,4.098,3.277,8.197,5.532,12.089
	c4.303,8.811,9.425,16.802,14.548,24.179c3.688,3.688,5.942,7.376,9.22,10.654c1.025,2.049,2.664,2.049,3.688,3.893
	c1.639,0.819,3.073,2.254,4.303,3.483c3.893,3.895,9.22,6.558,13.523,9.835c2.049,1.23,4.917,2.459,6.761,3.894
	c4.098,1.023,7.172,3.279,10.86,4.713c3.073,0,4.303,2.05,6.147,2.459c1.844,1.229,3.688,1.024,5.327,1.843
	c4.918,1.231,7.991,1.641,12.909,3.074C217.684,380.566,218.299,381.386,219.733,381.386"/>
<path fill-rule="evenodd" clip-rule="evenodd" fill="#FFCB05" d="M348,377.287c9.221-1.434,18.646-2.459,27.866-3.074
	c-3.074-2.048-6.762-2.458-9.22-4.302c-2.049-0.409-3.278-0.615-5.327-1.229c-4.508-1.229-7.787-3.278-12.705-3.278
	c-19.465-5.123-38.521-5.941-57.372-3.688c-13.933,2.049-27.252,1.435-40.161,4.098c0.205,4.508-0.205,8.812,0.82,12.909
	c19.056,0.41,38.726-3.073,57.986-4.918c7.992-1.229,14.958-1.434,22.334-1.024c4.098,0.206,7.787,1.845,12.089,2.254
	C345.952,375.444,346.566,377.083,348,377.287"/>
<path fill-rule="evenodd" clip-rule="evenodd" fill="#647B98" d="M384.882,373.804c6.967-0.204,13.524-0.614,20.491-0.409
	c0.409-1.64-1.64-3.074-1.435-4.917c-1.435-1.641-1.64-3.483-2.459-4.714c-1.024-4.098-2.664-7.785-3.894-11.064
	c-2.253-4.918-3.073-10.244-5.532-14.138c-20.899,1.229-41.389,3.894-61.675,2.049c-7.376,0-14.343-2.253-20.899-1.435
	c0.409,2.869,2.459,5.328,2.869,8.605c1.844,2.664,1.844,6.147,4.303,7.787c14.958,1.023,28.275,3.073,41.799,6.967
	c7.376,2.459,14.958,4.507,21.514,8.194C382.014,371.141,383.039,372.779,384.882,373.804"/>
<path fill-rule="evenodd" clip-rule="evenodd" fill="#FFCB05" d="M225.061,362.125c0.82,0,1.229,0,2.254,0
	c0.82-3.688,2.664-8.812-0.615-11.68c-1.229-2.458-3.278-3.278-4.098-5.327c-3.483-3.483-6.557-8.605-10.655-10.45
	c-1.024,2.869-1.639,6.353-2.458,9.836c2.048,1.024,2.664,3.277,4.507,4.302c2.664,3.279,5.532,6.763,7.787,9.836
	C223.012,360.075,223.832,361.305,225.061,362.125"/>
<path fill-rule="evenodd" clip-rule="evenodd" fill="#647B98" d="M252.313,361.511c11.064-3.483,24.792-1.639,36.062-4.304
	c-2.049-6.146-3.074-12.908-6.557-18.441c-8.811-0.614-16.801-2.663-24.383-4.302c-1.229-0.206-2.254-0.82-3.073-0.41
	c-0.819,3.277-1.229,6.353-1.639,9.425C251.903,349.626,250.264,356.592,252.313,361.511"/>
<path fill-rule="evenodd" clip-rule="evenodd" fill="#647B98" d="M216.66,361.305c0.41,0,1.229,0,1.229-0.614
	c-1.024-1.229-1.639-2.869-3.073-4.099c-2.049-2.868-5.123-4.917-6.557-7.376c-1.434,3.073-2.459,6.557-2.869,9.426
	C209.079,360.69,213.381,359.666,216.66,361.305"/>
<path fill-rule="evenodd" clip-rule="evenodd" fill="#FFCB05" d="M294.112,357.207c5.328-0.204,11.885-0.818,16.393-1.843
	c-3.279-7.787-5.533-15.574-8.606-23.359c-1.025-3.483-1.844-6.967-2.664-10.04c-4.712-17.417-7.171-35.857-10.245-53.274
	c-3.894-18.44-5.738-36.676-9.835-54.093c-0.819-4.508-2.049-9.016-3.073-13.318c-1.025-5.737-2.664-10.245-4.303-15.777
	c-1.639-4.508-2.869-9.016-4.303-13.114c-3.278-9.016-7.581-18.236-11.884-26.842c-2.253-4.508-4.917-8.196-7.376-12.499
	c-4.918-6.762-9.835-13.114-16.187-18.441c-0.819-1.639-2.254-1.639-2.869-3.073c-4.917-3.483-9.835-7.991-14.958-10.859
	c-2.254-1.64-6.147-3.483-8.196-4.099c1.639,6.147,3.278,13.318,5.122,19.67c0.615,2.664,0.205,5.327,2.664,6.352
	c4.713,2.254,7.582,5.327,11.475,7.991c3.278,2.664,6.147,6.147,9.221,9.016c5.122,5.123,9.425,10.245,12.499,15.777
	c5.122,8.196,9.425,17.007,11.679,26.432c1.435,2.049,1.025,4.713,2.05,6.557c4.507,18.031,5.941,36.062,9.834,54.094
	c1.025,14.958,4.303,28.891,5.737,43.439c3.688,15.572,4.713,30.529,9.425,45.896c-0.205,1.435,0.615,2.665,0.615,3.279
	c1.434,3.073,2.049,6.146,3.074,9.016C291.653,348.602,291.858,353.108,294.112,357.207"/>
<path fill-rule="evenodd" clip-rule="evenodd" fill="#FFCB05" d="M200.882,357.412c2.049-6.147,3.688-12.704,5.533-19.875
	c0.614-2.255,0.82-3.894,1.434-6.146c1.024-7.173,3.073-13.729,3.073-19.876c-4.303-3.483-9.016-7.171-13.318-10.449
	c-1.229-1.23-2.459-2.459-3.689-2.664c-1.639,4.712-2.458,9.425-3.893,14.138c-1.229,5.942-3.073,11.27-4.507,16.598
	c-2.458,5.531-4.303,10.449-5.942,15.981c0.205,3.688,3.893,3.483,5.942,5.532C190.842,353.108,195.555,355.568,200.882,357.412"/>
<path fill-rule="evenodd" clip-rule="evenodd" fill="#647B98" d="M229.159,346.553c1.639-4.304,0.41-8.195,1.639-12.499
	c0.41-3.688,2.459-7.376,1.434-9.836c-3.688-1.023-6.146-3.483-9.425-4.917c-1.844-1.639-4.712-2.458-6.352-4.303
	c-0.615,0-1.229,0-1.229,0c0,4.713-2.664,9.631-1.025,14.344c2.458,3.073,6.146,5.326,7.582,7.785
	c1.434,1.639,2.458,3.688,4.098,4.918C227.11,343.684,227.93,345.938,229.159,346.553"/>
<path fill-rule="evenodd" clip-rule="evenodd" fill="#647B98" d="M176.09,342.659c0.819-3.483,2.664-6.967,4.098-11.064
	c0-1.229,1.024-2.664,0.205-3.073c-2.664-1.64-4.918-3.893-7.376-4.713c-3.894-3.074-8.401-4.918-13.319-6.146
	c-1.229,0-2.254-0.615-3.278-0.615c0.41,3.893,2.664,7.171,4.508,10.245c2.254,2.868,4.508,5.532,6.352,8.196
	c1.025,1.435,2.664,1.639,3.279,3.073C172.401,340.2,174.246,342.865,176.09,342.659"/>
<path fill-rule="evenodd" clip-rule="evenodd" fill="#FFCB05" d="M278.949,333.849c0.41-0.205,1.639,0.205,2.049-0.615
	c-1.434-3.483-1.434-7.376-2.869-11.063c-3.074-1.024-7.376,0.205-10.04-1.844c-6.557-1.23-12.089-3.688-17.621-5.942
	c-2.049-0.82-3.483-1.64-5.533-2.46c-5.532-3.278-11.064-5.942-16.187-9.22c-2.869-1.23-4.303-3.688-6.966-4.508
	c-8.811-6.762-17.417-14.138-24.793-22.949c-3.893-3.278-5.532-7.991-8.401-11.679c-2.049-3.894-4.507-7.582-6.352-11.474
	c-2.869-5.943-6.147-11.475-7.581-18.237c-1.435-4.303-3.074-8.605-1.844-12.499c1.639-3.073,5.737-2.254,8.4-2.869
	c5.533,1.23,11.884,0.82,15.368,4.303c1.844-5.123,1.025-12.499,0.41-18.236c-1.639-1.024-2.254-2.459-4.098-3.278
	c-1.64-2.049-5.123-2.664-6.966-4.712c-8.606-3.279-16.597-7.172-26.228-6.967c-4.508-2.049-9.63-1.435-14.958-0.615
	c-1.229,2.869,0.614,5.942,0.614,7.787c2.459,9.426,4.098,18.646,7.376,27.661c1.844,2.049,1.435,4.713,2.664,6.967
	c5.942,14.548,13.318,26.227,21.31,38.726c1.844,1.639,2.253,3.893,4.098,4.713c0.615,2.049,2.049,3.074,3.279,4.507
	c4.507,5.533,10.04,11.27,15.162,16.187c3.688,3.483,7.376,5.737,10.655,8.812c3.483,2.253,6.352,4.917,10.04,6.966
	c2.869,2.254,5.738,3.074,8.606,5.122c7.582,4.099,16.188,8.402,24.793,11.065c6.352,2.869,12.909,3.688,19.261,5.327
	C275.056,332.824,277.311,333.439,278.949,333.849"/>
<path fill-rule="evenodd" clip-rule="evenodd" fill="#647B98" d="M333.042,316.843c17.622-0.205,35.243-2.459,52.864-3.075
	c0.411-1.844-1.024-2.867-1.024-4.916c-2.458-6.967-2.663-15.163-3.688-21.515c-7.991,6.967-19.875,9.016-30.326,7.376
	c-6.557-1.844-12.293-3.688-17.622-6.146c-2.664-2.05-5.327-2.459-6.966-4.713c-4.508-2.869-7.376-7.376-10.45-11.065
	c-3.279-4.507-4.713-9.425-6.762-14.957c-2.254-10.04-1.435-22.129,5.532-28.481c1.23-0.615,1.64-0.82,2.459-2.049
	c-10.245-1.229-20.49-2.458-30.94-5.737c0.819,11.27,3.688,22.949,5.123,33.398c3.278,18.646,5.737,36.473,9.63,54.503
	c1.229,2.255,0,4.509,1.844,5.533C313.168,316.228,323.002,316.843,333.042,316.843"/>
<path fill-rule="evenodd" clip-rule="evenodd" fill="#FFCB05" d="M403.733,314.588c1.844-0.614,0-2.868,0.409-4.098
	c-3.893-9.425-5.531-20.285-6.966-29.915c-1.64-5.737-1.229-11.27-2.664-16.393c-0.41,7.581-6.557,12.294-7.786,19.261
	c-0.615,7.376,0.614,14.547,2.048,21.719c1.025,2.664,0.615,5.942,2.869,7.992C395.742,314.588,400.045,314.179,403.733,314.588"/>
<path fill-rule="evenodd" clip-rule="evenodd" fill="#647B98" d="M276.286,317.457c1.844-3.689-1.229-9.836-1.435-14.138
	c-1.024-2.458,0-4.713-1.434-6.557c-1.64-13.933-4.303-27.866-6.353-41.185c-1.229-13.114-3.278-26.022-5.941-38.726
	c-5.328-1.024-10.86-2.459-16.392-4.098c-2.664-2.048-6.147-2.253-9.426-3.279c-2.253-1.229-4.508-2.663-7.171-2.868
	c-1.435-0.409-2.664-2.049-3.893-1.229c0.615,4.098,0,8.811,0.41,12.909c5.328,3.278,9.63,8.811,13.523,13.523
	c0.615,2.254,2.459,3.483,2.869,5.122c2.869,3.279,4.098,7.377,6.557,11.065c7.99,16.802,9.63,36.267,9.63,54.094
	c-0.205,3.279-1.434,6.556-1.024,9.63C263.172,314.179,269.319,316.022,276.286,317.457"/>
<path fill-rule="evenodd" clip-rule="evenodd" fill="#FFCB05" d="M251.698,309.465c2.664-15.982,0.615-32.783-4.303-49.38
	c-0.82-2.664-1.845-4.508-3.074-7.377c-1.229-3.073-2.869-4.917-4.098-7.991c-1.844-2.254-2.458-5.123-4.507-7.376
	c-0.615-2.049-2.254-3.278-3.279-4.917c-2.869-3.483-5.327-5.327-7.581-8.196c-0.205,5.737-2.459,14.548,1.229,19.67
	c2.049,1.435,2.254,3.073,3.278,4.098c1.434,2.664,2.049,4.099,3.483,6.557c2.869,5.941,5.122,12.499,6.557,19.056
	c1.844,10.245-0.41,21.924,1.639,30.735c2.459,1.434,4.713,2.663,7.171,3.688C249.239,308.852,250.469,309.056,251.698,309.465"/>
<path fill-rule="evenodd" clip-rule="evenodd" fill="#647B98" d="M235.511,300.86c2.049-8.197,0.819-18.647-1.024-27.457
	c-0.615-4.098-1.639-7.172-3.278-10.655c-2.254-5.532-4.918-10.04-7.376-14.547c0,14.138-1.844,29.916-1.025,44.053
	c3.483,2.664,6.967,4.917,10.041,7.172C234.076,300.04,234.691,300.655,235.511,300.86"/>
<path fill-rule="evenodd" clip-rule="evenodd" fill="#FFCB05" d="M355.377,290.41c5.737,0.205,10.86-0.819,16.597-2.869
	c3.688-2.253,6.762-4.509,9.631-7.376c2.049-2.664,3.278-4.918,4.917-7.172c2.663-4.508,2.868-10.04,4.303-14.752
	c0.615-4.917,0.41-10.245-0.41-14.343c-1.435-5.942-4.303-11.064-7.376-14.958c-3.483-3.688-6.967-6.146-10.45-8.605
	c-9.835-5.532-21.924-8.811-33.603-10.45c-6.352-2.664-14.139-1.434-20.9-4.098c-12.908-2.459-26.227-3.074-37.497-7.991
	c-0.41,1.229,0.41,3.073,0.615,4.098c1.845,5.327,1.024,10.86,3.893,14.958c3.688,1.024,7.171,1.435,10.04,3.073
	c6.147,1.435,12.089,0.615,18.032,1.845c18.236,1.639,36.677,1.024,54.708,7.171c4.303,2.664,8.4,5.942,11.064,10.04
	c1.024,1.64,1.229,3.688,2.458,5.123c1.64,4.917,1.64,9.835,0.41,14.753c-1.844,5.327-4.917,8.196-8.605,12.294
	c-6.967,5.123-16.392,6.762-24.793,4.508c-2.254-1.435-4.303-2.459-5.942-3.483c-3.073-2.049-6.557-4.508-8.196-7.376
	c-3.688-6.557-6.352-14.344-4.713-22.13c1.844-6.146,4.713-11.064,9.63-13.933c-6.967-1.024-15.163-2.458-20.9,2.255
	c-1.435,1.844-2.664,3.278-3.893,5.122c-4.098,9.835-1.229,22.129,3.278,31.145c1.024,1.435,2.049,3.074,3.279,4.304
	c2.254,4.098,6.557,7.786,10.04,10.449C338.78,285.902,346.361,288.975,355.377,290.41"/>
<path fill-rule="evenodd" clip-rule="evenodd" fill="#FFCB05" d="M217.274,287.746c0.82-14.548,1.844-30.12,1.435-44.873
	c0.819-13.729,1.843-28.892-0.41-40.98c-1.229-0.819-2.664-0.819-3.688-2.049c-4.917-1.229-7.991-4.713-12.704-5.327
	c0.615,19.261,1.025,38.316-0.41,57.986c0,7.171-3.073,14.548-0.205,20.081c1.64,1.639,2.664,3.278,4.508,4.712
	c1.639,2.049,3.279,3.279,5.123,5.328c1.844,1.024,2.664,3.278,4.713,3.688C216.455,286.722,216.25,288.156,217.274,287.746"/>
<path fill-rule="evenodd" clip-rule="evenodd" fill="#E38C44" d="M355.172,271.969c1.229,0,2.868,0.615,3.893-0.409
	c-1.229-1.64-3.893-1.845-4.508-4.508c-3.483-4.713-0.41-12.909-4.508-15.982c-3.893-0.205-8.606-1.024-11.27,2.049
	c-1.639,1.844-2.459,4.508-1.639,7.172c2.458,4.098,5.737,6.146,8.811,8.605C349.64,269.92,351.689,271.56,355.172,271.969"/>
<path fill-rule="evenodd" clip-rule="evenodd" fill="#E38C44" d="M362.139,268.69c3.277-0.205,6.966-0.205,9.63-2.049
	c-5.737-0.819-10.449-2.459-14.548-6.557c-0.41-0.615-0.41-1.024-0.82-1.434c-0.41,2.048,0.41,5.532,2.049,7.376
	C360.09,266.437,360.704,268.281,362.139,268.69"/>
<path fill-rule="evenodd" clip-rule="evenodd" fill="#E38C44" d="M368.9,261.929c3.074,0.205,5.533-1.639,7.376-3.894
	c3.074-3.277,1.435-6.966,1.64-10.859c-0.82-2.459-1.845-3.483-3.074-5.942c-1.639-1.229-1.845-2.869-3.893-4.508
	c-0.82,4.508-1.229,10.245-5.123,12.499c-2.664,1.64-4.713,3.074-7.787,4.303C359.68,258.445,363.983,260.494,368.9,261.929"/>
<path fill-rule="evenodd" clip-rule="evenodd" fill="#647B98" d="M195.76,264.183c1.229-11.679,2.049-24.178,1.639-35.652
	c-5.327-4.098-13.318-4.917-20.08-5.123c0.205,7.582,3.893,14.548,6.762,21.72c2.868,5.532,5.532,10.45,8.401,15.367
	C194.121,261.52,193.916,263.978,195.76,264.183"/>
<path fill-rule="evenodd" clip-rule="evenodd" fill="#E38C44" d="M334.477,251.684c1.639-2.049,3.483-3.688,6.557-4.303
	c2.458-0.614,4.713,0.205,6.557-1.024c-1.434-1.64-5.123-1.844-7.171-3.483c-2.253-0.206-4.713-1.435-6.147,0.41
	C333.453,246.151,333.453,249.84,334.477,251.684"/>
<path fill-rule="evenodd" clip-rule="evenodd" fill="#E38C44" d="M358.656,248.405c1.844-0.205,2.253-1.435,3.688-1.844
	c3.073-3.278,4.508-8.606,2.868-12.704c-1.434-1.843-3.482-1.434-5.122-2.049c0.41,4.917,1.23,10.246-1.024,14.958
	C358.246,247.176,357.836,248.815,358.656,248.405"/>
<path fill-rule="evenodd" clip-rule="evenodd" fill="#E38C44" d="M352.918,245.127c0.819-0.82,2.458,0,2.868-1.23
	c0.615-3.893,1.845-8.196-0.819-10.859c-2.869-2.048-5.737-5.328-10.041-3.074c-2.458,2.254-5.737,2.869-7.376,5.533
	c-0.409,0.819-1.639,1.639-1.229,2.663C342.468,238.366,348.82,241.438,352.918,245.127"/>
<path fill-rule="evenodd" clip-rule="evenodd" fill="#FFCB05" d="M257.435,211.729c0.82-0.206,2.254,0.819,2.869-0.41
	c-0.82-6.147-1.024-13.114-3.894-17.417c-2.663-0.41-4.303-1.229-6.557-1.844c-4.713-1.844-9.22-3.278-13.114-5.532
	c-8.4-2.87-15.572-6.967-22.334-10.861c-2.253-1.639-4.917-2.458-7.171-4.507c-3.279-1.434-5.123-4.098-8.196-5.737
	c-3.073-3.073-7.376-6.146-10.245-9.016c-3.279-1.844-4.508-5.737-5.533-8.81c0.82-3.689-2.049-5.942-4.508-7.787
	c-3.279-3.278-8.401-3.073-12.909-2.049c-1.844,1.025-3.483,0.409-4.303,2.049c1.229,4.713,3.073,9.016,5.123,12.704
	c1.024,1.434,1.844,2.254,2.253,3.688c1.844,3.073,3.688,5.532,5.533,8.195c3.483,4.712,6.967,8.606,11.679,11.885
	c3.893,2.868,6.762,5.532,10.04,7.581c1.024,2.254,3.893,2.049,4.712,3.894c5.123,2.663,9.63,5.941,14.958,7.581
	c2.254,2.049,5.533,2.459,8.196,3.893c2.459,1.639,4.713,2.664,7.991,3.688c4.508,2.049,7.786,3.074,12.704,4.508
	C248.419,210.089,254.157,209.065,257.435,211.729"/>
<path fill-rule="evenodd" clip-rule="evenodd" fill="#647B98" d="M254.977,188.575c0.819-2.254-1.229-5.327-1.435-8.196
	c-5.942-15.777-12.704-27.661-23.769-39.136c-2.869-3.074-5.123-4.713-7.581-7.172c-2.869-1.229-5.737-4.917-8.196-5.123
	c6.352,15.164,0.615,38.317,12.909,48.357C236.535,181.403,244.731,185.707,254.977,188.575"/>
<rect x="48.028" y="550.223" fill-rule="evenodd" clip-rule="evenodd" fill="#FFCB05" width="10.86" height="10.86"/>
<rect x="48.028" y="550.223" fill="none" stroke="#000000" stroke-width="5.7372" stroke-linecap="round" stroke-miterlimit="2.6131" width="10.86" height="10.86"/>
<rect x="87.983" y="551.861" fill-rule="evenodd" clip-rule="evenodd" fill="#FFCB05" width="10.86" height="10.86"/>
<rect x="87.983" y="551.861" fill="none" stroke="#000000" stroke-width="5.7372" stroke-linecap="round" stroke-miterlimit="2.6131" width="10.86" height="10.86"/>
<rect x="127.938" y="551.861" fill-rule="evenodd" clip-rule="evenodd" fill="#FFCB05" width="10.86" height="10.86"/>
<rect x="127.938" y="551.861" fill="none" stroke="#000000" stroke-width="5.7372" stroke-linecap="round" stroke-miterlimit="2.6131" width="10.86" height="10.86"/>
<rect x="167.894" y="551.861" fill-rule="evenodd" clip-rule="evenodd" fill="#FFCB05" width="10.859" height="10.86"/>
<rect x="167.894" y="551.861" fill="none" stroke="#000000" stroke-width="5.7372" stroke-linecap="round" stroke-miterlimit="2.6131" width="10.859" height="10.86"/>
<rect x="207.85" y="551.861" fill-rule="evenodd" clip-rule="evenodd" fill="#FFCB05" width="10.86" height="10.86"/>
<rect x="207.85" y="551.861" fill="none" stroke="#000000" stroke-width="5.7372" stroke-linecap="round" stroke-miterlimit="2.6131" width="10.86" height="10.86"/>
<rect x="247.805" y="551.861" fill-rule="evenodd" clip-rule="evenodd" fill="#FFCB05" width="10.86" height="10.86"/>
<rect x="247.805" y="551.861" fill="none" stroke="#000000" stroke-width="5.7372" stroke-linecap="round" stroke-miterlimit="2.6131" width="10.86" height="10.86"/>
<rect x="287.759" y="551.861" fill-rule="evenodd" clip-rule="evenodd" fill="#FFCB05" width="10.861" height="10.86"/>
<rect x="287.759" y="551.861" fill="none" stroke="#000000" stroke-width="5.7372" stroke-linecap="round" stroke-miterlimit="2.6131" width="10.861" height="10.86"/>
<rect x="327.51" y="551.861" fill-rule="evenodd" clip-rule="evenodd" fill="#FFCB05" width="10.86" height="10.86"/>
<rect x="327.51" y="551.861" fill="none" stroke="#000000" stroke-width="5.7372" stroke-linecap="round" stroke-miterlimit="2.6131" width="10.86" height="10.86"/>
<rect x="367.466" y="551.861" fill-rule="evenodd" clip-rule="evenodd" fill="#FFCB05" width="10.859" height="10.86"/>
<rect x="367.466" y="551.861" fill="none" stroke="#000000" stroke-width="5.7372" stroke-linecap="round" stroke-miterlimit="2.6131" width="10.859" height="10.86"/>
<rect x="407.422" y="551.861" fill-rule="evenodd" clip-rule="evenodd" fill="#FFCB05" width="10.86" height="10.86"/>
<rect x="407.422" y="551.861" fill="none" stroke="#000000" stroke-width="5.7372" stroke-linecap="round" stroke-miterlimit="2.6131" width="10.86" height="10.86"/>
<rect x="447.376" y="551.861" fill-rule="evenodd" clip-rule="evenodd" fill="#FFCB05" width="10.861" height="10.86"/>
<rect x="447.376" y="551.861" fill="none" stroke="#000000" stroke-width="5.7372" stroke-linecap="round" stroke-miterlimit="2.6131" width="10.861" height="10.86"/>
<rect x="487.332" y="551.861" fill-rule="evenodd" clip-rule="evenodd" fill="#FFCB05" width="10.859" height="10.86"/>
<rect x="487.332" y="551.861" fill="none" stroke="#000000" stroke-width="5.7372" stroke-linecap="round" stroke-miterlimit="2.6131" width="10.859" height="10.86"/>
<rect x="46.184" y="112.352" fill-rule="evenodd" clip-rule="evenodd" fill="#FFCB05" width="10.86" height="10.86"/>
<rect x="46.184" y="112.352" fill="none" stroke="#000000" stroke-width="5.7372" stroke-linecap="round" stroke-miterlimit="2.6131" width="10.86" height="10.86"/>
<rect x="46.184" y="152.308" fill-rule="evenodd" clip-rule="evenodd" fill="#FFCB05" width="10.86" height="10.859"/>
<rect x="46.184" y="152.308" fill="none" stroke="#000000" stroke-width="5.7372" stroke-linecap="round" stroke-miterlimit="2.6131" width="10.86" height="10.859"/>
<rect x="46.184" y="192.263" fill-rule="evenodd" clip-rule="evenodd" fill="#FFCB05" width="10.86" height="10.86"/>
<rect x="46.184" y="192.263" fill="none" stroke="#000000" stroke-width="5.7372" stroke-linecap="round" stroke-miterlimit="2.6131" width="10.86" height="10.86"/>
<rect x="46.184" y="232.218" fill-rule="evenodd" clip-rule="evenodd" fill="#FFCB05" width="10.86" height="10.86"/>
<rect x="46.184" y="232.218" fill="none" stroke="#000000" stroke-width="5.7372" stroke-linecap="round" stroke-miterlimit="2.6131" width="10.86" height="10.86"/>
<rect x="46.184" y="272.174" fill-rule="evenodd" clip-rule="evenodd" fill="#FFCB05" width="10.86" height="10.859"/>
<rect x="46.184" y="272.174" fill="none" stroke="#000000" stroke-width="5.7372" stroke-linecap="round" stroke-miterlimit="2.6131" width="10.86" height="10.859"/>
<rect x="46.184" y="311.924" fill-rule="evenodd" clip-rule="evenodd" fill="#FFCB05" width="10.86" height="10.86"/>
<rect x="46.184" y="311.924" fill="none" stroke="#000000" stroke-width="5.7372" stroke-linecap="round" stroke-miterlimit="2.6131" width="10.86" height="10.86"/>
<rect x="46.184" y="351.879" fill-rule="evenodd" clip-rule="evenodd" fill="#FFCB05" width="10.86" height="11.066"/>
<rect x="46.184" y="351.879" fill="none" stroke="#000000" stroke-width="5.7372" stroke-linecap="round" stroke-miterlimit="2.6131" width="10.86" height="11.066"/>
<rect x="46.184" y="391.835" fill-rule="evenodd" clip-rule="evenodd" fill="#FFCB05" width="10.86" height="11.064"/>
<rect x="46.184" y="391.835" fill="none" stroke="#000000" stroke-width="5.7372" stroke-linecap="round" stroke-miterlimit="2.6131" width="10.86" height="11.064"/>
<rect x="46.184" y="431.996" fill-rule="evenodd" clip-rule="evenodd" fill="#FFCB05" width="10.86" height="10.858"/>
<rect x="46.184" y="431.996" fill="none" stroke="#000000" stroke-width="5.7372" stroke-linecap="round" stroke-miterlimit="2.6131" width="10.86" height="10.858"/>
<rect x="46.184" y="471.95" fill-rule="evenodd" clip-rule="evenodd" fill="#FFCB05" width="10.86" height="10.86"/>
<rect x="46.184" y="471.95" fill="none" stroke="#000000" stroke-width="5.7372" stroke-linecap="round" stroke-miterlimit="2.6131" width="10.86" height="10.86"/>
<rect x="46.184" y="511.906" fill-rule="evenodd" clip-rule="evenodd" fill="#FFCB05" width="10.86" height="10.859"/>
<rect x="46.184" y="511.906" fill="none" stroke="#000000" stroke-width="5.7372" stroke-linecap="round" stroke-miterlimit="2.6131" width="10.86" height="10.859"/>
<g>
</g>
<g>
</g>
<g>
</g>
<g>
</g>
<g>
</g>
<g>
</g>
</svg>
