<?xml version="1.0" encoding="utf-8"?>
<!-- Generator: Adobe Illustrator 16.0.4, SVG Export Plug-In . SVG Version: 6.00 Build 0)  -->
<!DOCTYPE svg PUBLIC "-//W3C//DTD SVG 1.1//EN" "http://www.w3.org/Graphics/SVG/1.1/DTD/svg11.dtd">
<svg version="1.1" id="Layer_1" xmlns="http://www.w3.org/2000/svg" xmlns:xlink="http://www.w3.org/1999/xlink" x="0px" y="0px"
	 width="615.214px" height="612px" viewBox="0 0 615.214 612" enable-background="new 0 0 615.214 612" xml:space="preserve">
<g>
	<path fill-rule="evenodd" clip-rule="evenodd" d="M597.301,0.098c4.11,0.822,8.017,3.083,10.277,6.578
		c5.55,6.578,6.167,16.444,7.399,24.872c1.028,16.651-1.232,36.178-8.222,50.771c-3.083,4.729-5.756,10.279-10.072,13.773
		c-2.466,1.646-3.29,4.317-6.372,4.728c-3.906,3.905-10.277,4.521-14.388,6.989c-7.402,1.438-14.801,0.822-21.584-0.411
		c-3.906-2.673-9.046-3.495-12.949-5.756c-4.523-1.028-7.607-5.14-11.307-7.4c-3.906-4.11-8.839-7.194-12.129-11.099
		c-2.466-0.411-5.138-1.645-6.989-0.411c1.645,2.877,5.347,3.905,7.402,6.577c5.549,3.906,8.837,11.306,7.398,18.295
		c-1.645,5.961-2.261,11.511-5.344,15.417c-2.879,3.494-7.812,5.549-12.129,6.166c-6.987,1.44-13.566,0.411-18.499-3.289
		c-4.317-3.701-7.812-9.25-6.784-15.211c1.439-4.11,3.083-7.606,5.551-10.688c1.85-1.85,4.11-3.084,5.96-4.523
		c6.373-1.644,13.979-2.261,16.65,3.495c2.673,5.138,3.289,10.688,0.411,15.417c-1.438,2.261-4.11,2.466-5.344,3.905
		c-3.905,1.028-7.194,0.206-9.866-1.85c-2.263-2.261-3.495-6.373-2.468-9.456c1.644-2.878,4.111-4.317,6.989-4.934
		c1.644,0.411,1.85,1.233,2.468,2.671c0,2.879-4.729,1.646-4.729,4.112c-0.206,2.056,0.616,3.905,1.85,4.729
		c2.261,0,5.55,0.617,6.167-0.618c2.877-2.261,2.877-6.577,2.468-9.867c-2.468-2.877-5.756-5.138-9.663-4.729
		c-5.55,1.235-9.044,4.729-11.099,9.457c-0.411,5.96,2.055,11.1,5.138,13.977c5.551,3.907,12.95,3.701,18.501,0.824
		c1.438-2.057,3.494-2.879,4.933-4.523c3.699-3.905,3.699-10.072,3.084-15.211c-1.644-3.288-2.468-6.783-4.729-8.839
		c-0.822-2.055-3.082-2.466-3.904-3.494c-2.674-1.646-5.346-2.468-7.607-3.701c-2.672-0.822-5.344-1.644-7.81-1.644
		c-14.801-3.906-30.012-2.055-44.399-3.906c-20.557-0.411-40.291,0.412-60.436,0.823c-21.171,0.411-41.726-0.617-62.077-0.617
		c-20.556-0.411-40.906,0.206-60.638,0.206c-21.173,1.028-41.111-0.206-61.462,0.615c-20.966-0.204-40.906,0-61.667,0.207
		c-12.127-0.207-25.283-0.411-36.383-0.617c-9.866,1.644-20.967,0.41-30.628,0c-0.206,20.144,0.617,40.495,0,60.844
		c0.411,21.173-0.206,41.111,0.411,61.462c-0.617,20.966,0.618,41.522-0.411,61.666c0.822,11.717-0.206,22.406,0.411,33.094
		c-0.411,20.351,0.206,40.906-0.206,61.051c0.411,20.966-0.206,41.11,0.617,61.46c-0.206,5.756-0.411,10.688-0.411,15.828
		c0.206,20.763-1.233,40.495,0.206,61.257c0.206,4.11,2.057,5.959,3.29,9.25c2.261,1.645,2.466,4.11,4.727,5.548
		c2.262,2.88,5.551,3.495,8.84,5.14c8.017,2.466,15.827-0.204,21.171-5.755c2.879-4.11,4.934-10.279,1.85-15.212
		c-1.027-2.262-3.083-4.932-5.96-5.754c-4.317-1.233-8.224-0.822-12.334,1.233c-1.644,2.67-4.11,4.521-3.906,7.81
		c0.411,2.466,0.618,5.14,1.851,6.579c2.261,1.438,4.934,2.056,6.988,1.438c2.467-1.233,3.906-2.26,4.934-4.726
		c0.617-2.88-1.438-4.729-2.466-5.962c-2.467-1.235-3.906,0.615-5.756,0.204c-0.206-1.232,0.617-2.055,1.234-3.084
		c2.466-0.822,5.344-0.615,7.193,0.618c2.879,2.466,3.495,5.961,2.673,9.25c-0.207,3.906-3.495,4.729-5.756,6.783
		c-3.496,1.438-7.606,0.822-10.484-0.618c-2.055-1.437-4.521-2.67-4.933-5.137c-2.261-6.579-0.206-13.978,4.11-18.088
		c4.317-3.906,11.101-4.317,16.446-2.47c2.261,1.029,3.289,2.47,5.549,2.878c5.139,4.317,7.605,12.13,7.194,18.913
		c-0.206,4.11-2.261,6.784-3.494,9.043c-3.701,4.729-7.812,6.579-13.156,7.401c-6.578,2.671-12.744-1.851-18.911-2.88
		c-3.495-2.877-7.4-4.933-9.867-8.836c-0.412-0.414-0.823-0.414-0.823-0.414c-0.617,2.47-1.233,7.194,0.207,9.868
		c4.316,0.411,6.166,3.084,9.661,4.317c4.316,2.877,8.222,5.961,10.894,9.661c6.167,7.605,10.277,19.321,8.222,30.011
		c-1.644,6.373-3.495,12.335-7.4,17.267c0,2.26-2.261,2.467-2.466,3.904c-3.906,4.728-8.633,8.017-13.156,11.512
		c-2.055,1.232-4.316,2.055-5.754,3.291c-4.934,1.849-9.046,3.492-13.979,4.726c-2.673,0.618-4.934,1.44-7.605,1.851
		c-16.855,3.906-36.794,4.111-53.24-2.055c-4.933-4.729-5.139-12.745-3.699-19.118c1.438-1.644,2.055-4.317,3.288-5.754
		c2.262-4.113,4.729-6.784,6.373-10.69c1.233-1.028,1.028-2.055,1.645-3.084c0.616-2.466,2.056-4.317,2.672-5.962
		c3.905-10.482,5.55-21.581,5.755-32.478c2.672-21.581,2.056-41.932,1.645-62.897l-0.822-443.18l503.201-0.411
		c17.267-3.906,31.656-3.495,48.512-12.333c2.466-1.028,3.906-1.645,6.372-2.261C584.146,3.798,590.312-0.724,597.301,0.098"/>
	<path fill-rule="evenodd" clip-rule="evenodd" fill="#00A651" d="M594.012,5.031c4.521-0.822,7.399,2.056,9.661,4.317
		c1.85,3.495,4.315,6.784,4.522,10.483c3.494,18.5,2.26,38.028-3.289,55.295c-1.028,3.083-2.672,5.138-3.906,8.222
		c-2.261,2.261-2.878,4.521-4.728,6.167c-2.673,4.932-6.372,7.194-10.482,9.866c-11.307,6.373-25.694,6.167-37.617,1.233
		c-2.261-1.027-3.496-1.644-5.346-2.671c-2.261-2.673-5.754-2.262-6.989-4.934c-3.493-2.877-8.017-5.961-10.481-8.633
		c-2.673-1.438-3.7-4.112-6.579-5.14c-1.233-1.438-3.083-1.027-3.905-1.85c-20.351-0.822-40.905,0.206-60.845,0
		c-21.172-0.206-40.906,0.206-61.05,0.822c-21.171-0.617-41.935,0-62.283-0.206c-20.762-0.617-40.496,0.617-60.845,0.822
		c-20.967,0.206-41.316-0.411-61.667,0.206c-21.171,0-41.111,0.205-61.46,0.411c-21.173-0.206-41.522,0.206-62.079-0.411
		c-3.494,0.411-7.194-1.85-9.25,0.616c-0.411,20.146-0.822,40.083-0.617,59.612c0.411,4.727-0.206,8.837,0.206,13.36
		c-0.206,20.556,0.206,41.111-0.206,61.256c0.411,21.171,0.206,41.111,0,61.666c0.411,9.046-0.206,17.061-0.206,25.49
		c0.206,20.349,0.411,40.906,0,61.049c0,20.968,0.411,40.906,0.411,61.257c0,21.171-0.617,41.727-0.206,61.87
		c1.027,13.363-2.877,28.575,1.85,39.058c7.811,2.878,13.773,6.577,18.705,11.512c1.645,2.878,3.496,4.315,4.729,6.988
		c2.466,3.495,3.083,6.783,4.112,11.101c1.028,7.81-0.411,15.209-3.906,21.377c-2.055,4.11-4.729,8.428-7.195,11.51
		c-3.699,3.291-7.811,5.139-10.894,7.812c-1.646,1.851-4.934,2.466-6.578,3.906c-5.962,2.67-11.923,4.11-17.883,6.165
		c-13.978,3.085-29.189,3.085-43.373,0.618c-5.756-0.822-8.633-4.524-10.073-9.457c-0.411-4.11,0.411-7.81,2.467-10.275
		c3.494-6.376,7.194-11.513,9.866-17.678c8.428-17.681,10.483-37.413,11.511-55.298L27.293,28.259l476.686,1.233
		c9.866-0.206,19.527,1.028,28.571-1.85c4.11,0,9.457-1.851,13.979-2.262c4.934-1.438,9.866-2.466,13.979-4.316
		c7.192-0.617,12.743-4.728,17.883-7.399c1.85-2.262,4.729-2.878,6.371-4.729C588.462,7.909,590.517,5.648,594.012,5.031"/>
	<path fill-rule="evenodd" clip-rule="evenodd" d="M584.35,21.476c3.084,0,6.989-0.411,8.84,2.261
		c2.878,3.289,3.494,7.605,4.521,11.922c0.206,8.017-0.205,15.211-1.85,22.611c-3.495,9.456-8.017,17.883-15.417,23.434
		c-1.232,2.672-4.111,2.672-5.549,4.933c-2.673,1.233-4.934,1.85-7.196,2.879c-10.071,2.877-18.705-1.646-24.872-6.989
		c-0.82-2.468-3.493-2.468-4.521-4.523c-3.495-2.055-4.522-5.756-7.399-8.428c-0.617-2.261-3.29-0.411-5.14-2.055L64.294,65.876
		l-1.851,458.801c-2.261,1.438-4.11,3.495-3.905,6.166c0.616,3.699,5.138,3.288,5.961,5.754c7.4,2.881,12.744,5.962,16.855,11.719
		c1.644,2.467,2.466,4.726,3.494,6.577c1.028,2.056,0.822,3.906,1.85,5.344c1.233,10.074-2.877,19.117-9.661,23.846
		c-5.55,3.906-11.305,5.962-18.5,8.017c-12.951,3.082-27.134,3.906-39.467,0.204c-0.822-1.233-1.027-2.466-0.411-3.081
		c3.083-3.699,4.317-8.635,6.784-12.541c3.699-8.836,7.194-17.471,9.044-26.721c3.083-11.923,2.877-22.816,2.466-34.947
		l2.261-476.271h485.113c13.566-0.617,25.488-3.083,37.822-6.372c3.289-2.056,6.784-3.083,10.483-4.728
		c3.083-1.028,4.727-2.672,7.4-3.7C581.473,22.709,582.912,22.092,584.35,21.476"/>
	<path fill-rule="evenodd" clip-rule="evenodd" fill="#ADBC72" d="M585.173,25.381c2.672-0.411,5.139,1.028,6.166,3.083
		c3.7,11.1,2.468,23.639-2.466,34.944c-1.645,4.112-3.7,7.195-6.373,10.896c-3.288,3.288-6.576,5.96-10.483,8.015
		c-5.756,2.468-11.099,5.14-16.649,3.495c-2.261-2.261-6.167-2.055-7.4-4.727c-4.933-3.084-8.839-7.4-11.922-11.307
		c-2.262-4.521-2.262-6.989-6.988-9.044c-13.362,1.439-24.667,0.822-37.207,1.233L59.565,61.765l-0.617,451.401
		c0.206,2.262,1.028,6.165,0.206,8.017c-3.288,2.466-5.345,5.962-4.728,10.072c0.616,2.262,2.467,3.699,3.084,5.139
		c1.644,1.645,3.289,2.467,4.933,3.7c3.495,1.232,5.961,2.877,8.633,4.316c1.646,2.671,4.728,3.085,6.167,5.551
		c4.112,4.521,6.989,11.509,5.961,17.678c-0.822,2.055-0.411,3.906-1.85,4.729c-0.411,2.055-1.851,3.699-2.879,4.726
		c-2.055,2.469-4.521,4.113-6.989,5.961c-14.183,6.169-31.655,8.428-46.867,5.962c0.411-2.673,1.851-5.551,2.878-8.428
		c1.234-1.233,1.028-2.67,2.262-3.906c3.083-6.988,5.755-14.594,7.811-21.788c1.644-8.017,4.934-17.474,4.934-25.076l1.644-485.936
		l451.4-0.617c17.885,1.439,35.769-0.206,52.829-3.701c5.551-0.822,9.866-2.672,15.417-4.11c2.672-2.056,7.605-1.851,9.866-4.522
		C578.184,29.492,580.855,27.026,585.173,25.381"/>
	<path fill-rule="evenodd" clip-rule="evenodd" d="M326.378,85.609c19.527-0.205,39.671,1.233,58.789,4.934
		c10.483,1.028,18.911,4.521,28.777,6.577c6.167,2.673,13.772,3.701,19.118,7.195c3.495,0.616,6.372,1.44,9.249,2.878
		c3.7,2.261,8.018,2.466,11.102,5.344c6.165,1.646,10.277,5.345,16.238,7.4c1.439,1.233,2.878,2.261,4.933,2.468
		c4.523,3.289,10.277,6.371,15.006,9.25c2.878,1.438,4.933,3.494,7.4,4.316c3.905,3.084,7.604,5.139,10.688,7.811
		c3.494,1.438,4.523,3.701,7.4,5.345c3.904,3.494,7.4,6.373,10.896,9.455c4.315,4.11,8.428,7.195,11.921,11.1
		c4.728,3.701,7.399,6.989,11.306,11.717c3.083,4.11,6.372,8.017,9.044,12.127c1.233,1.644,2.056,3.495,1.233,4.728
		c-7.194,3.905-16.239,5.344-22.61,8.839c-2.673,0.411-4.934,1.028-6.783,1.439c-5.756,3.288-12.129,4.317-17.883,6.783
		c-3.29,0.822-6.784,1.645-9.457,2.466c-0.41,5.961-1.438,12.129-2.878,17.061c-1.232,1.644-1.438,3.496-2.055,4.934
		c-0.616,2.261-1.438,2.877-1.85,4.521c-1.852,4.729-4.317,8.633-6.784,12.334c-2.055,3.699-5.139,6.989-8.017,9.866
		c-1.85,0.822-2.466,2.672-4.729,3.29c-3.082,3.699-8.017,6.166-11.716,8.839c-2.673,1.233-4.934,2.671-7.4,3.494
		c-4.317,2.468-9.455,3.494-14.389,5.345c-3.494,0.411-6.784,2.055-9.866,2.466c-3.7,1.85-7.606,2.057-11.511,3.083
		c-3.29,1.851-8.223,0.822-10.896,2.878c-5.962,16.65-7.812,35.766-10.483,53.033c-1.438,6.167-1.644,11.513-3.906,17.68
		c-0.41,1.027-0.617,1.85-0.617,2.466c-1.85,5.14-3.494,9.455-6.166,13.36c-3.496,5.14-9.044,8.84-13.156,11.718
		c-5.756,3.288-10.894,5.139-17.267,6.988c-4.112,1.028-8.633,2.261-12.54,2.878c-5.14,1.85-10.483,2.466-15.416,2.877
		c-9.045,2.468-17.884,2.672-26.312,4.934c-5.756,0.617-11.1,2.261-16.65,2.878c-3.494,1.234-5.756,2.468-9.044,3.7
		c-1.439,3.494-1.645,5.962-3.084,9.456c-5.138,15.827-11.1,31.45-19.116,45.018c-2.877,5.548-6.373,10.48-9.661,14.594
		c-2.466,2.877-4.729,5.961-7.195,8.221c-1.233,1.851-3.083,2.673-3.699,4.113c-3.906,2.466-6.373,5.344-9.663,7.81
		c-3.288,2.469-5.754,4.933-9.455,6.169c-3.699,4.11-10.894,4.521-13.771,9.042c-1.027,5.551-3.495,11.306-4.934,16.238
		c-1.439,2.469-1.645,5.757-2.877,7.812c0,2.673-1.851,4.936-1.644,7.194c-2.673,2.673-1.44,7.605-5.14,9.25
		c-3.495,0-4.934-3.288-7.4-4.317c-3.906-4.11-7.606-8.017-10.894-11.923c-1.438-0.819-2.468-3.081-3.701-3.903
		c-1.028-2.263-3.289-4.113-4.316-5.962c-7.812-8.428-13.773-19.321-21.173-27.338c-1.645-3.289-3.905-5.14-5.345-8.428
		c-1.85-0.822-1.85-3.496-3.288-4.524c-1.85-3.903-4.317-6.781-5.961-11.099c-4.521-7.194-8.633-13.771-12.127-21.173
		c-2.055-3.495-3.084-6.576-4.729-9.867c-4.727-10.688-9.044-22.611-12.538-34.122c-1.851-6.989-3.701-14.388-5.55-21.377
		c-1.644-9.867-3.494-20.351-4.521-30.217c-2.468-20.146-2.673-40.289-0.824-60.228c0.617-11.306,3.29-21.995,5.14-32.685
		c1.438-5.344,2.261-10.277,4.317-15.211c0.615-4.11,2.672-6.166,2.877-10.277c1.644-4.521,3.494-8.222,4.934-12.333
		c1.232-1.852,0.821-3.496,1.643-4.729c1.44-2.672,2.057-5.756,3.495-8.222c3.495-9.661,7.605-19.116,12.334-27.338
		c1.233-3.907,5.344-6.578,5.549-9.661c-3.905-2.879-8.633-5.14-13.36-3.29c-4.317,3.29-8.633,6.578-10.896,11.306
		c-6.577,10.483-8.222,23.434-11.511,35.355c-0.411,3.699-0.411,8.017-3.084,10.277c-1.439,1.027-3.083-0.411-4.11-1.438
		c-0.822-20.761,0.616-41.317-0.206-61.255c0.206-21.584,0.822-41.728,0.411-62.284c0.616-9.867,0-19.734,1.027-28.779
		c20.556-0.822,40.289,0.411,60.845-1.027c20.35-0.617,40.495,0.206,60.433-0.822c4.317,0,9.044-1.438,11.921,0.822
		c1.235,2.467-1.027,4.728-2.055,5.961c-4.521,1.233-7.811,1.644-11.921,3.083c-4.729,0.822-8.428,3.084-13.362,3.907
		c-5.961,2.877-11.305,5.138-15.006,9.866c-0.411,0.822-0.616,0.822-0.822,1.233c1.233,1.85-0.822-0.411-1.028,0.822
		c-2.055,3.495-0.822,7.195-0.206,10.484c1.439,1.644,1.439,4.316,3.494,4.727c3.701-1.028,6.989-3.699,10.279-4.933
		c4.11-2.673,8.633-4.112,12.333-6.784c4.523-1.233,6.989-3.906,11.307-4.523c6.577-3.288,13.36-6.167,20.144-9.661
		c9.044-2.261,16.855-5.14,25.694-7.195c5.551-2.671,12.745-1.438,17.679-4.317C292.46,88.281,309.111,83.965,326.378,85.609"/>
	<path fill-rule="evenodd" clip-rule="evenodd" fill="#FFCB05" d="M313.427,87.87c20.145,0.822,40.905,0.617,61.256,2.879
		c4.11,0.206,7.811,1.85,11.1,2.261c9.455,0.411,17.678,4.11,26.723,5.55c3.494,2.261,8.222,1.85,10.688,3.905
		c2.467,0.411,4.316,1.438,6.167,1.644c4.728,2.057,8.427,3.701,12.949,4.934c4.935,2.261,10.483,3.905,14.39,6.784
		c4.934,0.411,7.4,3.905,11.1,5.138c3.083,2.468,7.812,3.701,10.896,5.961c2.672,1.438,4.727,3.084,7.605,4.112
		c2.672,2.466,5.962,3.289,8.017,5.344c2.672,0.822,3.494,2.261,5.549,3.495c2.261,1.233,3.7,3.083,5.757,3.699
		c3.904,3.494,7.399,5.551,11.1,8.839c2.055,1.233,2.877,2.673,4.522,3.701c2.261,2.672,4.521,3.7,5.96,5.549
		c3.495,2.262,5.551,4.934,8.224,7.194c2.672,2.261,4.933,4.523,7.398,6.989c2.057,3.699,4.935,5.756,6.989,8.839
		c2.674,3.084,5.756,5.55,6.373,9.455c-3.906,2.879-9.868,3.496-14.799,6.167c-8.224,2.056-15.213,5.14-22.408,7.195
		c-8.838,3.699-18.91,5.756-27.338,8.839c-4.112,1.438-8.428,1.644-11.305,3.906c-8.634,1.438-16.65,5.754-24.874,6.989
		c-2.672,1.85-5.549,1.231-8.838,1.85c-2.262,0-4.111,0.822-5.757,0.617c0-1.028,1.029-1.851,1.234-2.879
		c4.111-5.754,7.812-12.333,14.184-16.65c3.699-2.055,8.428-2.877,11.922-4.933c3.288,0.206,4.934-2.673,7.605-3.084
		c4.112-2.877,8.43-5.96,11.512-9.867c0.411-2.466,2.056-3.288,2.261-5.756c1.645-4.11,1.233-9.044-0.411-12.949
		c-1.646-3.29-3.493-5.55-5.55-8.428c-5.962-6.578-12.538-11.717-17.678-17.472c-2.056-1.646-3.699-2.673-5.756-4.112
		c-2.056-2.261-5.549-2.877-7.4-5.55c-2.877-0.822-4.11-2.877-6.371-4.11c-3.084-2.261-5.552-3.289-8.429-5.14
		c-3.083-1.027-5.344-2.877-7.811-3.905c-4.111-2.466-8.429-2.879-12.539-5.345c-4.316-1.233-7.195-1.438-10.688-3.494
		c-7.4-0.822-12.745-3.084-19.118-3.906c-8.428-3.083-16.445-2.672-24.873-4.933c-20.967-3.29-41.111-2.468-61.46-0.206
		c-7.194,0.206-12.951,2.672-19.734,2.877c-6.167,2.466-12.539,1.438-18.089,4.523c-11.921,1.85-22.406,6.577-33.094,9.455
		c-2.877,2.055-6.578,2.055-9.25,4.111c-4.112,1.027-6.373,2.673-9.456,3.906c-3.084,1.438-5.139,2.877-8.222,3.905
		c-2.055,1.851-4.934,2.673-6.578,4.523c-1.644,0.616-2.466,1.438-3.905,0.411c-4.317-2.878-6.784-6.783-10.073-10.483
		c0.822-2.262,3.701-2.262,5.14-3.906c3.699-1.233,5.756-3.699,9.25-4.727c4.523-2.878,9.456-4.522,13.567-6.989
		c4.521-1.235,7.811-3.906,12.127-4.729c2.261-1.644,4.317-1.85,5.961-3.288c2.877-1.439,5.549-2.057,8.222-3.29
		c5.344-1.027,10.072-3.494,14.8-4.11c17.061-5.961,34.122-7.195,52.005-10.69C307.672,88.692,310.344,88.281,313.427,87.87"/>
	<path fill-rule="evenodd" clip-rule="evenodd" fill="#FFCB05" d="M206.744,90.337c1.438,0,3.083-0.206,4.934,0
		c-7.605,1.439-14.8,4.521-22.406,6.166c-2.466,2.262-6.989,2.879-9.25,5.14c-4.112,2.877-7.605,5.961-9.866,9.661
		c-2.262,6.167-0.823,12.745,1.644,17.472c3.905,4.317,5.96,9.044,10.072,11.718c3.701,3.288,6.783,6.577,10.688,9.044
		c3.701,3.289,7.605,5.345,11.101,8.017c5.549,2.671,10.277,6.373,16.445,8.222c6.166,4.11,15.004,5.756,21.582,8.633
		c-3.083,6.167-5.96,11.921-8.838,18.088c-0.822,1.644-0.617,3.494-2.055,4.112c-8.428-2.878-17.267-5.756-25.078-9.868
		c-8.017-3.699-16.033-7.399-22.817-11.716c-1.233-2.055-3.905-1.438-4.727-3.494c-4.729-2.262-7.4-5.14-11.512-8.017
		c-2.261-2.468-4.933-3.29-6.784-5.551c-3.083-1.438-4.727-4.728-8.222-4.934c-1.028,0.616-2.055,1.027-2.055,2.057
		c2.672,5.343,5.756,10.277,8.222,15.21c2.055,2.467,2.878,4.934,4.523,7.194c2.261,3.29,3.083,6.167,5.343,9.25
		c1.645,3.29,3.29,5.139,4.934,8.635c1.438,1.85,1.85,3.494,3.083,5.138c2.262,3.701,3.701,6.989,5.962,10.483
		c1.233,1.235,1.85,3.29,2.466,4.317c1.44,2.055,2.057,4.934,3.496,6.784c1.438,3.083,3.494,6.784,3.905,9.661
		c-4.521,2.261-8.633,4.11-13.566,5.961c-2.262,2.055-4.728,2.466-6.578,3.905c-2.878-0.822-2.26-4.729-3.701-6.167
		c-1.233-2.466-2.055-3.905-2.672-6.166c-2.671-6.784-6.783-11.718-9.661-17.474c-2.261-2.672-3.495-5.343-5.756-8.015
		c-1.644-1.851-2.672-3.29-4.11-5.345c-2.057-1.233-2.673-3.29-4.729-4.523c-1.438-1.85-2.879-2.671-4.523-4.316
		c-3.699-1.85-5.138-4.522-8.428-6.167c-3.494-2.261-8.222-3.083-12.333-3.083c-4.523,0.617-6.373,2.877-9.456,4.521
		c-1.029,1.644-2.261,2.468-3.29,3.29c-1.439,2.261-2.877,4.316-4.11,6.577c-2.468,3.906-3.906,8.017-5.551,12.334
		c-2.261,8.633-4.727,18.089-5.961,26.517c-0.411-20.144,0.207-40.7,0.411-61.05c-0.617-20.967,0.207-41.522-0.204-61.667
		c0.204-6.784,0.411-12.744,0.615-18.911c19.734-0.411,40.291-0.616,60.229-0.616C168.099,89.925,187.422,90.954,206.744,90.337"/>
	<path fill-rule="evenodd" clip-rule="evenodd" fill="#647B98" d="M334.395,111.509c9.866,1.028,20.76,0.822,30.012,3.289
		c11.305,0.823,20.966,3.906,31.45,5.961c4.11,1.438,7.193,2.057,11.1,3.29c7.194,2.055,12.538,4.933,19.116,6.989
		c2.672,2.055,6.578,2.672,8.428,4.727c5.344,2.261,8.222,6.167,13.156,8.428c1.85,2.055,3.699,3.084,5.756,4.934
		c3.904,2.26,6.165,4.932,9.661,7.4c6.782,6.373,14.388,12.127,18.705,20.144c0.205,0.411,0,0.822,0,0.822
		c-5.962-0.206-10.483,2.468-15.828,3.701c-8.634,3.7-16.855,7.812-24.461,12.539c-1.85,1.85-4.11,2.467-5.756,4.112
		c-2.878,1.233-4.111,3.905-6.784,5.138c-0.409,2.057-2.055,2.468-3.494,3.084c-6.167,1.438-11.305,1.438-17.061,1.438
		c1.027-5.345,5.14-9.25,6.783-14.595c3.699-7.605,6.577-16.033,9.045-24.05c1.438-8.633,3.288-19.116,0.205-26.516
		c-18.5-5.14-36.384,4.112-50.978,10.688c-4.728,2.057-8.839,4.523-12.745,6.989c-2.261,1.85-5.345,2.261-7.194,4.317
		c-5.345,3.083-8.839,7.4-13.156,11.511c-3.905,4.729-9.66,8.839-13.566,13.362c-2.055,1.027-2.467,4.932-5.345,4.727
		c-6.989-1.027-12.951-3.083-18.5-4.727c2.261-5.962,5.961-11.718,8.428-18.707c3.905-9.25,6.989-19.117,8.838-29.394
		c0.617-8.428,4.934-19.527-0.822-25.078c-4.523,2.055-9.456,0.822-12.951,3.289c-2.877,1.438-6.373,2.466-8.633,4.112
		c-2.672,0.616-3.288,3.083-5.96,3.083c-2.879,2.672-6.167,3.289-8.635,5.756c-4.11,2.261-5.96,4.933-9.661,6.784
		c-1.438,2.466-4.11,2.877-5.343,4.727c-4.112,2.879-7.606,6.578-10.69,9.866c-0.822,2.262-2.877,2.879-3.905,4.934
		c-2.468,2.466-5.14,5.55-6.989,8.222c-0.617,1.439-1.027,2.466-2.466,2.261c-7.811-1.438-15.006-3.905-21.378-7.194
		c-3.905-1.028-6.373-3.289-9.455-4.316c-5.961-3.084-11.512-6.578-16.855-10.278c-0.822-2.262,2.671-3.084,3.699-4.112
		c3.29-1.027,4.729-2.877,7.605-3.699c2.261-2.468,5.551-2.057,8.017-3.906c5.55-1.438,9.866-3.905,14.389-5.549
		c3.494-2.056,8.222-1.646,11.1-4.317c5.345,0.205,9.455-2.261,13.772-3.289c17.267-4.934,35.15-8.017,52.211-10.073
		C316.51,111.92,325.349,111.92,334.395,111.509"/>
	<path fill-rule="evenodd" clip-rule="evenodd" fill="#FFCB05" d="M317.128,121.375c0.617,10.279-2.262,21.789-4.523,31.656
		c-2.877,8.428-5.345,16.444-9.044,23.639c-0.822,2.466-2.466,3.906-3.288,6.167c-1.851,1.644-2.057,4.727-4.317,5.345
		c-2.877-1.851-6.989-1.851-9.661-3.701c3.7-8.017,9.456-15.417,8.633-25.694c-0.822-1.644-2.055-2.672-3.494-2.877
		c-5.756,1.028-11.101,3.7-14.389,6.782c-3.289,1.646-5.961,4.317-8.017,7.195c-3.084,2.878-4.522,6.784-6.783,9.868
		c-1.645,3.494-3.289,6.166-5.14,9.044c-1.233,3.494-1.85,5.754-3.494,9.044c-6.373,18.911-7.195,39.261-6.167,58.172
		c0.206,7.812,2.466,16.239,2.466,22.406c-3.7,1.233-6.988,3.288-10.278,4.521c-0.822,0.411-1.644,0.822-2.055,0.411
		c-1.644-4.932-0.616-10.072-2.671-15.622c-2.262-20.35-4.523-40.7-0.411-60.639c2.261-13.978,8.839-23.639,14.388-34.328
		c2.468-3.906,5.55-7.4,8.428-10.484c2.057-3.083,4.729-5.138,6.784-8.017c1.85-1.233,3.29-3.494,4.729-4.316
		c3.288-3.083,6.782-5.139,9.661-8.017c3.083-2.261,5.756-5.14,9.25-6.784c2.261-2.055,4.727-2.466,6.578-4.521
		c4.11-1.646,5.549-3.906,10.072-4.729C307.878,123.432,312.194,121.786,317.128,121.375"/>
	<path fill-rule="evenodd" clip-rule="evenodd" fill="#FFCB05" d="M417.438,145.836c1.028,0.206,2.878-0.411,3.494,0.411
		c2.262,17.679-6.576,35.356-13.154,50.362c-2.879,3.289-4.112,8.633-7.4,10.688c-4.934,0-9.663,0.411-13.773-1.027
		c2.879-4.729,6.167-9.867,7.4-16.445c1.644-4.522,2.261-9.866,0.411-14.184c-0.411-1.233-0.822-2.055-2.055-2.261
		c-8.428,0.206-17.472,2.672-24.255,5.754c-5.756,3.496-11.511,5.962-16.034,10.69c-5.55,3.494-11.101,9.456-15.211,13.979
		c-2.466,4.11-5.344,6.782-7.4,10.894c-3.083,3.083-4.316,7.194-6.578,10.894c-1.85,2.261-1.644,4.728-3.699,6.783
		c-4.934,0.206-10.69-1.027-14.389-1.438c2.262-7.4,6.989-13.567,11.306-20.145c2.466-2.877,4.11-5.755,6.578-8.633
		c2.259-3.083,4.316-4.933,6.371-7.812c2.261-1.438,2.877-3.699,4.934-4.932c3.905-3.701,8.015-6.578,10.894-10.484
		c2.261-1.85,4.11-3.905,6.166-5.755c2.262-1.234,4.523-3.906,6.785-4.729c1.85-2.671,5.138-2.466,6.989-4.727
		c2.055-0.411,2.672-1.646,4.111-2.057c2.26-2.055,5.756-2.466,7.811-4.316c4.316-1.233,5.961-3.084,10.073-4.317
		c2.672-2.055,5.549-2.466,8.837-4.11c3.701-0.824,6.578-1.645,10.072-2.466C410.039,146.042,413.943,145.631,417.438,145.836"/>
	<path fill-rule="evenodd" clip-rule="evenodd" fill="#647B98" d="M287.527,161.665c0.822,0.206,2.466-0.617,2.877,0.616
		c-1.644,8.017-5.549,14.8-9.455,20.557c-1.85-0.822-3.905-0.617-5.345-1.233c-2.671-0.616-5.138-1.85-6.782-2.878
		c2.466-4.521,4.934-7.812,8.633-10.894c2.672-1.439,4.521-4.11,7.606-4.729C285.472,162.075,286.294,161.459,287.527,161.665"/>
	<path fill-rule="evenodd" clip-rule="evenodd" fill="#647B98" d="M161.109,165.571c3.084,1.438,5.551,3.905,8.223,5.961
		c2.056,2.055,5.345,2.877,6.989,4.727c3.084,2.055,5.756,3.906,8.633,5.345c2.468,2.055,5.756,2.672,7.811,4.521
		c5.345,0.822,7.606,4.523,12.54,5.551c5.551,3.288,12.127,5.139,17.267,7.605c2.466,0.411,5.14,1.233,6.989,2.055
		c-0.617,7.605-1.644,16.239-2.055,22.611c-11.101-0.206-22.817,3.29-31.861,6.167c-1.644-5.345-4.317-8.633-5.961-13.772
		c-1.028-1.85-1.644-3.905-2.877-5.14c-0.411-1.85-1.44-2.877-2.262-4.316c-1.85-2.671-3.083-5.961-5.138-9.044
		c-0.411-1.851-1.851-3.701-2.673-4.934c-1.233-1.644-1.644-3.289-3.083-4.727c-3.699-6.373-6.578-12.334-10.688-18.501
		C162.755,167.832,160.904,166.598,161.109,165.571"/>
	<path fill-rule="evenodd" clip-rule="evenodd" fill="#647B98" d="M386.605,178.726c1.233,0.411,3.494-0.411,4.11,0.618
		c0.207,8.839-4.11,18.089-8.221,24.049c-8.839,3.495-21.378-0.617-31.245-1.027c-1.85-0.411-2.262-1.85-3.906-1.645
		c2.262-3.494,7.194-5.55,9.661-8.633c3.495-1.027,4.523-3.699,7.607-4.522C371.188,183.865,378.383,180.166,386.605,178.726"/>
	<path fill-rule="evenodd" clip-rule="evenodd" fill="#FFCB05" d="M480.543,182.426c0.618,0.411,2.468-0.411,2.674,0.617
		c-0.411,5.139-2.467,8.428-5.551,10.894c-5.138,5.551-13.565,8.223-19.938,11.101c-9.044,1.028-14.389,8.222-18.705,14.388
		c-2.466,3.701-4.934,7.194-6.989,10.484c-2.878,4.932-5.139,9.455-8.017,14.184c-3.289,8.221-6.578,16.237-9.044,24.461
		c-0.207,1.233-0.616,2.672-1.438,2.672c-5.346,0.617-10.484,2.261-15.212,0.822c1.85-4.934,3.494-9.867,5.139-14.595
		c2.467-6.784,5.345-12.951,7.811-18.706c4.112-7.4,7.4-15.828,12.54-21.995c0.205-1.439,1.438-2.055,1.85-3.083
		c4.522-4.317,8.222-8.222,12.333-10.896c3.7-3.699,8.838-5.549,12.539-8.839C460.194,189.416,469.444,184.481,480.543,182.426"/>
	<path fill-rule="evenodd" clip-rule="evenodd" fill="#FFCB05" d="M266.149,183.043c3.495,1.85,7.811,3.083,11.306,4.317
		c13.36,4.521,26.928,8.017,40.495,10.894c0.617,1.645-1.44,2.261-1.44,3.494c-1.848,1.438-2.261,3.906-4.316,5.756
		c-0.822,1.85-2.466,3.083-2.878,4.521c-1.85,2.057-2.877,4.317-4.316,6.167c-10.278-1.233-19.116-3.494-29.188-5.754
		c-3.29-1.646-7.4-2.468-10.69-3.701c-3.288-0.617-6.989-1.028-9.044-2.672c2.055-8.017,5.55-15.211,9.044-22.612
		C265.532,183.454,266.149,183.043,266.149,183.043"/>
	<path fill-rule="evenodd" clip-rule="evenodd" fill="#FFCB05" d="M130.894,191.676c3.699,1.438,5.96,5.345,9.044,7.4
		c0.411,1.233,2.261,2.055,1.85,3.494c-2.261,2.673-3.906,6.167-5.345,8.84c-6.166,13.36-11.1,27.955-15.827,41.932
		c-1.029,1.44-0.618,3.701-1.646,4.522c-1.644,5.962-4.11,12.129-5.343,17.883c-1.233,1.644-0.822,3.084-1.646,5.345
		c-5.343,19.527-6.782,37.616-6.989,57.145c0.207,9.866,1.234,18.911,2.673,27.957c1.028,2.877,0.206,4.933,1.233,7.192
		c2.261,13.362,5.756,23.845,9.455,36.178c2.056,5.345,4.112,10.279,5.756,15.213c2.055,3.494,3.288,7.605,5.343,10.482
		c2.262,6.373,5.756,11.717,8.84,16.856c1.644,2.467,2.466,4.933,4.11,6.577c1.644,1.851,3.29,3.699,4.523,5.55
		c4.316,4.933,9.661,8.428,14.182,11.717c2.468,1.232,4.729,1.232,6.578,2.466c7.4,0.822,14.8-2.26,18.296-6.987
		c4.727-4.729,4.316-12.745,9.455-16.241c2.672-2.466,5.549-5.136,8.839-6.78c1.644-1.851,3.699-2.88,5.754-4.523
		c2.879-0.616,3.701-3.701,6.578-3.29c-1.027,8.018-1.85,15.623-3.494,23.64c-0.411,3.289-1.644,6.577-2.055,9.457
		c-1.029,3.288-0.824,5.548-2.057,8.632c-3.905,17.474-8.222,33.918-13.566,50.978c-1.233,3.084-1.646,5.551-3.084,8.635
		c-1.85,4.933-3.083,10.483-5.344,15.005c-2.673-0.822-3.906-3.907-6.167-4.729c-0.617-2.467-3.495-2.878-3.906-4.933
		c-2.672-1.645-4.933-5.344-6.577-6.988c-1.029-2.055-2.057-3.495-3.701-4.728c-2.261-3.7-5.345-6.373-7.606-10.072
		c-2.671-2.877-4.11-5.962-7.194-9.046c-1.028-2.056-2.261-3.288-3.494-5.344c-1.644-1.232-1.85-2.877-3.084-4.11
		c-2.672-3.291-4.727-6.372-6.782-9.663c-1.85-3.904-4.317-7.399-6.167-11.099c-1.644-1.439-1.85-3.495-3.083-4.521
		c-2.057-3.699-4.112-7.194-6.167-10.485c-5.55-10.895-10.688-22.199-15.211-33.916c-2.261-5.96-4.11-13.155-5.961-18.5
		c-1.027-3.289-1.85-5.961-2.466-9.455c-4.934-17.267-6.989-35.767-8.633-53.034c-1.233-21.173-0.206-41.728,2.261-61.46
		c3.29-17.678,7.4-34.328,13.567-50.772c6.167-15.417,11.921-30.012,18.911-44.606C126.987,196.404,128.426,193.115,130.894,191.676
		"/>
	<path fill-rule="evenodd" clip-rule="evenodd" fill="#FFCB05" d="M342.822,204.832c18.088,4.521,37.205,5.96,55.706,7.812
		c8.017,0.411,14.8-1.029,21.995-0.206c-0.618,1.027-1.235,2.261-2.057,3.083c-3.083,4.521-5.757,9.661-8.428,14.39
		c-19.94,4.315-41.522-1.44-62.079-2.057c-6.782-0.206-11.305-3.083-17.472-2.877c-0.822-0.411-0.822-0.617-0.822-0.617
		c0.411-3.288,2.879-4.317,4.112-7.811C337.066,212.644,338.712,207.915,342.822,204.832"/>
	<path fill-rule="evenodd" clip-rule="evenodd" fill="#647B98" d="M145.078,206.271c4.316,3.288,6.166,8.428,9.044,12.333
		c1.85,2.878,3.083,6.578,5.138,9.044c1.644,5.961,6.578,11.717,6.784,17.679c-2.055,1.233-3.083,2.877-4.934,3.289
		c-4.727,4.523-9.661,8.428-13.977,12.951c-0.617,1.644-2.673,2.877-3.495,4.316c-4.727,5.55-8.428,11.717-12.539,17.267
		c-5.345,9.455-10.483,20.145-14.184,31.244c-1.027,4.112-3.083,9.045-0.411,11.922c8.428,1.029,15.211-3.288,23.228-4.521
		c6.167-3.084,12.744-4.522,18.706-7.194c3.906-1.233,6.373-3.288,9.866-4.728c2.262-2.057,5.345-2.673,7.811-4.111
		c3.496-1.233,4.934-3.699,7.812-5.345c0.822-0.411,1.851-1.233,2.057-0.616c0.616,2.877,1.233,5.961,2.055,8.016
		c-0.206,3.496,1.85,6.784,1.233,9.663c-4.112,4.521-7.811,8.632-11.1,12.949c-1.027,1.85-2.878,3.084-3.701,4.727
		c-1.85,1.852-3.288,4.522-4.727,6.374c-2.262,5.344-5.961,9.044-8.017,13.977c-2.673,3.288-3.906,6.373-5.756,9.455
		c-4.934,11.922-10.277,23.434-12.334,35.769c-1.233,3.904-1.645,6.987-2.877,10.277c-0.617,5.138-4.523,10.071-1.028,13.772
		c12.949,4.522,26.517,1.027,39.056-1.646c4.521-3.083,9.456-4.11,13.36-6.989c2.057-1.027,3.495-2.056,4.934-3.699
		c0.206,2.261,0.617,6.372-0.206,8.428c-2.671,1.233-3.699,3.495-5.961,3.906c-1.644,2.877-4.727,3.494-6.167,5.551
		c-2.877,2.055-5.138,3.904-7.604,6.165c-1.029,2.056-2.673,2.467-3.701,4.728c-1.85,1.851-2.671,3.289-4.111,4.728
		c-4.111,6.783-9.044,11.719-11.1,19.939c-0.411,0.618-1.028,1.645-1.645,0.822c-3.288-3.084-6.373-6.166-9.25-10.072
		c-2.261-2.466-3.29-5.14-4.934-7.605c-2.466-4.316-4.727-7.399-6.578-11.512c-1.644-3.699-3.494-7.192-5.343-10.896
		c-1.233-2.465-1.439-5.138-2.879-7.192c-2.466-5.962-4.727-12.951-6.782-18.912c-1.646-3.905-2.262-7.811-3.29-11.717
		c-4.727-17.677-7.4-36.383-7.606-54.882c0.617-19.118,2.879-37.618,8.223-55.912c1.233-6.373,3.495-11.718,5.345-17.062
		c1.644-5.138,3.494-10.688,5.55-15.827c0-2.057,1.233-4.112,1.439-5.756c1.85-4.317,3.288-8.428,4.932-12.745
		C138.705,219.631,140.555,212.025,145.078,206.271"/>
	<path fill-rule="evenodd" clip-rule="evenodd" fill="#647B98" d="M255.255,210.998c0.411,0,1.233,0,1.644,0.413
		c0,1.85-2.055,1.85-2.672,3.083C253.816,213.876,254.638,211.614,255.255,210.998"/>
	<path fill-rule="evenodd" clip-rule="evenodd" fill="#FFCB05" d="M262.244,213.465c2.261,0,4.727,1.439,6.578,1.233
		c2.261,1.027,3.494,2.466,5.754,2.671c-2.261,2.672-5.344,4.729-7.811,7.606c-3.905,3.083-9.456,2.262-13.771,1.644
		c-1.644-4.521,3.288-6.578,4.316-8.839C259.571,216.548,259.571,213.26,262.244,213.465"/>
	<path fill-rule="evenodd" clip-rule="evenodd" fill="#FFCB05" d="M496.989,220.249c2.261-0.207,0.616,3.083,1.027,4.521
		c-0.821,8.839-5.139,16.239-8.428,23.639c-1.644,3.083-3.288,5.345-4.934,8.222c-4.112,4.523-7.605,8.428-11.716,11.1
		c-4.523,2.468-8.017,6.373-12.951,7.811c-2.261,2.057-4.522,2.879-6.989,4.317c-6.371,0.822-10.894,3.699-17.266,4.933
		c-2.672,1.234-5.55,1.234-7.812,2.262c-5.14,1.027-11.1,2.466-15.828,3.288c-20.967,2.672-41.315-0.206-61.872-0.411
		c-16.033-0.411-31.656-1.233-46.045,0.411c1.438-4.729,2.055-9.661,4.11-13.567c19.529-2.877,40.291-3.699,59.818-2.055
		c17.472,1.439,34.327,4.523,50.566,0.822c2.879-1.027,5.551-0.206,8.017-1.438c1.852-0.206,3.288-1.028,4.317-1.233
		c4.933-0.411,8.223-3.288,12.127-4.523c5.346-2.671,10.484-6.166,15.417-9.455c4.729-4.316,9.044-8.222,11.922-13.566
		c4.729-4.934,5.345-13.156,8.017-19.118c4.317-2.261,9.662-2.466,13.774-4.727C493.905,220.66,495.549,220.66,496.989,220.249"/>
	<path fill-rule="evenodd" clip-rule="evenodd" fill="#647B98" d="M279.716,218.809c3.494,0.413,6.373,1.029,10.072,2.055
		c4.112,1.44,8.84,0.618,11.717,2.468c0.206,3.083-2.468,4.11-2.262,6.373c-9.661,0.206-19.732-0.617-28.982-2.262
		c0.617-1.233,2.672-1.233,3.288-3.083C275.811,222.715,277.661,220.042,279.716,218.809"/>
	<path fill-rule="evenodd" clip-rule="evenodd" fill="#647B98" d="M472.322,228.266c0,4.521-1.439,9.456-4.111,12.744
		c-1.85,2.672-3.288,5.551-5.756,7.606c-2.261,2.672-5.139,4.316-6.782,6.578c-5.756,2.877-9.456,6.167-14.802,8.633
		c-1.849,1.644-4.933,1.438-6.166,3.288c-5.138,0.822-10.071,2.055-14.389,3.084c-0.617-1.852,0.821-3.084,0.411-4.523
		c0.617-2.466,2.055-4.729,2.673-6.989c3.904-7.811,6.167-16.855,12.538-22.405c5.551,0,10.689-1.44,15.624-1.851
		c2.672-0.822,4.933-1.85,7.604-2.671C464.306,231.143,468.211,228.677,472.322,228.266"/>
	<path fill-rule="evenodd" clip-rule="evenodd" fill="#647B98" d="M327.2,228.882c1.438,0.206,1.85,1.438,3.083,1.028
		c2.262,1.027,4.934,1.233,6.784,1.644c-3.905,0.822-7.812,1.438-11.718,1.233C325.145,231.76,325.965,229.499,327.2,228.882"/>
	<path fill-rule="evenodd" clip-rule="evenodd" fill="#FFCB05" d="M220.105,228.882c2.26,0.206,5.138-0.617,6.989,0.617
		c0.411,4.727,1.028,9.25,0.411,13.565c-11.717,0.411-23.845,2.673-33.918,7.4c-4.933,2.673-10.688,4.729-15.21,8.222
		c-1.44,1.644-2.878,2.468-4.523,3.495c-6.578,5.755-12.127,11.922-16.65,18.294c-1.644,1.85-2.261,4.316-3.494,5.961
		c-0.824,2.055-1.44,4.11-2.468,5.96c0.206,2.262,0,5.55,1.438,6.373c10.484-0.206,18.912-5.139,26.107-9.661
		c1.438-0.822,2.055-2.672,3.699-2.261c0.822,2.877,2.877,5.549,2.055,8.017c-4.521,2.877-8.222,5.549-12.744,8.017
		c-4.317,2.055-8.017,4.316-12.334,5.754c-3.699,1.027-6.371,3.083-9.866,4.112c-7.606,3.493-16.445,5.344-24.05,8.015
		c-2.055,0.618-3.699,0.824-4.521,0.618c-0.618-4.317,1.85-7.811,2.261-11.511c2.055-4.111,3.289-8.223,5.549-12.128
		c4.317-8.839,9.457-16.855,14.595-24.256c3.701-3.699,5.961-7.4,9.25-10.688c1.029-2.057,2.673-2.057,3.701-3.906
		c1.644-0.822,3.083-2.261,4.317-3.494c3.905-3.906,9.25-6.578,13.566-9.866c2.055-1.234,4.934-2.468,6.784-3.906
		c4.11-1.027,7.195-3.288,10.894-4.729c3.084,0,4.317-2.055,6.167-2.466c1.85-1.233,3.699-1.027,5.345-1.85
		c4.933-1.233,8.017-1.644,12.949-3.083C218.05,229.705,218.665,228.882,220.105,228.882"/>
	<path fill-rule="evenodd" clip-rule="evenodd" fill="#FFCB05" d="M348.784,232.993c9.249,1.438,18.705,2.466,27.955,3.083
		c-3.083,2.057-6.784,2.467-9.25,4.317c-2.055,0.411-3.29,0.616-5.345,1.233c-4.521,1.233-7.812,3.288-12.744,3.288
		c-19.529,5.14-38.645,5.962-57.556,3.701c-13.979-2.055-27.34-1.439-40.289-4.112c0.206-4.521-0.206-8.839,0.822-12.949
		c19.116-0.411,38.851,3.083,58.172,4.932c8.017,1.235,15.006,1.44,22.404,1.029c4.112-0.206,7.813-1.851,12.129-2.261
		C346.729,234.842,347.344,233.198,348.784,232.993"/>
	<path fill-rule="evenodd" clip-rule="evenodd" fill="#647B98" d="M385.783,236.486c6.989,0.206,13.567,0.618,20.556,0.411
		c0.41,1.646-1.646,3.084-1.439,4.934c-1.438,1.644-1.645,3.495-2.467,4.729c-1.027,4.11-2.672,7.811-3.904,11.099
		c-2.262,4.934-3.084,10.278-5.551,14.184c-20.967-1.233-41.522-3.906-61.872-2.055c-7.4,0-14.389,2.261-20.967,1.438
		c0.411-2.879,2.466-5.345,2.877-8.633c1.85-2.673,1.85-6.167,4.316-7.811c15.006-1.028,28.367-3.084,41.935-6.989
		c7.4-2.466,15.006-4.523,21.584-8.222C382.906,239.16,383.933,237.516,385.783,236.486"/>
	<path fill-rule="evenodd" clip-rule="evenodd" fill="#FFCB05" d="M225.449,248.204c0.822,0,1.233,0,2.262,0
		c0.822,3.699,2.672,8.839-0.617,11.716c-1.234,2.468-3.29,3.29-4.112,5.345c-3.494,3.494-6.578,8.633-10.688,10.483
		c-1.027-2.877-1.644-6.373-2.468-9.866c2.057-1.028,2.673-3.289,4.523-4.316c2.672-3.29,5.551-6.784,7.812-9.868
		C223.394,250.259,224.216,249.026,225.449,248.204"/>
	<path fill-rule="evenodd" clip-rule="evenodd" fill="#647B98" d="M252.789,248.821c11.1,3.494,24.872,1.644,36.177,4.317
		c-2.055,6.166-3.083,12.949-6.578,18.5c-8.839,0.617-16.855,2.672-24.461,4.316c-1.233,0.206-2.261,0.822-3.083,0.411
		c-0.822-3.289-1.233-6.371-1.644-9.456C252.377,260.742,250.732,253.754,252.789,248.821"/>
	<path fill-rule="evenodd" clip-rule="evenodd" fill="#647B98" d="M217.021,249.026c0.411,0,1.233,0,1.233,0.616
		c-1.027,1.233-1.644,2.877-3.083,4.112c-2.055,2.877-5.14,4.933-6.578,7.4c-1.438-3.084-2.466-6.578-2.877-9.457
		C209.416,249.643,213.733,250.67,217.021,249.026"/>
	<path fill-rule="evenodd" clip-rule="evenodd" fill="#FFCB05" d="M294.722,253.138c5.344,0.204,11.922,0.822,16.445,1.85
		c-3.289,7.811-5.551,15.622-8.633,23.434c-1.028,3.494-1.85,6.989-2.673,10.072c-4.727,17.472-7.193,35.973-10.277,53.445
		c-3.905,18.5-5.754,36.794-9.867,54.266c-0.822,4.523-2.055,9.044-3.083,13.36c-1.029,5.758-2.673,10.279-4.317,15.829
		c-1.644,4.521-2.877,9.045-4.316,13.155c-3.29,9.043-7.605,18.296-11.923,26.928c-2.261,4.524-4.934,8.224-7.4,12.541
		c-4.933,6.781-9.866,13.153-16.239,18.497c-0.822,1.646-2.261,1.646-2.877,3.084c-4.934,3.495-9.866,8.017-15.006,10.894
		c-2.261,1.647-6.167,3.496-8.222,4.113c1.644-6.168,3.289-13.362,5.14-19.735c0.616-2.67,0.205-5.344,2.671-6.372
		c4.729-2.26,7.606-5.344,11.511-8.015c3.29-2.673,6.167-6.168,9.251-9.045c5.138-5.14,9.455-10.279,12.538-15.83
		c5.139-8.221,9.455-17.06,11.716-26.516c1.44-2.055,1.029-4.727,2.057-6.578c4.521-18.088,5.96-36.177,9.867-54.266
		c1.027-15.006,4.317-28.983,5.756-43.579c3.699-15.622,4.727-30.626,9.455-46.043c-0.206-1.439,0.617-2.673,0.617-3.29
		c1.438-3.083,2.055-6.167,3.083-9.044C292.256,261.77,292.46,257.249,294.722,253.138"/>
	<path fill-rule="evenodd" clip-rule="evenodd" fill="#FFCB05" d="M201.193,252.931c2.056,6.167,3.701,12.745,5.55,19.939
		c0.617,2.261,0.822,3.905,1.438,6.167c1.028,7.195,3.084,13.771,3.084,19.938c-4.317,3.495-9.046,7.195-13.362,10.485
		c-1.233,1.231-2.466,2.466-3.699,2.671c-1.646-4.728-2.468-9.457-3.906-14.184c-1.233-5.96-3.083-11.306-4.521-16.65
		c-2.468-5.55-4.317-10.483-5.961-16.033c0.205-3.699,3.905-3.495,5.961-5.55C191.121,257.249,195.85,254.782,201.193,252.931"/>
	<path fill-rule="evenodd" clip-rule="evenodd" fill="#647B98" d="M229.561,263.827c1.644,4.316,0.411,8.222,1.644,12.538
		c0.411,3.701,2.466,7.4,1.439,9.868c-3.7,1.027-6.166,3.494-9.456,4.933c-1.85,1.644-4.727,2.466-6.373,4.317
		c-0.617,0-1.233,0-1.233,0c0-4.729-2.672-9.663-1.028-14.39c2.466-3.083,6.167-5.345,7.606-7.811
		c1.438-1.644,2.466-3.699,4.11-4.934C227.505,266.704,228.328,264.443,229.561,263.827"/>
	<path fill-rule="evenodd" clip-rule="evenodd" fill="#647B98" d="M176.321,267.731c0.824,3.495,2.673,6.989,4.112,11.101
		c0,1.233,1.028,2.672,0.206,3.083c-2.672,1.644-4.934,3.905-7.4,4.727c-3.906,3.084-8.428,4.934-13.362,6.167
		c-1.233,0-2.261,0.618-3.289,0.618c0.411-3.907,2.672-7.195,4.521-10.279c2.262-2.877,4.523-5.549,6.373-8.223
		c1.028-1.438,2.673-1.644,3.29-3.083C172.622,270.199,174.471,267.526,176.321,267.731"/>
	<path fill-rule="evenodd" clip-rule="evenodd" fill="#FFCB05" d="M279.511,276.57c0.411,0.205,1.644-0.206,2.055,0.618
		c-1.439,3.494-1.439,7.4-2.877,11.1c-3.084,1.028-7.4-0.206-10.072,1.85c-6.578,1.233-12.129,3.7-17.679,5.961
		c-2.055,0.822-3.494,1.645-5.549,2.466c-5.551,3.29-11.101,5.961-16.239,9.25c-2.878,1.233-4.317,3.701-6.989,4.523
		c-8.839,6.782-17.472,14.184-24.873,23.022c-3.906,3.288-5.55,8.017-8.428,11.716c-2.055,3.906-4.523,7.605-6.373,11.512
		c-2.877,5.962-6.167,11.511-7.605,18.293c-1.439,4.317-3.083,8.634-1.85,12.54c1.644,3.083,5.756,2.262,8.428,2.878
		c5.55-1.232,11.921-0.823,15.417-4.316c1.85,5.139,1.028,12.538,0.411,18.295c-1.644,1.027-2.261,2.467-4.11,3.287
		c-1.646,2.057-5.139,2.673-6.989,4.729c-8.634,3.287-16.65,7.193-26.312,6.988c-4.521,2.057-9.661,1.438-15.006,0.616
		c-1.233-2.877,0.618-5.96,0.618-7.812c2.466-9.455,4.11-18.705,7.398-27.749c1.851-2.056,1.44-4.727,2.673-6.989
		c5.961-14.595,13.36-26.311,21.377-38.849c1.851-1.646,2.262-3.906,4.112-4.73c0.617-2.055,2.055-3.082,3.288-4.521
		c4.523-5.55,10.074-11.305,15.211-16.238c3.701-3.494,7.4-5.756,10.688-8.839c3.496-2.261,6.373-4.933,10.073-6.989
		c2.877-2.261,5.755-3.083,8.633-5.138c7.606-4.112,16.239-8.429,24.873-11.101c6.373-2.877,12.949-3.7,19.322-5.344
		C275.604,277.599,277.866,276.982,279.511,276.57"/>
	<path fill-rule="evenodd" clip-rule="evenodd" fill="#647B98" d="M333.778,293.631c17.678,0.206,35.355,2.467,53.034,3.084
		c0.41,1.85-1.029,2.877-1.029,4.933c-2.466,6.989-2.673,15.212-3.701,21.583c-8.017-6.989-19.938-9.044-30.421-7.398
		c-6.578,1.849-12.334,3.699-17.678,6.166c-2.673,2.055-5.345,2.467-6.989,4.727c-4.523,2.879-7.4,7.4-10.484,11.101
		c-3.288,4.521-4.727,9.456-6.782,15.005c-2.262,10.073-1.44,22.202,5.549,28.573c1.233,0.616,1.644,0.823,2.468,2.055
		c-10.279,1.234-20.557,2.468-31.04,5.756c0.822-11.305,3.699-23.021,5.14-33.505c3.288-18.705,5.754-36.59,9.661-54.677
		c1.233-2.262,0-4.523,1.85-5.55C313.838,294.249,323.706,293.631,333.778,293.631"/>
	<path fill-rule="evenodd" clip-rule="evenodd" fill="#FFCB05" d="M404.693,295.893c1.852,0.617,0,2.877,0.411,4.111
		c-3.904,9.457-5.549,20.351-6.987,30.012c-1.645,5.754-1.233,11.305-2.673,16.444c-0.411-7.605-6.577-12.334-7.811-19.323
		c-0.617-7.398,0.616-14.594,2.055-21.788c1.027-2.673,0.618-5.961,2.878-8.017C396.677,295.893,400.994,296.304,404.693,295.893"/>
	<path fill-rule="evenodd" clip-rule="evenodd" fill="#647B98" d="M276.839,293.015c1.85,3.701-1.235,9.868-1.439,14.184
		c-1.029,2.466,0,4.729-1.44,6.578c-1.644,13.977-4.316,27.955-6.373,41.316c-1.231,13.156-3.288,26.105-5.96,38.851
		c-5.345,1.027-10.896,2.467-16.444,4.11c-2.673,2.057-6.167,2.263-9.456,3.29c-2.262,1.233-4.523,2.672-7.194,2.877
		c-1.439,0.411-2.673,2.057-3.907,1.233c0.617-4.11,0-8.839,0.411-12.95c5.345-3.289,9.661-8.838,13.567-13.566
		c0.617-2.261,2.466-3.495,2.877-5.14c2.878-3.288,4.112-7.399,6.578-11.099c8.017-16.856,9.661-36.385,9.661-54.267
		c-0.206-3.29-1.439-6.578-1.028-9.662C263.683,296.304,269.85,294.455,276.839,293.015"/>
	<path fill-rule="evenodd" clip-rule="evenodd" fill="#FFCB05" d="M252.172,301.033c2.672,16.032,0.617,32.889-4.317,49.539
		c-0.822,2.672-1.85,4.521-3.083,7.399c-1.234,3.084-2.879,4.934-4.112,8.017c-1.85,2.262-2.466,5.14-4.521,7.399
		c-0.617,2.056-2.262,3.29-3.29,4.935c-2.877,3.494-5.344,5.345-7.606,8.222c-0.206-5.756-2.466-14.595,1.234-19.733
		c2.056-1.439,2.261-3.083,3.289-4.11c1.438-2.672,2.055-4.111,3.494-6.578c2.879-5.961,5.14-12.539,6.578-19.116
		c1.85-10.279-0.411-21.995,1.645-30.834c2.467-1.439,4.728-2.672,7.194-3.7C249.705,301.648,250.938,301.442,252.172,301.033"/>
	<path fill-rule="evenodd" clip-rule="evenodd" fill="#647B98" d="M235.933,309.664c2.055,8.225,0.822,18.707-1.027,27.546
		c-0.618,4.11-1.646,7.194-3.29,10.688c-2.261,5.551-4.934,10.072-7.4,14.595c0-14.184-1.85-30.01-1.028-44.194
		c3.494-2.673,6.989-4.934,10.072-7.195C234.495,310.488,235.11,309.871,235.933,309.664"/>
	<path fill-rule="evenodd" clip-rule="evenodd" fill="#FFCB05" d="M356.184,320.148c5.755-0.205,10.893,0.822,16.65,2.878
		c3.699,2.262,6.782,4.522,9.661,7.4c2.055,2.671,3.289,4.934,4.933,7.194c2.672,4.522,2.878,10.072,4.317,14.8
		c0.616,4.933,0.411,10.278-0.411,14.389c-1.438,5.961-4.317,11.101-7.4,15.006c-3.494,3.699-6.989,6.167-10.483,8.633
		c-9.866,5.551-21.995,8.84-33.711,10.484c-6.374,2.672-14.184,1.438-20.967,4.11c-12.951,2.466-26.312,3.084-37.617,8.017
		c-0.411-1.233,0.411-3.083,0.617-4.11c1.85-5.345,1.029-10.896,3.906-15.006c3.699-1.027,7.194-1.439,10.072-3.084
		c6.167-1.438,12.128-0.615,18.088-1.85c18.296-1.645,36.795-1.027,54.884-7.194c4.316-2.672,8.428-5.962,11.101-10.072
		c1.028-1.645,1.232-3.699,2.466-5.138c1.644-4.935,1.644-9.868,0.411-14.802c-1.85-5.344-4.934-8.222-8.635-12.333
		c-6.989-5.138-16.443-6.783-24.871-4.521c-2.262,1.438-4.317,2.466-5.961,3.494c-3.083,2.057-6.578,4.522-8.223,7.399
		c-3.701,6.578-6.373,14.39-4.728,22.201c1.851,6.167,4.728,11.1,9.661,13.977c-6.989,1.029-15.21,2.468-20.966-2.261
		c-1.438-1.85-2.673-3.29-3.905-5.138c-4.112-9.868-1.235-22.201,3.288-31.245c1.028-1.438,2.055-3.084,3.289-4.317
		c2.261-4.11,6.578-7.812,10.073-10.482C339.534,324.67,347.138,321.588,356.184,320.148"/>
	<path fill-rule="evenodd" clip-rule="evenodd" fill="#FFCB05" d="M217.638,322.82c0.823,14.595,1.851,30.218,1.44,45.017
		c0.822,13.774,1.85,28.983-0.413,41.112c-1.233,0.822-2.672,0.822-3.699,2.056c-4.934,1.232-8.017,4.728-12.745,5.345
		c0.618-19.323,1.029-38.439-0.411-58.172c0-7.195-3.083-14.596-0.204-20.146c1.644-1.645,2.672-3.29,4.521-4.729
		c1.644-2.056,3.289-3.288,5.14-5.344c1.85-1.027,2.671-3.29,4.727-3.7C216.815,323.849,216.61,322.41,217.638,322.82"/>
	<path fill-rule="evenodd" clip-rule="evenodd" fill="#E38C44" d="M355.977,338.648c1.234,0,2.878-0.616,3.906,0.411
		c-1.233,1.645-3.906,1.852-4.523,4.522c-3.494,4.728-0.411,12.951-4.521,16.034c-3.906,0.204-8.633,1.027-11.305-2.056
		c-1.646-1.851-2.467-4.522-1.646-7.196c2.466-4.11,5.756-6.165,8.84-8.633C350.428,340.704,352.483,339.06,355.977,338.648"/>
	<path fill-rule="evenodd" clip-rule="evenodd" fill="#E38C44" d="M362.966,341.938c3.29,0.205,6.989,0.205,9.661,2.055
		c-5.755,0.821-10.483,2.467-14.595,6.578c-0.41,0.617-0.41,1.028-0.821,1.438c-0.411-2.055,0.411-5.55,2.055-7.399
		C360.911,344.199,361.527,342.348,362.966,341.938"/>
	<path fill-rule="evenodd" clip-rule="evenodd" fill="#E38C44" d="M369.75,348.721c3.084-0.204,5.55,1.644,7.4,3.906
		c3.083,3.288,1.438,6.989,1.644,10.894c-0.822,2.467-1.85,3.495-3.083,5.962c-1.646,1.233-1.85,2.877-3.905,4.521
		c-0.824-4.521-1.234-10.277-5.139-12.538c-2.673-1.646-4.729-3.084-7.812-4.317C360.5,352.216,364.817,350.16,369.75,348.721"/>
	<path fill-rule="evenodd" clip-rule="evenodd" fill="#647B98" d="M196.055,346.46c1.233,11.718,2.055,24.256,1.644,35.768
		c-5.345,4.11-13.362,4.933-20.145,5.138c0.206-7.605,3.906-14.595,6.783-21.788c2.879-5.55,5.551-10.484,8.428-15.417
		C194.411,349.132,194.206,346.665,196.055,346.46"/>
	<path fill-rule="evenodd" clip-rule="evenodd" fill="#E38C44" d="M335.216,358.998c1.645,2.057,3.496,3.701,6.578,4.317
		c2.466,0.616,4.727-0.206,6.578,1.027c-1.44,1.645-5.139,1.852-7.195,3.494c-2.262,0.207-4.728,1.439-6.167-0.41
		C334.189,364.55,334.189,360.848,335.216,358.998"/>
	<path fill-rule="evenodd" clip-rule="evenodd" fill="#E38C44" d="M359.472,362.288c1.85,0.205,2.261,1.438,3.699,1.85
		c3.084,3.289,4.523,8.633,2.877,12.743c-1.438,1.852-3.494,1.44-5.138,2.057c0.411-4.934,1.233-10.277-1.027-15.006
		C359.061,363.521,358.65,361.877,359.472,362.288"/>
	<path fill-rule="evenodd" clip-rule="evenodd" fill="#E38C44" d="M353.716,365.577c0.822,0.821,2.467,0,2.878,1.232
		c0.617,3.906,1.85,8.224-0.822,10.895c-2.879,2.056-5.758,5.346-10.074,3.083c-2.466-2.261-5.756-2.877-7.4-5.549
		c-0.411-0.823-1.644-1.645-1.233-2.673C343.233,372.359,349.606,369.276,353.716,365.577"/>
	<path fill-rule="evenodd" clip-rule="evenodd" fill="#FFCB05" d="M257.927,399.083c0.822,0.205,2.262-0.822,2.878,0.409
		c-0.823,6.167-1.027,13.156-3.906,17.474c-2.672,0.411-4.316,1.233-6.578,1.85c-4.727,1.85-9.25,3.289-13.155,5.551
		c-8.428,2.877-15.622,6.989-22.406,10.894c-2.261,1.645-4.934,2.467-7.195,4.521c-3.288,1.439-5.138,4.112-8.222,5.756
		c-3.083,3.084-7.4,6.168-10.277,9.046c-3.288,1.851-4.523,5.754-5.55,8.839c0.822,3.699-2.055,5.961-4.521,7.81
		c-3.29,3.291-8.428,3.084-12.951,2.055c-1.85-1.026-3.494-0.408-4.316-2.055c1.233-4.726,3.083-9.043,5.138-12.742
		c1.027-1.44,1.85-2.263,2.262-3.702c1.85-3.082,3.699-5.548,5.549-8.221c3.495-4.729,6.989-8.635,11.717-11.924
		c3.905-2.878,6.784-5.55,10.072-7.604c1.027-2.261,3.905-2.056,4.727-3.906c5.139-2.672,9.662-5.96,15.005-7.605
		c2.262-2.056,5.551-2.467,8.223-3.905c2.467-1.645,4.728-2.672,8.017-3.699c4.523-2.057,7.811-3.084,12.745-4.523
		C248.882,400.728,254.638,401.755,257.927,399.083"/>
	<path fill-rule="evenodd" clip-rule="evenodd" fill="#647B98" d="M255.46,422.311c0.822,2.26-1.233,5.344-1.438,8.222
		c-5.962,15.829-12.745,27.75-23.845,39.262c-2.877,3.084-5.14,4.729-7.606,7.194c-2.877,1.233-5.756,4.933-8.222,5.14
		c6.373-15.211,0.617-38.44,12.951-48.514C236.961,429.504,245.183,425.188,255.46,422.311"/>
	<rect x="47.85" y="48.61" fill-rule="evenodd" clip-rule="evenodd" fill="#FFCB05" width="10.894" height="10.894"/>
	
		<rect x="47.85" y="48.61" fill="none" stroke="#000000" stroke-width="5.7556" stroke-linecap="round" stroke-miterlimit="2.6131" width="10.894" height="10.894"/>
	<rect x="87.932" y="46.966" fill-rule="evenodd" clip-rule="evenodd" fill="#FFCB05" width="10.896" height="10.894"/>
	
		<rect x="87.932" y="46.966" fill="none" stroke="#000000" stroke-width="5.7556" stroke-linecap="round" stroke-miterlimit="2.6131" width="10.896" height="10.894"/>
	<rect x="128.015" y="46.966" fill-rule="evenodd" clip-rule="evenodd" fill="#FFCB05" width="10.896" height="10.894"/>
	
		<rect x="128.015" y="46.966" fill="none" stroke="#000000" stroke-width="5.7556" stroke-linecap="round" stroke-miterlimit="2.6131" width="10.896" height="10.894"/>
	<rect x="168.099" y="46.966" fill-rule="evenodd" clip-rule="evenodd" fill="#FFCB05" width="10.894" height="10.894"/>
	
		<rect x="168.099" y="46.966" fill="none" stroke="#000000" stroke-width="5.7556" stroke-linecap="round" stroke-miterlimit="2.6131" width="10.894" height="10.894"/>
	<rect x="208.182" y="46.966" fill-rule="evenodd" clip-rule="evenodd" fill="#FFCB05" width="10.894" height="10.894"/>
	
		<rect x="208.182" y="46.966" fill="none" stroke="#000000" stroke-width="5.7556" stroke-linecap="round" stroke-miterlimit="2.6131" width="10.894" height="10.894"/>
	<rect x="248.266" y="46.966" fill-rule="evenodd" clip-rule="evenodd" fill="#FFCB05" width="10.894" height="10.894"/>
	
		<rect x="248.266" y="46.966" fill="none" stroke="#000000" stroke-width="5.7556" stroke-linecap="round" stroke-miterlimit="2.6131" width="10.894" height="10.894"/>
	<rect x="288.349" y="46.966" fill-rule="evenodd" clip-rule="evenodd" fill="#FFCB05" width="10.894" height="10.894"/>
	
		<rect x="288.349" y="46.966" fill="none" stroke="#000000" stroke-width="5.7556" stroke-linecap="round" stroke-miterlimit="2.6131" width="10.894" height="10.894"/>
	<rect x="328.228" y="46.966" fill-rule="evenodd" clip-rule="evenodd" fill="#FFCB05" width="10.894" height="10.894"/>
	
		<rect x="328.228" y="46.966" fill="none" stroke="#000000" stroke-width="5.7556" stroke-linecap="round" stroke-miterlimit="2.6131" width="10.894" height="10.894"/>
	<rect x="368.311" y="46.966" fill-rule="evenodd" clip-rule="evenodd" fill="#FFCB05" width="10.894" height="10.894"/>
	
		<rect x="368.311" y="46.966" fill="none" stroke="#000000" stroke-width="5.7556" stroke-linecap="round" stroke-miterlimit="2.6131" width="10.894" height="10.894"/>
	<rect x="408.393" y="46.966" fill-rule="evenodd" clip-rule="evenodd" fill="#FFCB05" width="10.896" height="10.894"/>
	
		<rect x="408.393" y="46.966" fill="none" stroke="#000000" stroke-width="5.7556" stroke-linecap="round" stroke-miterlimit="2.6131" width="10.896" height="10.894"/>
	<rect x="448.477" y="46.966" fill-rule="evenodd" clip-rule="evenodd" fill="#FFCB05" width="10.896" height="10.894"/>
	
		<rect x="448.477" y="46.966" fill="none" stroke="#000000" stroke-width="5.7556" stroke-linecap="round" stroke-miterlimit="2.6131" width="10.896" height="10.894"/>
	<rect x="488.561" y="46.966" fill-rule="evenodd" clip-rule="evenodd" fill="#FFCB05" width="10.895" height="10.894"/>
	
		<rect x="488.561" y="46.966" fill="none" stroke="#000000" stroke-width="5.7556" stroke-linecap="round" stroke-miterlimit="2.6131" width="10.895" height="10.894"/>
	<rect x="46" y="487.883" fill-rule="evenodd" clip-rule="evenodd" fill="#FFCB05" width="10.893" height="10.894"/>
	
		<rect x="46" y="487.883" fill="none" stroke="#000000" stroke-width="5.7556" stroke-linecap="round" stroke-miterlimit="2.6131" width="10.893" height="10.894"/>
	<rect x="46" y="447.799" fill-rule="evenodd" clip-rule="evenodd" fill="#FFCB05" width="10.893" height="10.895"/>
	
		<rect x="46" y="447.799" fill="none" stroke="#000000" stroke-width="5.7556" stroke-linecap="round" stroke-miterlimit="2.6131" width="10.893" height="10.895"/>
	<rect x="46" y="407.716" fill-rule="evenodd" clip-rule="evenodd" fill="#FFCB05" width="10.893" height="10.895"/>
	
		<rect x="46" y="407.716" fill="none" stroke="#000000" stroke-width="5.7556" stroke-linecap="round" stroke-miterlimit="2.6131" width="10.893" height="10.895"/>
	<rect x="46" y="367.633" fill-rule="evenodd" clip-rule="evenodd" fill="#FFCB05" width="10.893" height="10.896"/>
	
		<rect x="46" y="367.633" fill="none" stroke="#000000" stroke-width="5.7556" stroke-linecap="round" stroke-miterlimit="2.6131" width="10.893" height="10.896"/>
	<rect x="46" y="327.549" fill-rule="evenodd" clip-rule="evenodd" fill="#FFCB05" width="10.893" height="10.895"/>
	
		<rect x="46" y="327.549" fill="none" stroke="#000000" stroke-width="5.7556" stroke-linecap="round" stroke-miterlimit="2.6131" width="10.893" height="10.895"/>
	<rect x="46" y="287.671" fill-rule="evenodd" clip-rule="evenodd" fill="#FFCB05" width="10.893" height="10.894"/>
	
		<rect x="46" y="287.671" fill="none" stroke="#000000" stroke-width="5.7556" stroke-linecap="round" stroke-miterlimit="2.6131" width="10.893" height="10.894"/>
	<rect x="46" y="247.382" fill-rule="evenodd" clip-rule="evenodd" fill="#FFCB05" width="10.893" height="11.101"/>
	
		<rect x="46" y="247.382" fill="none" stroke="#000000" stroke-width="5.7556" stroke-linecap="round" stroke-miterlimit="2.6131" width="10.893" height="11.101"/>
	<rect x="46" y="207.298" fill-rule="evenodd" clip-rule="evenodd" fill="#FFCB05" width="10.893" height="11.101"/>
	
		<rect x="46" y="207.298" fill="none" stroke="#000000" stroke-width="5.7556" stroke-linecap="round" stroke-miterlimit="2.6131" width="10.893" height="11.101"/>
	<rect x="46" y="167.215" fill-rule="evenodd" clip-rule="evenodd" fill="#FFCB05" width="10.893" height="10.896"/>
	
		<rect x="46" y="167.215" fill="none" stroke="#000000" stroke-width="5.7556" stroke-linecap="round" stroke-miterlimit="2.6131" width="10.893" height="10.896"/>
	<rect x="46" y="127.131" fill-rule="evenodd" clip-rule="evenodd" fill="#FFCB05" width="10.893" height="10.896"/>
	
		<rect x="46" y="127.131" fill="none" stroke="#000000" stroke-width="5.7556" stroke-linecap="round" stroke-miterlimit="2.6131" width="10.893" height="10.896"/>
	<rect x="46" y="87.049" fill-rule="evenodd" clip-rule="evenodd" fill="#FFCB05" width="10.893" height="10.894"/>
	
		<rect x="46" y="87.049" fill="none" stroke="#000000" stroke-width="5.7556" stroke-linecap="round" stroke-miterlimit="2.6131" width="10.893" height="10.894"/>
</g>
<g>
</g>
<g>
</g>
<g>
</g>
<g>
</g>
<g>
</g>
<g>
</g>
</svg>
