<?xml version="1.0" encoding="utf-8"?>
<!-- Generator: Adobe Illustrator 16.0.4, SVG Export Plug-In . SVG Version: 6.00 Build 0)  -->
<!DOCTYPE svg PUBLIC "-//W3C//DTD SVG 1.1//EN" "http://www.w3.org/Graphics/SVG/1.1/DTD/svg11.dtd">
<svg version="1.1" id="Layer_1" xmlns="http://www.w3.org/2000/svg" xmlns:xlink="http://www.w3.org/1999/xlink" x="0px" y="0px"
	 width="615.214px" height="612px" viewBox="0 0 615.214 612" enable-background="new 0 0 615.214 612" xml:space="preserve">
<g>
	<path fill-rule="evenodd" clip-rule="evenodd" d="M17.477-0.081c-4.116,0.823-8.026,3.087-10.29,6.585
		c-5.556,6.585-6.174,16.463-7.409,24.901C-1.25,48.075,1.013,67.625,8.01,82.236c3.088,4.733,5.763,10.29,10.084,13.788
		c2.47,1.647,3.292,4.322,6.38,4.734c3.91,3.91,10.291,4.527,14.406,6.997c7.409,1.441,14.817,0.823,21.608-0.411
		c3.91-2.676,9.055-3.499,12.965-5.762c4.528-1.03,7.615-5.146,11.318-7.409c3.911-4.116,8.85-7.203,12.143-11.113
		c2.469-0.412,5.146-1.646,6.997-0.412c-1.646,2.881-5.351,3.911-7.409,6.585c-5.557,3.911-8.849,11.319-7.408,18.316
		c1.646,5.968,2.264,11.525,5.351,15.435c2.88,3.499,7.82,5.556,12.142,6.173c6.997,1.441,13.583,0.412,18.521-3.292
		c4.321-3.704,7.82-9.261,6.792-15.229c-1.441-4.115-3.087-7.614-5.557-10.701c-1.853-1.852-4.116-3.087-5.969-4.527
		c-6.379-1.646-13.994-2.263-16.668,3.499c-2.676,5.144-3.293,10.701-0.412,15.434c1.44,2.264,4.117,2.47,5.352,3.91
		c3.909,1.029,7.202,0.206,9.878-1.852c2.264-2.264,3.499-6.38,2.469-9.467c-1.646-2.881-4.116-4.322-6.997-4.939
		c-1.647,0.412-1.852,1.235-2.47,2.675c0,2.881,4.733,1.646,4.733,4.116c0.206,2.058-0.617,3.91-1.853,4.733
		c-2.263,0-5.557,0.617-6.173-0.617c-2.882-2.264-2.882-6.586-2.47-9.878c2.47-2.881,5.762-5.146,9.672-4.734
		c5.557,1.235,9.055,4.734,11.114,9.467c0.411,5.969-2.059,11.113-5.146,13.994c-5.556,3.91-12.965,3.704-18.521,0.823
		c-1.441-2.059-3.5-2.882-4.939-4.527c-3.705-3.911-3.705-10.084-3.087-15.229c1.646-3.293,2.469-6.792,4.734-8.849
		c0.823-2.058,3.086-2.47,3.91-3.499c2.675-1.646,5.35-2.47,7.615-3.704c2.675-0.823,5.351-1.646,7.82-1.646
		c14.817-3.91,30.046-2.058,44.451-3.91c20.58-0.413,40.336,0.411,60.503,0.823c21.197,0.412,41.776-0.618,62.15-0.618
		c20.58-0.411,40.953,0.206,60.709,0.206c21.197,1.029,41.159-0.206,61.533,0.617c20.99-0.206,40.952,0,61.738,0.206
		c12.141-0.206,25.312-0.412,36.425-0.618c9.878,1.646,20.991,0.412,30.663,0c0.207,20.168-0.618,40.542,0,60.915
		c-0.411,21.197,0.207,41.159-0.411,61.532c0.618,20.991-0.617,41.571,0.411,61.738c-0.822,11.73,0.207,22.432-0.411,33.133
		c0.411,20.373-0.207,40.953,0.206,61.12c-0.413,20.992,0.205,41.159-0.617,61.533c0.204,5.762,0.411,10.7,0.411,15.846
		c-0.207,20.785,1.234,40.54-0.207,61.327c-0.204,4.115-2.057,5.967-3.291,9.26c-2.265,1.646-2.47,4.115-4.734,5.557
		c-2.263,2.882-5.556,3.499-8.849,5.145c-8.025,2.47-15.846-0.206-21.196-5.762c-2.881-4.115-4.939-10.29-1.853-15.229
		c1.029-2.265,3.087-4.938,5.969-5.763c4.321-1.234,8.231-0.822,12.347,1.235c1.646,2.675,4.117,4.527,3.91,7.82
		c-0.411,2.469-0.617,5.145-1.853,6.584c-2.263,1.441-4.938,2.059-6.996,1.441c-2.469-1.233-3.91-2.264-4.939-4.732
		c-0.616-2.882,1.44-4.734,2.471-5.969c2.469-1.236,3.909,0.617,5.761,0.205c0.206-1.233-0.617-2.058-1.234-3.087
		c-2.47-0.823-5.351-0.616-7.203,0.617c-2.881,2.47-3.499,5.969-2.674,9.262c0.205,3.909,3.498,4.732,5.762,6.79
		c3.498,1.441,7.614,0.824,10.495-0.617c2.057-1.44,4.527-2.674,4.938-5.144c2.264-6.586,0.207-13.995-4.115-18.11
		c-4.322-3.91-11.113-4.322-16.464-2.469c-2.264,1.028-3.293,2.469-5.557,2.88c-5.145,4.321-7.614,12.143-7.202,18.933
		c0.205,4.117,2.264,6.792,3.498,9.056c3.704,4.733,7.819,6.585,13.171,7.409c6.585,2.674,12.76-1.854,18.933-2.882
		c3.499-2.881,7.409-4.939,9.878-8.849c0.412-0.411,0.824-0.411,0.824-0.411c0.617,2.469,1.234,7.201-0.206,9.878
		c-4.322,0.41-6.174,3.086-9.673,4.32c-4.321,2.882-8.231,5.969-10.906,9.673c-6.175,7.614-10.29,19.345-8.232,30.046
		c1.646,6.381,3.499,12.349,7.409,17.287c0,2.264,2.263,2.47,2.47,3.909c3.909,4.734,8.644,8.026,13.17,11.524
		c2.059,1.236,4.322,2.06,5.763,3.294c4.938,1.852,9.055,3.498,13.993,4.732c2.676,0.617,4.939,1.441,7.615,1.853
		c16.875,3.91,36.837,4.116,53.301-2.058c4.938-4.734,5.146-12.759,3.704-19.139c-1.44-1.646-2.058-4.322-3.294-5.763
		c-2.263-4.116-4.732-6.791-6.379-10.701c-1.235-1.028-1.028-2.058-1.646-3.087c-0.618-2.469-2.059-4.322-2.676-5.968
		c-3.911-10.496-5.557-21.608-5.763-32.517c-2.676-21.608-2.058-41.98-1.646-62.972l0.824-443.692L90.328,22.351
		c-17.286-3.91-31.692-3.499-48.566-12.348c-2.47-1.029-3.91-1.646-6.38-2.264C30.648,3.624,24.474-0.904,17.477-0.081"/>
	<path fill-rule="evenodd" clip-rule="evenodd" fill="#00A651" d="M20.77,4.858c-4.527-0.823-7.409,2.058-9.672,4.322
		c-1.853,3.499-4.322,6.791-4.527,10.496c-3.5,18.521-2.265,38.072,3.292,55.358c1.029,3.087,2.676,5.146,3.911,8.232
		c2.264,2.264,2.881,4.527,4.733,6.174c2.675,4.939,6.379,7.203,10.495,9.878c11.319,6.38,25.725,6.174,37.661,1.234
		c2.264-1.029,3.499-1.646,5.351-2.675c2.264-2.675,5.762-2.264,6.997-4.939c3.499-2.881,8.026-5.968,10.495-8.643
		c2.676-1.44,3.704-4.116,6.586-5.145c1.234-1.44,3.086-1.029,3.91-1.852c20.373-0.823,40.953,0.206,60.916,0
		c21.196-0.206,40.952,0.206,61.12,0.823c21.197-0.617,41.982,0,62.355-0.206c20.786-0.617,40.542,0.617,60.916,0.823
		c20.991,0.206,41.364-0.411,61.738,0.206c21.197,0,41.159,0.206,61.533,0.412c21.196-0.206,41.57,0.206,62.149-0.412
		c3.499,0.412,7.202-1.852,9.26,0.618c0.413,20.167,0.824,40.129,0.618,59.68c-0.412,4.733,0.206,8.849-0.205,13.376
		c0.205,20.58-0.207,41.159,0.205,61.327c-0.412,21.197-0.205,41.159,0,61.738c-0.412,9.055,0.206,17.081,0.206,25.519
		c-0.206,20.374-0.411,40.953,0,61.121c0,20.99-0.411,40.953-0.411,61.326c0,21.197,0.616,41.776,0.205,61.944
		c-1.029,13.377,2.881,28.605-1.853,39.101c-7.82,2.881-13.788,6.586-18.727,11.524c-1.646,2.881-3.499,4.322-4.733,6.998
		c-2.471,3.498-3.087,6.789-4.116,11.112c-1.028,7.819,0.412,15.229,3.909,21.402c2.06,4.115,4.734,8.438,7.204,11.523
		c3.704,3.293,7.819,5.146,10.907,7.82c1.646,1.854,4.938,2.471,6.586,3.912c5.968,2.674,11.935,4.115,17.903,6.173
		c13.993,3.087,29.222,3.087,43.423,0.616c5.762-0.823,8.643-4.527,10.083-9.466c0.413-4.115-0.411-7.819-2.469-10.29
		c-3.499-6.38-7.204-11.524-9.878-17.698c-8.438-17.698-10.496-37.455-11.524-55.358l0.822-484.85l-477.236,1.235
		c-9.878-0.206-19.55,1.029-28.604-1.853c-4.117,0-9.467-1.852-13.995-2.264c-4.939-1.44-9.878-2.469-13.994-4.322
		c-7.203-0.617-12.76-4.733-17.904-7.408c-1.853-2.264-4.733-2.881-6.38-4.733C26.326,7.739,24.269,5.475,20.77,4.858"/>
	<path fill-rule="evenodd" clip-rule="evenodd" d="M30.442,21.322c-3.087,0-6.997-0.412-8.849,2.264
		c-2.88,3.292-3.499,7.614-4.527,11.936c-0.206,8.026,0.206,15.229,1.852,22.637c3.499,9.466,8.026,17.904,15.435,23.46
		c1.235,2.675,4.116,2.675,5.557,4.939c2.676,1.234,4.939,1.852,7.203,2.881c10.083,2.881,18.727-1.646,24.901-6.997
		c0.823-2.47,3.499-2.47,4.528-4.528c3.498-2.058,4.527-5.762,7.408-8.437c0.618-2.264,3.293-0.412,5.146-2.058l462.007-1.647
		l1.853,459.332c2.264,1.441,4.115,3.499,3.91,6.175c-0.618,3.703-5.146,3.292-5.968,5.761c-7.409,2.882-12.76,5.969-16.875,11.731
		c-1.646,2.47-2.47,4.732-3.498,6.585c-1.03,2.059-0.824,3.909-1.853,5.351c-1.235,10.085,2.881,19.139,9.672,23.873
		c5.557,3.91,11.319,5.967,18.521,8.025c12.965,3.087,27.165,3.91,39.513,0.205c0.823-1.234,1.028-2.469,0.41-3.087
		c-3.086-3.704-4.32-8.643-6.791-12.553c-3.703-8.85-7.202-17.492-9.054-26.753c-3.087-11.938-2.881-22.844-2.47-34.985
		l-2.265-476.824H90.534c-13.582-0.618-25.519-3.087-37.866-6.38c-3.292-2.058-6.791-3.087-10.496-4.733
		c-3.087-1.029-4.733-2.675-7.408-3.704C33.324,22.556,31.883,21.939,30.442,21.322"/>
	<path fill-rule="evenodd" clip-rule="evenodd" fill="#ADBC72" d="M29.619,25.231c-2.676-0.411-5.145,1.029-6.174,3.087
		c-3.704,11.113-2.47,23.667,2.47,34.985c1.647,4.116,3.705,7.202,6.38,10.906c3.293,3.293,6.585,5.969,10.495,8.026
		c5.763,2.47,11.114,5.146,16.67,3.498c2.264-2.264,6.173-2.057,7.409-4.732c4.938-3.087,8.848-7.409,11.936-11.319
		c2.264-4.528,2.264-6.997,6.996-9.055c13.377,1.44,24.696,0.823,37.249,1.235l432.786-0.207l0.617,451.924
		c-0.207,2.263-1.029,6.174-0.207,8.025c3.294,2.47,5.351,5.968,4.733,10.085c-0.616,2.262-2.47,3.703-3.087,5.144
		c-1.646,1.646-3.292,2.47-4.938,3.705c-3.499,1.234-5.969,2.881-8.643,4.321c-1.646,2.675-4.734,3.087-6.175,5.557
		c-4.115,4.527-6.997,11.524-5.968,17.697c0.823,2.059,0.411,3.91,1.853,4.734c0.411,2.058,1.852,3.703,2.881,4.732
		c2.058,2.47,4.527,4.116,6.997,5.968c14.199,6.174,31.692,8.438,46.922,5.969c-0.413-2.675-1.853-5.556-2.882-8.438
		c-1.235-1.235-1.03-2.675-2.264-3.91c-3.087-6.997-5.764-14.611-7.82-21.814c-1.647-8.025-4.939-17.493-4.939-25.106
		l-1.646-486.497l-451.923-0.617c-17.904,1.44-35.808-0.206-52.889-3.705c-5.556-0.823-9.878-2.675-15.435-4.116
		c-2.675-2.058-7.614-1.852-9.878-4.527C36.616,29.348,33.94,26.878,29.619,25.231"/>
	<path fill-rule="evenodd" clip-rule="evenodd" d="M288.713,85.529c-19.55-0.206-39.718,1.235-58.857,4.939
		c-10.496,1.029-18.934,4.527-28.811,6.585c-6.174,2.675-13.789,3.705-19.139,7.203c-3.499,0.617-6.379,1.441-9.261,2.881
		c-3.704,2.264-8.026,2.47-11.113,5.351c-6.173,1.646-10.29,5.351-16.257,7.409c-1.441,1.234-2.882,2.264-4.939,2.469
		c-4.527,3.293-10.29,6.379-15.023,9.261c-2.881,1.44-4.939,3.499-7.409,4.322c-3.91,3.087-7.614,5.145-10.701,7.82
		c-3.499,1.441-4.528,3.705-7.409,5.351c-3.91,3.498-7.409,6.379-10.907,9.466c-4.321,4.116-8.438,7.203-11.936,11.113
		c-4.734,3.705-7.409,6.997-11.32,11.73c-3.086,4.116-6.379,8.026-9.054,12.141c-1.234,1.647-2.058,3.5-1.234,4.734
		c7.202,3.91,16.257,5.351,22.637,8.849c2.675,0.412,4.938,1.029,6.79,1.44c5.763,3.293,12.143,4.322,17.905,6.791
		c3.293,0.824,6.792,1.647,9.467,2.47c0.411,5.969,1.44,12.142,2.881,17.081c1.235,1.646,1.441,3.499,2.058,4.939
		c0.617,2.264,1.441,2.881,1.852,4.527c1.853,4.733,4.322,8.644,6.792,12.348c2.058,3.704,5.145,6.997,8.026,9.878
		c1.852,0.823,2.47,2.676,4.733,3.292c3.087,3.705,8.026,6.174,11.73,8.849c2.676,1.235,4.939,2.675,7.409,3.499
		c4.322,2.469,9.467,3.499,14.406,5.351c3.499,0.411,6.791,2.058,9.877,2.469c3.705,1.852,7.615,2.058,11.525,3.087
		c3.292,1.852,8.232,0.823,10.907,2.88c5.968,16.67,7.821,35.809,10.495,53.096c1.441,6.174,1.647,11.524,3.911,17.698
		c0.411,1.028,0.617,1.852,0.617,2.47c1.853,5.145,3.499,9.466,6.174,13.377c3.499,5.144,9.055,8.849,13.17,11.729
		c5.762,3.292,10.907,5.146,17.287,6.997c4.116,1.029,8.644,2.264,12.554,2.881c5.144,1.853,10.495,2.47,15.434,2.882
		c9.056,2.47,17.904,2.674,26.342,4.938c5.762,0.617,11.113,2.264,16.67,2.881c3.498,1.234,5.762,2.47,9.055,3.705
		c1.44,3.498,1.646,5.969,3.087,9.466c5.144,15.846,11.113,31.486,19.139,45.069c2.88,5.556,6.379,10.495,9.672,14.611
		c2.47,2.881,4.732,5.968,7.203,8.231c1.235,1.853,3.087,2.675,3.705,4.115c3.91,2.471,6.379,5.352,9.672,7.822
		c3.291,2.469,5.761,4.938,9.465,6.173c3.705,4.115,10.909,4.526,13.789,9.054c1.029,5.558,3.499,11.319,4.939,16.259
		c1.44,2.469,1.646,5.762,2.881,7.82c0,2.674,1.852,4.938,1.646,7.202c2.675,2.676,1.441,7.614,5.144,9.261
		c3.499,0,4.94-3.293,7.41-4.321c3.91-4.116,7.613-8.026,10.906-11.937c1.44-0.822,2.471-3.087,3.704-3.91
		c1.03-2.264,3.294-4.115,4.322-5.968c7.82-8.438,13.788-19.345,21.197-27.371c1.646-3.292,3.91-5.144,5.351-8.438
		c1.852-0.822,1.852-3.498,3.292-4.528c1.852-3.908,4.322-6.789,5.969-11.111c4.527-7.202,8.643-13.788,12.142-21.197
		c2.058-3.498,3.087-6.585,4.733-9.878c4.733-10.701,9.055-22.638,12.553-34.161c1.853-6.997,3.705-14.405,5.558-21.402
		c1.646-9.878,3.498-20.374,4.526-30.252c2.471-20.168,2.676-40.337,0.823-60.298c-0.617-11.319-3.293-22.02-5.145-32.721
		c-1.44-5.351-2.265-10.29-4.321-15.229c-0.618-4.116-2.676-6.174-2.882-10.29c-1.646-4.528-3.498-8.231-4.938-12.348
		c-1.235-1.852-0.823-3.499-1.646-4.733c-1.44-2.675-2.058-5.762-3.499-8.232c-3.498-9.672-7.614-19.139-12.347-27.371
		c-1.235-3.91-5.352-6.585-5.557-9.672c3.909-2.881,8.643-5.145,13.376-3.293c4.322,3.293,8.644,6.585,10.906,11.319
		c6.587,10.495,8.232,23.46,11.525,35.396c0.412,3.704,0.412,8.026,3.087,10.29c1.44,1.029,3.088-0.412,4.116-1.44
		c0.823-20.786-0.618-41.365,0.205-61.327c-0.205-21.608-0.823-41.776-0.411-62.355c-0.617-9.878,0-19.756-1.029-28.811
		c-20.579-0.823-40.335,0.412-60.915-1.029c-20.374-0.617-40.541,0.207-60.502-0.823c-4.323,0-9.057-1.44-11.938,0.823
		c-1.235,2.47,1.028,4.734,2.059,5.969c4.527,1.234,7.819,1.646,11.936,3.086c4.733,0.823,8.438,3.087,13.377,3.91
		c5.969,2.881,11.318,5.145,15.022,9.878c0.411,0.823,0.617,0.823,0.823,1.235c-1.234,1.852,0.823-0.412,1.029,0.823
		c2.059,3.499,0.823,7.203,0.205,10.496c-1.44,1.646-1.44,4.321-3.497,4.733c-3.705-1.029-6.998-3.704-10.291-4.939
		c-4.115-2.676-8.643-4.116-12.347-6.792c-4.528-1.234-6.997-3.91-11.319-4.527c-6.585-3.293-13.376-6.174-20.167-9.673
		c-9.056-2.264-16.875-5.145-25.726-7.203c-5.556-2.675-12.758-1.44-17.697-4.322C322.67,88.205,306,83.883,288.713,85.529"/>
	<path fill-rule="evenodd" clip-rule="evenodd" fill="#FFCB05" d="M301.679,87.793c-20.167,0.823-40.953,0.617-61.327,2.881
		c-4.115,0.206-7.82,1.853-11.113,2.264c-9.467,0.412-17.698,4.116-26.753,5.557c-3.499,2.264-8.232,1.853-10.702,3.91
		c-2.469,0.412-4.321,1.44-6.173,1.646c-4.733,2.059-8.438,3.705-12.965,4.939c-4.938,2.264-10.496,3.91-14.405,6.792
		c-4.939,0.411-7.408,3.909-11.113,5.145c-3.087,2.469-7.82,3.704-10.907,5.968c-2.675,1.441-4.734,3.087-7.615,4.116
		c-2.676,2.469-5.968,3.292-8.026,5.351c-2.676,0.823-3.499,2.264-5.557,3.499c-2.263,1.234-3.704,3.087-5.762,3.704
		c-3.911,3.499-7.408,5.557-11.113,8.849c-2.058,1.235-2.881,2.675-4.527,3.704c-2.264,2.675-4.527,3.705-5.968,5.557
		c-3.499,2.264-5.557,4.939-8.232,7.203c-2.676,2.264-4.938,4.528-7.408,6.997c-2.058,3.705-4.939,5.762-6.997,8.849
		c-2.675,3.087-5.762,5.557-6.38,9.467c3.91,2.881,9.878,3.499,14.817,6.174c8.231,2.058,15.229,5.145,22.432,7.203
		c8.849,3.705,18.933,5.762,27.371,8.849c4.116,1.44,8.438,1.646,11.319,3.91c8.643,1.44,16.669,5.763,24.901,6.997
		c2.675,1.852,5.556,1.235,8.849,1.852c2.264,0,4.116,0.823,5.762,0.617c0-1.029-1.029-1.852-1.235-2.881
		c-4.116-5.762-7.82-12.348-14.199-16.669c-3.705-2.058-8.438-2.881-11.937-4.939c-3.292,0.206-4.938-2.675-7.614-3.087
		c-4.116-2.882-8.438-5.968-11.525-9.878c-0.411-2.469-2.058-3.292-2.264-5.762c-1.646-4.116-1.234-9.055,0.412-12.965
		c1.646-3.292,3.499-5.556,5.557-8.438c5.968-6.585,12.553-11.73,17.698-17.493c2.058-1.646,3.705-2.675,5.762-4.116
		c2.059-2.263,5.557-2.881,7.408-5.557c2.881-0.823,4.117-2.88,6.38-4.116c3.086-2.264,5.557-3.292,8.438-5.145
		c3.086-1.029,5.35-2.881,7.819-3.91c4.117-2.47,8.438-2.881,12.554-5.351c4.322-1.235,7.203-1.44,10.701-3.499
		c7.408-0.823,12.759-3.086,19.139-3.91c8.437-3.086,16.463-2.675,24.9-4.939c20.991-3.292,41.159-2.469,61.532-0.206
		c7.203,0.206,12.966,2.675,19.757,2.881c6.174,2.47,12.553,1.441,18.11,4.528c11.936,1.852,22.431,6.585,33.133,9.467
		c2.88,2.058,6.584,2.058,9.261,4.116c4.114,1.028,6.379,2.675,9.465,3.91c3.088,1.441,5.146,2.881,8.232,3.91
		c2.059,1.852,4.939,2.675,6.586,4.527c1.646,0.618,2.469,1.441,3.91,0.412c4.32-2.881,6.791-6.792,10.084-10.496
		c-0.823-2.264-3.705-2.264-5.146-3.911c-3.704-1.234-5.762-3.704-9.261-4.733c-4.527-2.881-9.466-4.527-13.582-6.997
		c-4.527-1.235-7.821-3.911-12.141-4.734c-2.265-1.646-4.323-1.852-5.969-3.292c-2.881-1.441-5.556-2.058-8.232-3.293
		c-5.351-1.029-10.083-3.499-14.817-4.117c-17.082-5.967-34.162-7.202-52.066-10.701C307.441,88.616,304.766,88.205,301.679,87.793"
		/>
	<path fill-rule="evenodd" clip-rule="evenodd" fill="#FFCB05" d="M408.485,90.262c-1.44,0-3.087-0.206-4.938,0
		c7.615,1.441,14.816,4.527,22.431,6.174c2.47,2.264,6.997,2.881,9.261,5.146c4.116,2.881,7.615,5.967,9.879,9.672
		c2.264,6.174,0.823,12.759-1.646,17.492c-3.909,4.322-5.969,9.056-10.084,11.73c-3.704,3.293-6.791,6.586-10.7,9.055
		c-3.705,3.293-7.615,5.351-11.114,8.026c-5.556,2.675-10.289,6.38-16.463,8.232c-6.174,4.115-15.023,5.762-21.607,8.643
		c3.086,6.174,5.967,11.937,8.848,18.111c0.823,1.646,0.618,3.498,2.058,4.116c8.438-2.881,17.287-5.763,25.107-9.878
		c8.026-3.705,16.052-7.409,22.843-11.73c1.235-2.058,3.91-1.44,4.733-3.499c4.734-2.263,7.408-5.145,11.525-8.025
		c2.263-2.47,4.938-3.293,6.79-5.557c3.087-1.44,4.733-4.733,8.232-4.939c1.029,0.618,2.058,1.029,2.058,2.058
		c-2.676,5.351-5.763,10.29-8.231,15.229c-2.059,2.47-2.882,4.938-4.527,7.203c-2.264,3.292-3.087,6.174-5.351,9.261
		c-1.646,3.292-3.293,5.145-4.939,8.643c-1.44,1.852-1.853,3.499-3.086,5.145c-2.264,3.704-3.705,6.997-5.969,10.496
		c-1.235,1.234-1.853,3.292-2.47,4.321c-1.44,2.059-2.058,4.939-3.499,6.792c-1.439,3.087-3.499,6.791-3.909,9.672
		c4.527,2.264,8.643,4.116,13.583,5.968c2.264,2.058,4.732,2.47,6.584,3.91c2.881-0.823,2.264-4.733,3.705-6.174
		c1.235-2.469,2.058-3.91,2.675-6.174c2.676-6.791,6.792-11.73,9.672-17.492c2.265-2.675,3.499-5.351,5.763-8.026
		c1.646-1.852,2.676-3.292,4.115-5.351c2.06-1.235,2.677-3.292,4.733-4.527c1.441-1.852,2.882-2.675,4.528-4.321
		c3.704-1.853,5.145-4.528,8.438-6.174c3.499-2.264,8.231-3.086,12.348-3.086c4.528,0.617,6.38,2.881,9.466,4.527
		c1.029,1.646,2.265,2.469,3.293,3.292c1.44,2.264,2.882,4.322,4.116,6.585c2.47,3.91,3.911,8.026,5.557,12.348
		c2.264,8.644,4.733,18.11,5.968,26.547c0.412-20.167-0.206-40.747-0.412-61.121c0.617-20.991-0.205-41.57,0.206-61.738
		c-0.206-6.792-0.411-12.759-0.617-18.933c-19.756-0.412-40.335-0.618-60.298-0.618C447.176,89.851,427.83,90.88,408.485,90.262"/>
	<path fill-rule="evenodd" clip-rule="evenodd" fill="#647B98" d="M280.688,111.459c-9.878,1.028-20.785,0.823-30.046,3.292
		c-11.318,0.823-20.991,3.91-31.486,5.968c-4.116,1.44-7.202,2.058-11.112,3.292c-7.203,2.058-12.554,4.939-19.139,6.998
		c-2.676,2.058-6.586,2.675-8.437,4.733c-5.352,2.264-8.232,6.174-13.172,8.438c-1.852,2.058-3.705,3.086-5.762,4.939
		c-3.91,2.264-6.173,4.939-9.672,7.409c-6.792,6.379-14.406,12.141-18.728,20.167c-0.206,0.412,0,0.823,0,0.823
		c5.968-0.206,10.496,2.47,15.846,3.704c8.643,3.705,16.875,7.82,24.49,12.554c1.852,1.852,4.116,2.469,5.761,4.116
		c2.882,1.234,4.117,3.91,6.792,5.144c0.411,2.058,2.058,2.47,3.499,3.087c6.173,1.44,11.318,1.44,17.081,1.44
		c-1.03-5.351-5.145-9.261-6.792-14.611c-3.703-7.614-6.585-16.052-9.055-24.078c-1.44-8.644-3.292-19.139-0.205-26.547
		c18.521-5.145,36.425,4.116,51.037,10.701c4.733,2.058,8.849,4.527,12.758,6.998c2.264,1.852,5.351,2.264,7.203,4.321
		c5.351,3.087,8.849,7.408,13.17,11.524c3.91,4.733,9.672,8.849,13.583,13.376c2.058,1.029,2.469,4.939,5.351,4.733
		c6.997-1.029,12.965-3.087,18.521-4.733c-2.265-5.967-5.968-11.73-8.438-18.727c-3.91-9.26-6.997-19.139-8.849-29.429
		c-0.618-8.438-4.939-19.55,0.823-25.107c4.527,2.059,9.467,0.824,12.965,3.293c2.881,1.441,6.379,2.47,8.644,4.116
		c2.675,0.617,3.292,3.087,5.968,3.087c2.881,2.675,6.173,3.292,8.644,5.762c4.116,2.263,5.967,4.939,9.672,6.791
		c1.439,2.469,4.116,2.881,5.351,4.733c4.116,2.881,7.613,6.585,10.701,9.878c0.823,2.264,2.881,2.881,3.909,4.939
		c2.47,2.469,5.146,5.556,6.998,8.231c0.618,1.441,1.029,2.47,2.47,2.264c7.821-1.44,15.023-3.91,21.402-7.203
		c3.909-1.029,6.379-3.293,9.467-4.322c5.968-3.086,11.525-6.585,16.876-10.29c0.822-2.264-2.677-3.086-3.705-4.115
		c-3.293-1.029-4.734-2.882-7.614-3.705c-2.264-2.47-5.557-2.058-8.026-3.91c-5.556-1.44-9.877-3.91-14.405-5.557
		c-3.499-2.058-8.232-1.646-11.114-4.321c-5.351,0.206-9.466-2.264-13.788-3.293c-17.286-4.939-35.19-8.026-52.272-10.083
		C298.592,111.871,289.742,111.871,280.688,111.459"/>
	<path fill-rule="evenodd" clip-rule="evenodd" fill="#FFCB05" d="M297.974,121.337c-0.617,10.29,2.264,21.815,4.528,31.692
		c2.88,8.438,5.35,16.463,9.055,23.667c0.823,2.47,2.47,3.91,3.292,6.174c1.853,1.646,2.058,4.733,4.323,5.351
		c2.88-1.852,6.997-1.852,9.672-3.704c-3.705-8.026-9.467-15.435-8.644-25.725c0.823-1.646,2.058-2.675,3.499-2.881
		c5.762,1.029,11.112,3.704,14.406,6.792c3.292,1.646,5.968,4.322,8.026,7.202c3.087,2.882,4.527,6.792,6.791,9.878
		c1.646,3.499,3.293,6.173,5.144,9.055c1.235,3.498,1.853,5.762,3.499,9.055c6.38,18.933,7.204,39.307,6.175,58.239
		c-0.207,7.82-2.47,16.258-2.47,22.432c3.704,1.235,6.997,3.292,10.29,4.528c0.823,0.411,1.646,0.823,2.058,0.411
		c1.647-4.939,0.617-10.084,2.675-15.64c2.264-20.374,4.527-40.748,0.411-60.709c-2.262-13.994-8.848-23.667-14.405-34.367
		c-2.47-3.911-5.556-7.409-8.437-10.496c-2.06-3.086-4.734-5.145-6.792-8.026c-1.852-1.235-3.292-3.499-4.733-4.322
		c-3.293-3.087-6.791-5.145-9.673-8.026c-3.086-2.264-5.762-5.145-9.261-6.791c-2.264-2.059-4.732-2.47-6.585-4.528
		c-4.116-1.647-5.557-3.911-10.084-4.733C307.235,123.395,302.914,121.749,297.974,121.337"/>
	<path fill-rule="evenodd" clip-rule="evenodd" fill="#FFCB05" d="M197.547,145.827c-1.029,0.205-2.881-0.413-3.499,0.412
		c-2.265,17.698,6.585,35.396,13.17,50.419c2.881,3.292,4.115,8.643,7.408,10.701c4.939,0,9.672,0.412,13.788-1.029
		c-2.88-4.733-6.173-9.878-7.408-16.463c-1.647-4.527-2.264-9.878-0.412-14.2c0.412-1.235,0.823-2.058,2.059-2.264
		c8.437,0.206,17.492,2.675,24.283,5.762c5.762,3.499,11.524,5.968,16.052,10.701c5.557,3.499,11.113,9.466,15.229,13.994
		c2.469,4.116,5.351,6.792,7.409,10.908c3.086,3.086,4.321,7.203,6.585,10.906c1.853,2.264,1.646,4.734,3.705,6.792
		c4.939,0.206,10.702-1.029,14.405-1.44c-2.264-7.409-6.997-13.582-11.318-20.167c-2.469-2.881-4.116-5.763-6.586-8.644
		c-2.263-3.087-4.321-4.939-6.379-7.82c-2.264-1.441-2.882-3.705-4.939-4.939c-3.91-3.705-8.026-6.585-10.908-10.496
		c-2.263-1.852-4.115-3.91-6.173-5.762c-2.264-1.234-4.527-3.91-6.791-4.733c-1.852-2.675-5.145-2.47-6.997-4.734
		c-2.058-0.411-2.676-1.646-4.116-2.058c-2.263-2.058-5.762-2.469-7.819-4.321c-4.322-1.235-5.968-3.087-10.083-4.322
		c-2.676-2.058-5.557-2.469-8.85-4.115c-3.704-0.824-6.585-1.647-10.084-2.47C204.956,146.032,201.045,145.621,197.547,145.827"/>
	<path fill-rule="evenodd" clip-rule="evenodd" fill="#647B98" d="M327.608,161.673c-0.823,0.206-2.47-0.618-2.88,0.618
		c1.646,8.026,5.556,14.817,9.466,20.579c1.852-0.823,3.91-0.617,5.351-1.235c2.676-0.617,5.144-1.852,6.791-2.881
		c-2.469-4.528-4.939-7.82-8.643-10.907c-2.676-1.44-4.528-4.116-7.614-4.733C329.666,162.084,328.844,161.467,327.608,161.673"/>
	<path fill-rule="evenodd" clip-rule="evenodd" fill="#647B98" d="M454.172,165.583c-3.087,1.441-5.556,3.91-8.231,5.968
		c-2.059,2.058-5.351,2.881-6.997,4.733c-3.087,2.059-5.763,3.91-8.643,5.351c-2.471,2.058-5.763,2.675-7.821,4.528
		c-5.351,0.823-7.615,4.527-12.553,5.556c-5.557,3.292-12.143,5.145-17.287,7.614c-2.47,0.413-5.146,1.235-6.998,2.059
		c0.617,7.615,1.646,16.257,2.058,22.638c11.112-0.206,22.844,3.292,31.898,6.173c1.646-5.351,4.321-8.643,5.968-13.788
		c1.029-1.852,1.647-3.91,2.881-5.145c0.412-1.853,1.44-2.882,2.265-4.322c1.853-2.675,3.087-5.968,5.145-9.054
		c0.411-1.853,1.853-3.705,2.675-4.939c1.234-1.646,1.646-3.292,3.087-4.733c3.705-6.379,6.586-12.348,10.702-18.521
		C452.525,167.847,454.378,166.612,454.172,165.583"/>
	<path fill-rule="evenodd" clip-rule="evenodd" fill="#647B98" d="M228.416,178.754c-1.234,0.412-3.498-0.411-4.116,0.617
		c-0.206,8.849,4.116,18.11,8.232,24.078c8.849,3.498,21.402-0.618,31.28-1.029c1.852-0.412,2.264-1.853,3.91-1.647
		c-2.264-3.499-7.203-5.556-9.672-8.643c-3.499-1.029-4.527-3.704-7.614-4.527C243.851,183.898,236.648,180.194,228.416,178.754"/>
	<path fill-rule="evenodd" clip-rule="evenodd" fill="#FFCB05" d="M134.368,182.458c-0.617,0.412-2.469-0.412-2.675,0.617
		c0.411,5.145,2.469,8.438,5.557,10.907c5.144,5.557,13.582,8.232,19.961,11.113c9.055,1.029,14.405,8.232,18.728,14.406
		c2.469,3.704,4.938,7.203,6.997,10.496c2.881,4.939,5.145,9.466,8.026,14.2c3.292,8.232,6.586,16.257,9.055,24.489
		c0.206,1.235,0.618,2.676,1.441,2.676c5.351,0.617,10.496,2.264,15.229,0.823c-1.853-4.939-3.499-9.878-5.145-14.612
		c-2.47-6.791-5.351-12.965-7.82-18.727c-4.115-7.409-7.409-15.846-12.553-22.02c-0.206-1.441-1.441-2.058-1.853-3.087
		c-4.528-4.322-8.231-8.231-12.347-10.907c-3.705-3.704-8.85-5.557-12.554-8.849C154.742,189.455,145.481,184.516,134.368,182.458"
		/>
	<path fill-rule="evenodd" clip-rule="evenodd" fill="#FFCB05" d="M349.011,183.075c-3.499,1.853-7.819,3.087-11.318,4.322
		c-13.376,4.528-26.959,8.026-40.542,10.907c-0.617,1.646,1.441,2.264,1.441,3.499c1.852,1.441,2.263,3.91,4.321,5.762
		c0.823,1.852,2.469,3.087,2.88,4.527c1.853,2.058,2.882,4.322,4.323,6.174c10.289-1.235,19.139-3.499,29.223-5.762
		c3.292-1.646,7.408-2.47,10.7-3.705c3.293-0.617,6.998-1.029,9.056-2.675c-2.058-8.026-5.557-15.229-9.056-22.638
		C349.629,183.487,349.011,183.075,349.011,183.075"/>
	<path fill-rule="evenodd" clip-rule="evenodd" fill="#FFCB05" d="M484.423,191.719c-3.704,1.44-5.967,5.351-9.054,7.409
		c-0.412,1.235-2.264,2.058-1.853,3.499c2.264,2.675,3.91,6.174,5.351,8.849c6.174,13.377,11.113,27.988,15.846,41.982
		c1.029,1.44,0.618,3.705,1.647,4.528c1.646,5.968,4.115,12.142,5.35,17.904c1.235,1.646,0.824,3.086,1.646,5.351
		c5.351,19.55,6.792,37.66,6.997,57.211c-0.205,9.878-1.233,18.933-2.675,27.987c-1.029,2.882-0.205,4.939-1.235,7.203
		c-2.264,13.377-5.762,23.872-9.466,36.219c-2.059,5.352-4.116,10.291-5.763,15.229c-2.058,3.5-3.293,7.615-5.351,10.496
		c-2.264,6.379-5.762,11.73-8.849,16.875c-1.646,2.469-2.471,4.938-4.116,6.584c-1.646,1.854-3.293,3.706-4.527,5.558
		c-4.321,4.938-9.672,8.438-14.2,11.73c-2.469,1.234-4.732,1.234-6.585,2.469c-7.409,0.823-14.817-2.264-18.316-6.997
		c-4.732-4.732-4.321-12.76-9.466-16.257c-2.676-2.47-5.557-5.146-8.85-6.791c-1.646-1.853-3.705-2.882-5.762-4.527
		c-2.882-0.618-3.705-3.705-6.586-3.293c1.029,8.025,1.853,15.64,3.499,23.666c0.411,3.293,1.646,6.585,2.058,9.466
		c1.029,3.294,0.822,5.557,2.058,8.644c3.91,17.492,8.232,33.957,13.583,51.037c1.234,3.087,1.646,5.557,3.087,8.644
		c1.852,4.939,3.086,10.495,5.351,15.023c2.675-0.824,3.91-3.911,6.174-4.733c0.617-2.47,3.499-2.881,3.91-4.939
		c2.675-1.646,4.939-5.351,6.585-6.997c1.029-2.057,2.058-3.498,3.705-4.733c2.263-3.704,5.351-6.379,7.614-10.084
		c2.675-2.881,4.115-5.968,7.202-9.055c1.029-2.059,2.264-3.292,3.498-5.35c1.647-1.236,1.853-2.882,3.088-4.117
		c2.675-3.293,4.733-6.379,6.79-9.672c1.853-3.91,4.322-7.409,6.176-11.113c1.646-1.44,1.851-3.498,3.086-4.526
		c2.058-3.704,4.115-7.203,6.174-10.496c5.556-10.907,10.701-22.226,15.229-33.956c2.263-5.968,4.115-13.171,5.967-18.521
		c1.029-3.293,1.853-5.969,2.47-9.466c4.938-17.288,6.997-35.809,8.644-53.096c1.235-21.196,0.206-41.775-2.264-61.532
		c-3.292-17.698-7.409-34.368-13.583-50.831c-6.173-15.435-11.936-30.046-18.933-44.657
		C488.333,196.452,486.894,193.159,484.423,191.719"/>
	<path fill-rule="evenodd" clip-rule="evenodd" fill="#FFCB05" d="M272.25,204.89c-18.11,4.527-37.25,5.968-55.771,7.82
		c-8.026,0.412-14.817-1.028-22.02-0.205c0.618,1.029,1.234,2.264,2.059,3.086c3.087,4.527,5.762,9.672,8.437,14.406
		c19.962,4.321,41.57-1.44,62.149-2.058c6.792-0.206,11.319-3.087,17.493-2.881c0.823-0.412,0.823-0.618,0.823-0.618
		c-0.411-3.292-2.881-4.322-4.116-7.82C278.013,212.709,276.366,207.977,272.25,204.89"/>
	<path fill-rule="evenodd" clip-rule="evenodd" fill="#647B98" d="M470.225,206.33c-4.322,3.292-6.174,8.438-9.056,12.348
		c-1.852,2.881-3.087,6.585-5.146,9.055c-1.646,5.968-6.584,11.73-6.791,17.698c2.058,1.234,3.088,2.881,4.939,3.293
		c4.733,4.527,9.672,8.438,13.994,12.965c0.617,1.646,2.676,2.881,3.498,4.321c4.734,5.557,8.438,11.73,12.554,17.287
		c5.351,9.467,10.495,20.168,14.2,31.28c1.028,4.116,3.087,9.056,0.411,11.937c-8.438,1.028-15.229-3.293-23.254-4.527
		c-6.175-3.087-12.76-4.527-18.728-7.202c-3.91-1.235-6.38-3.294-9.879-4.733c-2.264-2.059-5.351-2.676-7.82-4.117
		c-3.498-1.234-4.938-3.704-7.819-5.351c-0.823-0.412-1.853-1.234-2.059-0.617c-0.617,2.88-1.233,5.967-2.057,8.025
		c0.205,3.498-1.854,6.792-1.236,9.673c4.116,4.527,7.821,8.643,11.113,12.964c1.029,1.853,2.881,3.088,3.704,4.734
		c1.853,1.852,3.294,4.527,4.734,6.379c2.263,5.352,5.967,9.056,8.025,13.994c2.676,3.293,3.91,6.38,5.763,9.467
		c4.938,11.936,10.289,23.46,12.347,35.809c1.235,3.91,1.646,6.997,2.881,10.289c0.617,5.146,4.528,10.083,1.03,13.788
		c-12.966,4.527-26.549,1.029-39.102-1.646c-4.527-3.087-9.467-4.116-13.377-6.996c-2.058-1.029-3.498-2.059-4.938-3.705
		c-0.206,2.264-0.617,6.38,0.205,8.438c2.676,1.234,3.705,3.499,5.969,3.909c1.646,2.881,4.733,3.5,6.174,5.557
		c2.881,2.059,5.145,3.91,7.614,6.174c1.028,2.058,2.675,2.47,3.705,4.733c1.852,1.852,2.674,3.293,4.115,4.733
		c4.115,6.791,9.055,11.729,11.113,19.962c0.411,0.618,1.028,1.646,1.646,0.823c3.292-3.087,6.379-6.174,9.261-10.084
		c2.264-2.47,3.292-5.145,4.938-7.614c2.47-4.322,4.732-7.409,6.586-11.524c1.646-3.704,3.499-7.203,5.35-10.908
		c1.235-2.469,1.44-5.144,2.882-7.202c2.469-5.968,4.732-12.965,6.791-18.934c1.646-3.909,2.264-7.819,3.292-11.729
		c4.734-17.698,7.409-36.426,7.615-54.947c-0.618-19.139-2.881-37.66-8.232-55.976c-1.235-6.38-3.499-11.73-5.351-17.081
		c-1.646-5.145-3.499-10.701-5.557-15.846c0-2.058-1.234-4.116-1.44-5.763c-1.851-4.322-3.292-8.438-4.939-12.759
		C476.604,219.707,474.752,212.092,470.225,206.33"/>
	<path fill-rule="evenodd" clip-rule="evenodd" fill="#647B98" d="M359.918,211.063c-0.412,0-1.235,0-1.646,0.411
		c0,1.853,2.058,1.853,2.675,3.087C361.36,213.944,360.536,211.681,359.918,211.063"/>
	<path fill-rule="evenodd" clip-rule="evenodd" fill="#FFCB05" d="M352.921,213.533c-2.264,0-4.734,1.44-6.585,1.235
		c-2.264,1.029-3.498,2.469-5.763,2.675c2.265,2.675,5.351,4.733,7.821,7.614c3.91,3.087,9.467,2.264,13.788,1.646
		c1.646-4.528-3.292-6.586-4.321-8.85C355.597,216.62,355.597,213.327,352.921,213.533"/>
	<path fill-rule="evenodd" clip-rule="evenodd" fill="#FFCB05" d="M117.904,220.324c-2.263-0.206-0.617,3.086-1.029,4.527
		c0.823,8.849,5.146,16.258,8.438,23.666c1.646,3.087,3.293,5.351,4.939,8.232c4.116,4.527,7.614,8.438,11.73,11.113
		c4.527,2.469,8.026,6.379,12.965,7.82c2.264,2.058,4.527,2.881,6.997,4.322c6.379,0.823,10.907,3.704,17.286,4.938
		c2.676,1.235,5.557,1.235,7.821,2.264c5.144,1.029,11.113,2.47,15.846,3.293c20.991,2.675,41.364-0.206,61.944-0.412
		c16.052-0.412,31.693-1.234,46.098,0.412c-1.441-4.733-2.058-9.672-4.116-13.583c-19.55-2.88-40.335-3.704-59.886-2.058
		c-17.493,1.441-34.368,4.528-50.626,0.823c-2.88-1.029-5.557-0.206-8.025-1.44c-1.853-0.206-3.292-1.029-4.322-1.235
		c-4.938-0.412-8.232-3.292-12.142-4.527c-5.351-2.675-10.496-6.174-15.434-9.466c-4.734-4.322-9.055-8.232-11.937-13.583
		c-4.733-4.939-5.35-13.17-8.026-19.139c-4.321-2.263-9.672-2.469-13.788-4.733C120.992,220.735,119.345,220.735,117.904,220.324"/>
	<path fill-rule="evenodd" clip-rule="evenodd" fill="#647B98" d="M335.429,218.884c-3.499,0.412-6.38,1.028-10.084,2.058
		c-4.116,1.441-8.85,0.618-11.731,2.469c-0.205,3.087,2.47,4.116,2.264,6.38c9.672,0.206,19.756-0.617,29.017-2.264
		c-0.618-1.235-2.674-1.235-3.292-3.087C339.339,222.794,337.486,220.118,335.429,218.884"/>
	<path fill-rule="evenodd" clip-rule="evenodd" fill="#647B98" d="M142.6,228.35c0,4.527,1.44,9.466,4.115,12.759
		c1.852,2.675,3.293,5.556,5.762,7.615c2.264,2.675,5.145,4.321,6.792,6.585c5.762,2.881,9.467,6.174,14.817,8.644
		c1.853,1.646,4.939,1.44,6.173,3.292c5.146,0.823,10.083,2.059,14.406,3.087c0.617-1.852-0.823-3.087-0.412-4.527
		c-0.617-2.47-2.058-4.733-2.675-6.997c-3.911-7.82-6.174-16.875-12.553-22.432c-5.557,0-10.702-1.44-15.641-1.852
		c-2.675-0.823-4.938-1.852-7.614-2.675C150.625,231.231,146.715,228.762,142.6,228.35"/>
	<path fill-rule="evenodd" clip-rule="evenodd" fill="#647B98" d="M287.891,228.967c-1.441,0.206-1.852,1.441-3.086,1.029
		c-2.264,1.029-4.939,1.235-6.792,1.646c3.91,0.823,7.82,1.441,11.729,1.234C289.948,231.849,289.125,229.585,287.891,228.967"/>
	<path fill-rule="evenodd" clip-rule="evenodd" fill="#FFCB05" d="M395.109,228.967c-2.264,0.206-5.145-0.617-6.997,0.618
		c-0.412,4.732-1.029,9.26-0.412,13.582c11.73,0.411,23.872,2.675,33.956,7.409c4.939,2.675,10.701,4.733,15.229,8.231
		c1.441,1.646,2.881,2.47,4.527,3.499c6.586,5.762,12.143,11.936,16.67,18.316c1.646,1.852,2.264,4.321,3.498,5.968
		c0.824,2.058,1.44,4.116,2.471,5.968c-0.207,2.264,0,5.557-1.441,6.38c-10.495-0.206-18.933-5.145-26.136-9.672
		c-1.44-0.823-2.058-2.675-3.704-2.264c-0.823,2.881-2.882,5.556-2.058,8.026c4.526,2.881,8.231,5.556,12.759,8.026
		c4.321,2.058,8.025,4.322,12.348,5.762c3.704,1.029,6.38,3.087,9.878,4.116c7.614,3.498,16.463,5.351,24.078,8.026
		c2.058,0.617,3.704,0.822,4.527,0.617c0.617-4.322-1.853-7.82-2.264-11.524c-2.058-4.117-3.293-8.232-5.557-12.143
		c-4.322-8.849-9.466-16.875-14.61-24.283c-3.705-3.705-5.969-7.409-9.262-10.701c-1.029-2.059-2.676-2.059-3.704-3.91
		c-1.646-0.823-3.087-2.264-4.322-3.499c-3.909-3.91-9.26-6.585-13.582-9.878c-2.058-1.235-4.939-2.469-6.791-3.91
		c-4.116-1.029-7.203-3.292-10.907-4.733c-3.087,0-4.321-2.058-6.174-2.469c-1.852-1.235-3.703-1.029-5.351-1.852
		c-4.939-1.235-8.025-1.646-12.966-3.086C397.167,229.791,396.55,228.967,395.109,228.967"/>
	<path fill-rule="evenodd" clip-rule="evenodd" fill="#FFCB05" d="M266.282,233.084c-9.261,1.44-18.728,2.469-27.988,3.086
		c3.087,2.058,6.791,2.469,9.26,4.321c2.058,0.412,3.294,0.618,5.352,1.235c4.527,1.235,7.82,3.293,12.758,3.293
		c19.551,5.145,38.689,5.968,57.623,3.705c13.994-2.059,27.371-1.441,40.335-4.116c-0.206-4.527,0.205-8.849-0.823-12.965
		c-19.139-0.412-38.895,3.086-58.24,4.939c-8.025,1.234-15.022,1.44-22.431,1.029c-4.116-0.206-7.82-1.853-12.142-2.264
		C268.34,234.936,267.723,233.289,266.282,233.084"/>
	<path fill-rule="evenodd" clip-rule="evenodd" fill="#647B98" d="M229.239,236.582c-6.997,0.206-13.582,0.618-20.58,0.411
		c-0.412,1.646,1.646,3.087,1.44,4.939c1.441,1.646,1.646,3.499,2.47,4.733c1.029,4.116,2.676,7.821,3.91,11.113
		c2.264,4.939,3.087,10.29,5.556,14.2c20.991-1.235,41.57-3.91,61.944-2.058c7.409,0,14.406,2.264,20.991,1.441
		c-0.412-2.881-2.469-5.351-2.88-8.644c-1.853-2.675-1.853-6.173-4.323-7.82c-15.022-1.029-28.399-3.087-41.981-6.997
		c-7.409-2.47-15.023-4.528-21.609-8.232C232.121,239.257,231.091,237.611,229.239,236.582"/>
	<path fill-rule="evenodd" clip-rule="evenodd" fill="#FFCB05" d="M389.758,248.312c-0.823,0-1.234,0-2.264,0
		c-0.823,3.704-2.675,8.85,0.617,11.73c1.235,2.47,3.293,3.292,4.116,5.35c3.499,3.499,6.585,8.644,10.702,10.496
		c1.028-2.881,1.646-6.38,2.469-9.878c-2.059-1.029-2.676-3.293-4.527-4.321c-2.675-3.293-5.557-6.792-7.819-9.878
		C391.815,250.37,390.993,249.135,389.758,248.312"/>
	<path fill-rule="evenodd" clip-rule="evenodd" fill="#647B98" d="M362.389,248.93c-11.114,3.499-24.902,1.646-36.22,4.322
		c2.058,6.174,3.087,12.964,6.585,18.521c8.849,0.618,16.875,2.675,24.489,4.322c1.235,0.206,2.264,0.823,3.087,0.412
		c0.822-3.293,1.234-6.379,1.646-9.466C362.799,260.865,364.446,253.868,362.389,248.93"/>
	<path fill-rule="evenodd" clip-rule="evenodd" fill="#647B98" d="M398.196,249.135c-0.412,0-1.235,0-1.235,0.617
		c1.028,1.235,1.646,2.881,3.087,4.116c2.059,2.882,5.146,4.939,6.586,7.409c1.441-3.087,2.469-6.586,2.881-9.467
		C405.811,249.752,401.488,250.782,398.196,249.135"/>
	<path fill-rule="evenodd" clip-rule="evenodd" fill="#FFCB05" d="M320.406,253.251c-5.351,0.206-11.936,0.823-16.463,1.852
		c3.292,7.82,5.556,15.64,8.643,23.46c1.028,3.499,1.852,6.997,2.675,10.084c4.734,17.492,7.203,36.014,10.29,53.506
		c3.91,18.521,5.762,36.837,9.879,54.33c0.823,4.527,2.057,9.055,3.087,13.375c1.029,5.764,2.675,10.291,4.322,15.848
		c1.646,4.527,2.881,9.055,4.321,13.17c3.293,9.056,7.614,18.316,11.936,26.959c2.265,4.528,4.939,8.231,7.409,12.555
		c4.939,6.79,9.878,13.17,16.258,18.521c0.822,1.646,2.264,1.646,2.88,3.087c4.939,3.499,9.878,8.027,15.023,10.907
		c2.264,1.646,6.173,3.498,8.232,4.116c-1.648-6.174-3.294-13.377-5.146-19.757c-0.618-2.676-0.206-5.351-2.676-6.38
		c-4.734-2.264-7.615-5.351-11.524-8.025c-3.293-2.677-6.174-6.175-9.261-9.056c-5.145-5.146-9.467-10.289-12.553-15.846
		c-5.146-8.23-9.467-17.081-11.731-26.547c-1.441-2.059-1.029-4.732-2.059-6.586c-4.527-18.11-5.967-36.22-9.877-54.329
		c-1.03-15.023-4.322-29.018-5.763-43.629c-3.704-15.64-4.732-30.663-9.466-46.098c0.205-1.44-0.617-2.675-0.617-3.292
		c-1.441-3.087-2.058-6.173-3.088-9.055C322.875,261.895,322.67,257.367,320.406,253.251"/>
	<path fill-rule="evenodd" clip-rule="evenodd" fill="#FFCB05" d="M414.042,253.045c-2.058,6.174-3.705,12.759-5.557,19.962
		c-0.617,2.264-0.822,3.91-1.44,6.174c-1.028,7.203-3.087,13.788-3.087,19.962c4.322,3.499,9.056,7.203,13.377,10.495
		c1.234,1.234,2.47,2.47,3.704,2.676c1.647-4.733,2.47-9.467,3.91-14.2c1.235-5.968,3.088-11.319,4.527-16.669
		c2.47-5.556,4.322-10.495,5.968-16.052c-0.206-3.704-3.91-3.498-5.968-5.556C424.125,257.367,419.393,254.897,414.042,253.045"/>
	<path fill-rule="evenodd" clip-rule="evenodd" fill="#647B98" d="M385.643,263.953c-1.646,4.322-0.412,8.232-1.646,12.553
		c-0.412,3.704-2.469,7.409-1.44,9.878c3.704,1.029,6.174,3.499,9.467,4.939c1.852,1.646,4.732,2.469,6.379,4.321
		c0.617,0,1.234,0,1.234,0c0-4.733,2.675-9.672,1.029-14.405c-2.47-3.087-6.174-5.351-7.614-7.82
		c-1.441-1.646-2.47-3.704-4.117-4.939C387.7,266.833,386.878,264.57,385.643,263.953"/>
	<path fill-rule="evenodd" clip-rule="evenodd" fill="#647B98" d="M438.943,267.863c-0.823,3.499-2.676,6.997-4.115,11.112
		c0,1.235-1.029,2.676-0.207,3.087c2.677,1.646,4.94,3.91,7.409,4.733c3.91,3.087,8.438,4.939,13.376,6.174
		c1.235,0,2.264,0.617,3.294,0.617c-0.413-3.91-2.677-7.203-4.528-10.29c-2.264-2.881-4.527-5.556-6.38-8.231
		c-1.029-1.44-2.675-1.646-3.293-3.087C442.647,270.332,440.795,267.656,438.943,267.863"/>
	<path fill-rule="evenodd" clip-rule="evenodd" fill="#FFCB05" d="M335.635,276.712c-0.411,0.205-1.647-0.206-2.058,0.618
		c1.439,3.498,1.439,7.408,2.881,11.113c3.087,1.028,7.409-0.207,10.083,1.852c6.586,1.235,12.143,3.704,17.699,5.968
		c2.058,0.823,3.499,1.646,5.556,2.47c5.557,3.292,11.113,5.968,16.258,9.26c2.881,1.235,4.322,3.704,6.998,4.527
		c8.849,6.792,17.492,14.2,24.9,23.049c3.91,3.293,5.557,8.026,8.437,11.73c2.059,3.91,4.528,7.614,6.381,11.524
		c2.881,5.968,6.174,11.524,7.614,18.315c1.441,4.322,3.087,8.645,1.852,12.555c-1.646,3.086-5.762,2.264-8.437,2.881
		c-5.557-1.235-11.937-0.824-15.436-4.322c-1.852,5.146-1.028,12.553-0.411,18.316c1.646,1.028,2.264,2.47,4.116,3.291
		c1.646,2.06,5.146,2.677,6.997,4.734c8.644,3.293,16.669,7.203,26.341,6.997c4.527,2.058,9.673,1.44,15.023,0.617
		c1.234-2.882-0.618-5.969-0.618-7.82c-2.469-9.466-4.115-18.727-7.407-27.782c-1.853-2.058-1.44-4.732-2.676-6.996
		c-5.969-14.612-13.376-26.343-21.402-38.896c-1.853-1.647-2.265-3.91-4.116-4.734c-0.617-2.057-2.058-3.086-3.293-4.526
		c-4.528-5.557-10.084-11.319-15.229-16.258c-3.704-3.499-7.408-5.763-10.702-8.849c-3.498-2.265-6.379-4.939-10.083-6.998
		c-2.881-2.264-5.762-3.087-8.644-5.145c-7.614-4.116-16.257-8.438-24.9-11.113c-6.38-2.882-12.966-3.705-19.346-5.351
		C339.545,277.741,337.281,277.124,335.635,276.712"/>
	<path fill-rule="evenodd" clip-rule="evenodd" fill="#647B98" d="M281.305,293.792c-17.699,0.206-35.396,2.47-53.094,3.087
		c-0.413,1.853,1.028,2.881,1.028,4.939c2.47,6.997,2.675,15.229,3.704,21.608c8.026-6.997,19.962-9.055,30.458-7.409
		c6.585,1.853,12.348,3.705,17.698,6.175c2.676,2.058,5.351,2.47,6.997,4.733c4.528,2.88,7.409,7.408,10.496,11.112
		c3.292,4.527,4.732,9.467,6.79,15.023c2.265,10.083,1.441,22.226-5.556,28.604c-1.234,0.618-1.646,0.823-2.469,2.059
		c10.29,1.235,20.58,2.47,31.075,5.762c-0.824-11.318-3.704-23.049-5.145-33.544c-3.292-18.728-5.762-36.631-9.673-54.741
		c-1.234-2.264,0-4.527-1.852-5.557C301.267,294.41,291.389,293.792,281.305,293.792"/>
	<path fill-rule="evenodd" clip-rule="evenodd" fill="#FFCB05" d="M210.306,296.056c-1.852,0.618,0,2.882-0.412,4.116
		c3.91,9.467,5.556,20.374,6.997,30.046c1.646,5.762,1.235,11.319,2.676,16.464c0.411-7.615,6.585-12.348,7.82-19.345
		c0.618-7.409-0.617-14.611-2.058-21.814c-1.029-2.676-0.617-5.968-2.882-8.026C218.332,296.056,214.01,296.468,210.306,296.056"/>
	<path fill-rule="evenodd" clip-rule="evenodd" fill="#647B98" d="M338.31,293.175c-1.852,3.704,1.235,9.878,1.44,14.2
		c1.03,2.47,0,4.733,1.441,6.586c1.646,13.993,4.321,27.987,6.379,41.364c1.235,13.171,3.293,26.136,5.967,38.896
		c5.352,1.028,10.908,2.469,16.464,4.114c2.674,2.06,6.173,2.265,9.466,3.293c2.264,1.234,4.527,2.676,7.203,2.882
		c1.44,0.412,2.675,2.059,3.91,1.234c-0.618-4.116,0-8.849-0.412-12.965c-5.351-3.293-9.671-8.85-13.583-13.582
		c-0.617-2.264-2.469-3.499-2.881-5.146c-2.881-3.292-4.116-7.408-6.585-11.112c-8.026-16.875-9.672-36.426-9.672-54.33
		c0.206-3.292,1.441-6.585,1.029-9.672C351.481,296.468,345.307,294.616,338.31,293.175"/>
	<path fill-rule="evenodd" clip-rule="evenodd" fill="#FFCB05" d="M363.005,301.201c-2.675,16.052-0.617,32.927,4.321,49.597
		c0.824,2.675,1.853,4.527,3.088,7.409c1.234,3.087,2.88,4.938,4.115,8.025c1.852,2.264,2.47,5.145,4.527,7.408
		c0.617,2.058,2.264,3.293,3.292,4.939c2.881,3.498,5.351,5.35,7.614,8.231c0.206-5.763,2.47-14.611-1.234-19.756
		c-2.058-1.441-2.264-3.088-3.293-4.116c-1.44-2.676-2.058-4.116-3.498-6.586c-2.882-5.968-5.146-12.553-6.586-19.139
		c-1.852-10.289,0.411-22.02-1.646-30.868c-2.469-1.441-4.733-2.676-7.203-3.705C365.476,301.819,364.24,301.613,363.005,301.201"/>
	<path fill-rule="evenodd" clip-rule="evenodd" fill="#647B98" d="M379.264,309.845c-2.06,8.231-0.823,18.728,1.028,27.576
		c0.617,4.116,1.647,7.203,3.292,10.701c2.264,5.558,4.94,10.085,7.409,14.612c0-14.2,1.852-30.047,1.03-44.246
		c-3.499-2.676-6.997-4.939-10.084-7.203C380.703,310.668,380.086,310.051,379.264,309.845"/>
	<path fill-rule="evenodd" clip-rule="evenodd" fill="#FFCB05" d="M258.873,320.34c-5.762-0.206-10.907,0.823-16.669,2.881
		c-3.705,2.265-6.792,4.528-9.672,7.408c-2.059,2.676-3.293,4.939-4.939,7.204c-2.675,4.527-2.881,10.084-4.321,14.816
		c-0.617,4.939-0.412,10.29,0.411,14.406c1.44,5.968,4.322,11.112,7.409,15.022c3.499,3.705,6.997,6.174,10.496,8.644
		c9.877,5.556,22.019,8.85,33.75,10.495c6.379,2.675,14.2,1.441,20.991,4.115c12.965,2.47,26.343,3.088,37.66,8.026
		c0.412-1.234-0.411-3.086-0.617-4.116c-1.852-5.351-1.029-10.907-3.911-15.021c-3.704-1.03-7.202-1.441-10.084-3.087
		c-6.173-1.44-12.142-0.618-18.109-1.854c-18.315-1.646-36.837-1.028-54.947-7.202c-4.322-2.676-8.438-5.968-11.113-10.083
		c-1.029-1.647-1.235-3.705-2.469-5.146c-1.646-4.939-1.646-9.878-0.412-14.816c1.852-5.352,4.939-8.232,8.643-12.349
		c6.997-5.145,16.464-6.791,24.901-4.527c2.264,1.44,4.321,2.47,5.968,3.499c3.087,2.058,6.585,4.527,8.232,7.408
		c3.705,6.585,6.379,14.406,4.734,22.226c-1.852,6.174-4.734,11.112-9.673,13.994c6.998,1.028,15.229,2.469,20.991-2.264
		c1.441-1.853,2.675-3.293,3.91-5.146c4.117-9.878,1.235-22.226-3.292-31.28c-1.029-1.44-2.058-3.088-3.293-4.321
		c-2.264-4.116-6.585-7.82-10.083-10.496C275.543,324.867,267.929,321.78,258.873,320.34"/>
	<path fill-rule="evenodd" clip-rule="evenodd" fill="#FFCB05" d="M397.579,323.016c-0.824,14.611-1.853,30.251-1.44,45.068
		c-0.824,13.789-1.853,29.017,0.412,41.158c1.234,0.824,2.674,0.824,3.704,2.059c4.939,1.235,8.026,4.733,12.76,5.351
		c-0.618-19.345-1.029-38.483,0.412-58.239c0-7.203,3.086-14.611,0.205-20.169c-1.646-1.646-2.676-3.292-4.528-4.732
		c-1.646-2.058-3.292-3.293-5.145-5.351c-1.852-1.029-2.675-3.293-4.733-3.705C398.402,324.045,398.607,322.604,397.579,323.016"/>
	<path fill-rule="evenodd" clip-rule="evenodd" fill="#E38C44" d="M259.079,338.861c-1.234,0-2.881-0.618-3.911,0.412
		c1.236,1.646,3.911,1.852,4.528,4.527c3.499,4.733,0.411,12.965,4.528,16.052c3.909,0.206,8.643,1.029,11.318-2.058
		c1.646-1.853,2.47-4.528,1.646-7.203c-2.47-4.116-5.761-6.173-8.849-8.644C264.636,340.92,262.577,339.273,259.079,338.861"/>
	<path fill-rule="evenodd" clip-rule="evenodd" fill="#E38C44" d="M252.082,342.154c-3.293,0.206-6.997,0.206-9.672,2.058
		c5.762,0.823,10.496,2.47,14.611,6.586c0.412,0.617,0.412,1.028,0.823,1.44c0.411-2.059-0.412-5.557-2.058-7.409
		C254.14,344.419,253.523,342.565,252.082,342.154"/>
	<path fill-rule="evenodd" clip-rule="evenodd" fill="#E38C44" d="M245.292,348.945c-3.087-0.206-5.557,1.646-7.409,3.91
		c-3.087,3.293-1.441,6.997-1.646,10.907c0.823,2.47,1.852,3.498,3.086,5.968c1.646,1.234,1.852,2.881,3.91,4.528
		c0.823-4.528,1.235-10.291,5.145-12.555c2.675-1.646,4.733-3.087,7.82-4.321C254.551,352.444,250.23,350.386,245.292,348.945"/>
	<path fill-rule="evenodd" clip-rule="evenodd" fill="#647B98" d="M419.188,346.682c-1.235,11.73-2.059,24.283-1.646,35.808
		c5.351,4.116,13.376,4.939,20.168,5.146c-0.207-7.614-3.91-14.611-6.792-21.813c-2.88-5.558-5.557-10.496-8.438-15.436
		C420.833,349.357,421.039,346.888,419.188,346.682"/>
	<path fill-rule="evenodd" clip-rule="evenodd" fill="#E38C44" d="M279.865,359.235c-1.646,2.059-3.499,3.704-6.586,4.322
		c-2.469,0.616-4.733-0.207-6.586,1.028c1.441,1.646,5.146,1.852,7.204,3.498c2.264,0.206,4.733,1.44,6.174-0.411
		C280.893,364.791,280.893,361.087,279.865,359.235"/>
	<path fill-rule="evenodd" clip-rule="evenodd" fill="#E38C44" d="M255.581,362.527c-1.852,0.207-2.264,1.44-3.704,1.853
		c-3.087,3.293-4.527,8.644-2.881,12.759c1.441,1.853,3.499,1.441,5.145,2.059c-0.412-4.938-1.234-10.29,1.028-15.023
		C255.992,363.763,256.404,362.116,255.581,362.527"/>
	<path fill-rule="evenodd" clip-rule="evenodd" fill="#E38C44" d="M261.343,365.821c-0.823,0.822-2.47,0-2.881,1.234
		c-0.617,3.909-1.853,8.231,0.823,10.906c2.88,2.059,5.762,5.351,10.083,3.087c2.47-2.264,5.762-2.881,7.409-5.556
		c0.411-0.823,1.646-1.646,1.235-2.675C271.838,372.611,265.459,369.524,261.343,365.821"/>
	<path fill-rule="evenodd" clip-rule="evenodd" fill="#FFCB05" d="M357.243,399.364c-0.823,0.207-2.264-0.822-2.88,0.412
		c0.822,6.174,1.028,13.171,3.909,17.493c2.675,0.411,4.322,1.233,6.585,1.852c4.733,1.853,9.261,3.293,13.171,5.558
		c8.438,2.88,15.64,6.996,22.432,10.906c2.263,1.646,4.938,2.469,7.203,4.527c3.292,1.44,5.145,4.116,8.231,5.762
		c3.087,3.087,7.408,6.174,10.29,9.055c3.292,1.853,4.527,5.763,5.556,8.851c-0.823,3.703,2.059,5.967,4.527,7.819
		c3.294,3.293,8.438,3.086,12.965,2.058c1.853-1.029,3.499-0.411,4.322-2.058c-1.234-4.732-3.087-9.056-5.146-12.759
		c-1.028-1.441-1.852-2.265-2.264-3.705c-1.852-3.087-3.704-5.557-5.556-8.231c-3.499-4.733-6.997-8.644-11.73-11.937
		c-3.91-2.881-6.791-5.556-10.083-7.614c-1.03-2.264-3.912-2.058-4.734-3.91c-5.144-2.676-9.672-5.968-15.022-7.614
		c-2.264-2.058-5.557-2.47-8.232-3.909c-2.469-1.646-4.733-2.677-8.025-3.705c-4.528-2.058-7.821-3.087-12.76-4.527
		C366.298,401.012,360.536,402.041,357.243,399.364"/>
	<path fill-rule="evenodd" clip-rule="evenodd" fill="#647B98" d="M359.712,422.62c-0.822,2.263,1.235,5.35,1.44,8.231
		c5.969,15.846,12.76,27.781,23.874,39.306c2.88,3.088,5.144,4.734,7.614,7.204c2.88,1.234,5.762,4.938,8.231,5.145
		c-6.379-15.229-0.617-38.484-12.965-48.567C378.234,429.822,370.002,425.501,359.712,422.62"/>
	<rect x="556.655" y="48.487" fill-rule="evenodd" clip-rule="evenodd" fill="#FFCB05" width="10.907" height="10.908"/>
	
		<rect x="556.655" y="48.487" fill="none" stroke="#000000" stroke-width="5.7622" stroke-linecap="round" stroke-miterlimit="2.6131" width="10.907" height="10.908"/>
	<rect x="516.525" y="46.841" fill-rule="evenodd" clip-rule="evenodd" fill="#FFCB05" width="10.908" height="10.907"/>
	
		<rect x="516.525" y="46.841" fill="none" stroke="#000000" stroke-width="5.7622" stroke-linecap="round" stroke-miterlimit="2.6131" width="10.908" height="10.907"/>
	<rect x="476.396" y="46.841" fill-rule="evenodd" clip-rule="evenodd" fill="#FFCB05" width="10.906" height="10.907"/>
	
		<rect x="476.396" y="46.841" fill="none" stroke="#000000" stroke-width="5.7622" stroke-linecap="round" stroke-miterlimit="2.6131" width="10.906" height="10.907"/>
	<rect x="436.266" y="46.841" fill-rule="evenodd" clip-rule="evenodd" fill="#FFCB05" width="10.907" height="10.907"/>
	
		<rect x="436.266" y="46.841" fill="none" stroke="#000000" stroke-width="5.7622" stroke-linecap="round" stroke-miterlimit="2.6131" width="10.907" height="10.907"/>
	<rect x="396.137" y="46.841" fill-rule="evenodd" clip-rule="evenodd" fill="#FFCB05" width="10.906" height="10.907"/>
	
		<rect x="396.137" y="46.841" fill="none" stroke="#000000" stroke-width="5.7622" stroke-linecap="round" stroke-miterlimit="2.6131" width="10.906" height="10.907"/>
	<rect x="356.006" y="46.841" fill-rule="evenodd" clip-rule="evenodd" fill="#FFCB05" width="10.907" height="10.907"/>
	
		<rect x="356.006" y="46.841" fill="none" stroke="#000000" stroke-width="5.7622" stroke-linecap="round" stroke-miterlimit="2.6131" width="10.907" height="10.907"/>
	<rect x="315.877" y="46.841" fill-rule="evenodd" clip-rule="evenodd" fill="#FFCB05" width="10.906" height="10.907"/>
	
		<rect x="315.877" y="46.841" fill="none" stroke="#000000" stroke-width="5.7622" stroke-linecap="round" stroke-miterlimit="2.6131" width="10.906" height="10.907"/>
	<rect x="275.953" y="46.841" fill-rule="evenodd" clip-rule="evenodd" fill="#FFCB05" width="10.907" height="10.907"/>
	
		<rect x="275.953" y="46.841" fill="none" stroke="#000000" stroke-width="5.7622" stroke-linecap="round" stroke-miterlimit="2.6131" width="10.907" height="10.907"/>
	<rect x="235.823" y="46.841" fill-rule="evenodd" clip-rule="evenodd" fill="#FFCB05" width="10.907" height="10.907"/>
	
		<rect x="235.823" y="46.841" fill="none" stroke="#000000" stroke-width="5.7622" stroke-linecap="round" stroke-miterlimit="2.6131" width="10.907" height="10.907"/>
	<rect x="195.693" y="46.841" fill-rule="evenodd" clip-rule="evenodd" fill="#FFCB05" width="10.907" height="10.907"/>
	
		<rect x="195.693" y="46.841" fill="none" stroke="#000000" stroke-width="5.7622" stroke-linecap="round" stroke-miterlimit="2.6131" width="10.907" height="10.907"/>
	<rect x="155.563" y="46.841" fill-rule="evenodd" clip-rule="evenodd" fill="#FFCB05" width="10.907" height="10.907"/>
	
		<rect x="155.563" y="46.841" fill="none" stroke="#000000" stroke-width="5.7622" stroke-linecap="round" stroke-miterlimit="2.6131" width="10.907" height="10.907"/>
	<rect x="115.433" y="46.841" fill-rule="evenodd" clip-rule="evenodd" fill="#FFCB05" width="10.908" height="10.907"/>
	
		<rect x="115.433" y="46.841" fill="none" stroke="#000000" stroke-width="5.7622" stroke-linecap="round" stroke-miterlimit="2.6131" width="10.908" height="10.907"/>
	<rect x="558.508" y="488.27" fill-rule="evenodd" clip-rule="evenodd" fill="#FFCB05" width="10.906" height="10.906"/>
	
		<rect x="558.508" y="488.27" fill="none" stroke="#000000" stroke-width="5.7622" stroke-linecap="round" stroke-miterlimit="2.6131" width="10.906" height="10.906"/>
	<rect x="558.508" y="448.139" fill-rule="evenodd" clip-rule="evenodd" fill="#FFCB05" width="10.906" height="10.906"/>
	
		<rect x="558.508" y="448.139" fill="none" stroke="#000000" stroke-width="5.7622" stroke-linecap="round" stroke-miterlimit="2.6131" width="10.906" height="10.906"/>
	<rect x="558.508" y="408.009" fill-rule="evenodd" clip-rule="evenodd" fill="#FFCB05" width="10.906" height="10.907"/>
	
		<rect x="558.508" y="408.009" fill="none" stroke="#000000" stroke-width="5.7622" stroke-linecap="round" stroke-miterlimit="2.6131" width="10.906" height="10.907"/>
	<rect x="558.508" y="367.879" fill-rule="evenodd" clip-rule="evenodd" fill="#FFCB05" width="10.906" height="10.908"/>
	
		<rect x="558.508" y="367.879" fill="none" stroke="#000000" stroke-width="5.7622" stroke-linecap="round" stroke-miterlimit="2.6131" width="10.906" height="10.908"/>
	<rect x="558.508" y="327.749" fill-rule="evenodd" clip-rule="evenodd" fill="#FFCB05" width="10.906" height="10.907"/>
	
		<rect x="558.508" y="327.749" fill="none" stroke="#000000" stroke-width="5.7622" stroke-linecap="round" stroke-miterlimit="2.6131" width="10.906" height="10.907"/>
	<rect x="558.508" y="287.825" fill-rule="evenodd" clip-rule="evenodd" fill="#FFCB05" width="10.906" height="10.907"/>
	
		<rect x="558.508" y="287.825" fill="none" stroke="#000000" stroke-width="5.7622" stroke-linecap="round" stroke-miterlimit="2.6131" width="10.906" height="10.907"/>
	<rect x="558.508" y="247.489" fill-rule="evenodd" clip-rule="evenodd" fill="#FFCB05" width="10.906" height="11.113"/>
	
		<rect x="558.508" y="247.489" fill="none" stroke="#000000" stroke-width="5.7622" stroke-linecap="round" stroke-miterlimit="2.6131" width="10.906" height="11.113"/>
	<rect x="558.508" y="207.36" fill-rule="evenodd" clip-rule="evenodd" fill="#FFCB05" width="10.906" height="11.113"/>
	
		<rect x="558.508" y="207.36" fill="none" stroke="#000000" stroke-width="5.7622" stroke-linecap="round" stroke-miterlimit="2.6131" width="10.906" height="11.113"/>
	<rect x="558.508" y="167.23" fill-rule="evenodd" clip-rule="evenodd" fill="#FFCB05" width="10.906" height="10.907"/>
	
		<rect x="558.508" y="167.23" fill="none" stroke="#000000" stroke-width="5.7622" stroke-linecap="round" stroke-miterlimit="2.6131" width="10.906" height="10.907"/>
	<rect x="558.508" y="127.101" fill-rule="evenodd" clip-rule="evenodd" fill="#FFCB05" width="10.906" height="10.907"/>
	
		<rect x="558.508" y="127.101" fill="none" stroke="#000000" stroke-width="5.7622" stroke-linecap="round" stroke-miterlimit="2.6131" width="10.906" height="10.907"/>
	<rect x="558.508" y="86.971" fill-rule="evenodd" clip-rule="evenodd" fill="#FFCB05" width="10.906" height="10.907"/>
	
		<rect x="558.508" y="86.971" fill="none" stroke="#000000" stroke-width="5.7622" stroke-linecap="round" stroke-miterlimit="2.6131" width="10.906" height="10.907"/>
</g>
<g>
</g>
<g>
</g>
<g>
</g>
<g>
</g>
<g>
</g>
<g>
</g>
</svg>
